<?xml version="1.0" encoding="UTF-8" standalone="no"?>
<!DOCTYPE svg PUBLIC "-//W3C//DTD SVG 1.1//EN" "http://www.w3.org/Graphics/SVG/1.1/DTD/svg11.dtd">
<svg xmlns="http://www.w3.org/2000/svg" version="1.1" viewBox="0.00 0.00 116.00 161.00">
<g stroke-width="5.00" fill="none" stroke-linecap="butt">
<path stroke="#f3e4aa" vector-effect="non-scaling-stroke" d="
  M 17.90 0.56
  Q 18.88 2.06 16.66 2.91
  Q 13.78 4.01 13.99 7.24
  Q 14.03 7.75 13.61 8.06
  Q 13.01 8.50 12.18 7.97"
/>
<path stroke="#ad8932" vector-effect="non-scaling-stroke" d="
  M 23.02 4.95
  Q 20.88 3.09 18.78 3.02
  Q 18.25 3.00 18.25 3.53
  L 18.25 4.02"
/>
<path stroke="#f3e4aa" vector-effect="non-scaling-stroke" d="
  M 17.76 14.21
  Q 17.04 14.81 16.86 15.85"
/>
<path stroke="#ad8932" vector-effect="non-scaling-stroke" d="
  M 16.86 15.85
  Q 14.48 13.31 14.04 9.40
  Q 13.97 8.77 13.68 8.77
  Q 13.36 8.77 13.05 9.75"
/>
<path stroke="#f3e263" vector-effect="non-scaling-stroke" d="
  M 13.05 9.75
  Q 12.39 9.43 11.73 9.46"
/>
<path stroke="#ad8932" vector-effect="non-scaling-stroke" d="
  M 22.81 8.96
  L 22.45 7.12
  A 0.94 0.92 7.0 0 0 21.92 6.45
  Q 21.02 6.05 19.76 6.28"
/>
<path stroke="#f3e263" vector-effect="non-scaling-stroke" d="
  M 25.04 25.52
  Q 24.89 26.12 24.18 26.86"
/>
<path stroke="#cabb3f" vector-effect="non-scaling-stroke" d="
  M 24.18 26.86
  Q 23.20 25.30 21.66 24.86
  Q 21.13 24.71 20.71 24.34
  L 17.28 21.23
  Q 17.05 21.02 16.75 21.13
  L 16.27 21.31"
/>
<path stroke="#fffdb4" vector-effect="non-scaling-stroke" d="
  M 16.27 21.31
  Q 14.80 18.44 13.36 18.66"
/>
<path stroke="#a1acad" vector-effect="non-scaling-stroke" d="
  M 28.50 14.87
  Q 27.63 14.30 26.74 14.57"
/>
<path stroke="#bbcec8" vector-effect="non-scaling-stroke" d="
  M 26.74 14.57
  Q 23.28 14.34 20.29 15.94"
/>
<path stroke="#fffdb4" vector-effect="non-scaling-stroke" d="
  M 19.19 16.53
  L 16.86 15.85"
/>
<path stroke="#baa23c" vector-effect="non-scaling-stroke" d="
  M 16.86 15.85
  L 17.27 17.66"
/>
<path stroke="#4d2910" vector-effect="non-scaling-stroke" d="
  M 17.27 17.66
  Q 16.96 17.85 16.95 18.19"
/>
<path stroke="#baa23c" vector-effect="non-scaling-stroke" d="
  M 16.95 18.19
  Q 13.37 14.98 13.05 9.75"
/>
<path stroke="#baa23c" vector-effect="non-scaling-stroke" d="
  M 27.28 19.72
  Q 27.19 20.13 27.32 20.25"
/>
<path stroke="#f3e263" vector-effect="non-scaling-stroke" d="
  M 27.32 20.25
  Q 27.46 21.58 25.29 21.23"
/>
<path stroke="#a89b43" vector-effect="non-scaling-stroke" d="
  M 25.29 21.23
  Q 24.46 19.65 22.97 19.84
  Q 22.39 19.92 22.74 20.39
  Q 23.61 21.54 23.13 22.15"
/>
<path stroke="#f3e263" vector-effect="non-scaling-stroke" d="
  M 29.99 32.97
  Q 28.32 31.68 27.71 29.26
  Q 27.53 28.56 26.23 28.74"
/>
<path stroke="#cabd86" vector-effect="non-scaling-stroke" d="
  M 16.27 21.31
  L 16.50 22.38"
/>
<path stroke="#ead49f" vector-effect="non-scaling-stroke" d="
  M 16.50 22.38
  Q 16.13 22.45 15.75 22.89"
/>
<path stroke="#bbcec8" vector-effect="non-scaling-stroke" d="
  M 15.75 22.89
  Q 15.34 22.36 14.87 22.19
  Q 14.33 22.01 14.11 22.53
  L 3.74 47.45
  A 1.68 1.64 -42.7 0 0 3.68 48.54
  C 7.98 63.04 11.31 74.30 16.88 87.05"
/>
<path stroke="#a1acad" vector-effect="non-scaling-stroke" d="
  M 16.88 87.05
  Q 23.76 103.63 32.33 119.40"
/>
<path stroke="#cee6e6" vector-effect="non-scaling-stroke" d="
  M 32.33 119.40
  Q 31.75 120.45 31.56 120.27"
/>
<path stroke="#bda235" vector-effect="non-scaling-stroke" d="
  M 24.18 26.86
  Q 24.21 26.91 24.24 26.95"
/>
<path stroke="#745324" vector-effect="non-scaling-stroke" d="
  M 24.24 26.95
  L 23.17 27.31"
/>
<path stroke="#b5922a" vector-effect="non-scaling-stroke" d="
  M 23.17 27.31
  Q 22.81 25.25 20.10 25.10
  Q 19.60 25.08 19.31 24.68
  Q 18.26 23.27 16.50 22.38"
/>
<path stroke="#7e592d" vector-effect="non-scaling-stroke" d="
  M 30.76 23.53
  Q 31.35 30.74 33.69 37.83"
/>
<path stroke="#4f262f" vector-effect="non-scaling-stroke" d="
  M 33.69 37.83
  Q 34.61 39.70 33.23 40.50"
/>
<path stroke="#938242" vector-effect="non-scaling-stroke" d="
  M 33.23 40.50
  L 29.99 32.97"
/>
<path stroke="#876938" vector-effect="non-scaling-stroke" d="
  M 29.99 32.97
  Q 29.93 28.36 25.04 25.52"
/>
<path stroke="#938242" vector-effect="non-scaling-stroke" d="
  M 25.04 25.52
  C 23.05 23.56 17.90 20.42 16.95 18.19"
/>
<path stroke="#938242" vector-effect="non-scaling-stroke" d="
  M 17.27 17.66
  L 23.13 22.15"
/>
<path stroke="#3c2217" vector-effect="non-scaling-stroke" d="
  M 23.13 22.15
  Q 22.71 22.11 23.73 22.28"
/>
<path stroke="#876938" vector-effect="non-scaling-stroke" d="
  M 23.73 22.28
  Q 24.55 23.36 25.69 23.53"
/>
<path stroke="#1d0911" vector-effect="non-scaling-stroke" d="
  M 25.69 23.53
  L 26.26 24.20"
/>
<path stroke="#876938" vector-effect="non-scaling-stroke" d="
  M 26.26 24.20
  Q 25.79 24.31 26.60 25.02
  A 1.15 1.15 0.0 0 0 27.96 25.12
  Q 29.84 23.93 28.43 21.74"
/>
<path stroke="#4d2910" vector-effect="non-scaling-stroke" d="
  M 28.43 21.74
  Q 28.84 20.93 28.75 19.99
  Q 28.70 19.51 28.22 19.49
  Q 27.68 19.47 27.28 19.72"
/>
<path stroke="#938242" vector-effect="non-scaling-stroke" d="
  M 27.28 19.72
  L 19.19 16.53"
/>
<path stroke="#938489" vector-effect="non-scaling-stroke" d="
  M 19.19 16.53
  Q 19.06 15.91 20.29 15.94"
/>
<path stroke="#4f5356" vector-effect="non-scaling-stroke" d="
  M 20.29 15.94
  Q 23.07 16.82 25.00 15.40"
/>
<path stroke="#35313b" vector-effect="non-scaling-stroke" d="
  M 25.00 15.40
  Q 27.65 15.92 28.50 14.87"
/>
<path stroke="#938489" vector-effect="non-scaling-stroke" d="
  M 28.50 14.87
  Q 29.05 13.18 28.57 11.98"
/>
<path stroke="#5d7b7a" vector-effect="non-scaling-stroke" d="
  M 26.74 14.57
  Q 26.65 15.32 25.00 15.40"
/>
<path stroke="#ad8932" vector-effect="non-scaling-stroke" d="
  M 28.43 21.74
  Q 27.63 21.24 27.32 20.25"
/>
<path stroke="#9b8239" vector-effect="non-scaling-stroke" d="
  M 25.29 21.23
  Q 25.02 22.11 23.73 22.28"
/>
<path stroke="#7c6933" vector-effect="non-scaling-stroke" d="
  M 26.26 24.20
  Q 27.75 24.53 27.76 23.66
  A 1.09 1.09 0.0 0 0 26.06 22.74
  Q 25.77 22.93 25.69 23.53"
/>
<path stroke="#bb9f5b" vector-effect="non-scaling-stroke" d="
  M 33.23 40.50
  L 36.06 47.92"
/>
<path stroke="#f3e263" vector-effect="non-scaling-stroke" d="
  M 36.06 47.92
  Q 35.98 50.32 36.71 52.24"
/>
<path stroke="#c9b26a" vector-effect="non-scaling-stroke" d="
  M 36.71 52.24
  L 37.44 57.95
  A 0.67 0.67 0.0 0 1 36.67 58.70
  Q 36.04 58.60 35.50 57.73"
/>
<path stroke="#9e7b49" vector-effect="non-scaling-stroke" d="
  M 24.24 26.95
  Q 25.81 27.28 26.23 28.74"
/>
<path stroke="#aa9453" vector-effect="non-scaling-stroke" d="
  M 26.23 28.74
  Q 25.61 29.29 25.47 30.04
  A 1.17 1.16 31.6 0 0 25.70 30.98
  C 32.31 39.36 33.33 47.71 35.50 57.73"
/>
<path stroke="#744a50" vector-effect="non-scaling-stroke" d="
  M 35.50 57.73
  Q 35.32 58.17 35.04 58.32
  Q 34.48 58.62 34.34 58.00
  L 32.99 51.83"
/>
<path stroke="#6e4148" vector-effect="non-scaling-stroke" d="
  M 32.99 51.83
  L 31.26 45.95"
/>
<path stroke="#663840" vector-effect="non-scaling-stroke" d="
  M 31.26 45.95
  Q 30.24 42.08 28.61 38.39
  C 27.29 35.41 24.61 32.94 23.15 29.56
  Q 22.96 29.11 22.52 28.87
  L 16.99 25.91"
/>
<path stroke="#6f9398" vector-effect="non-scaling-stroke" d="
  M 58.87 160.65
  Q 56.28 158.12 55.31 156.69
  Q 43.01 138.55 32.33 119.40"
/>
<path stroke="#5f747a" vector-effect="non-scaling-stroke" d="
  M 58.23 156.99
  Q 57.20 159.81 63.38 157.62"
/>
<path stroke="#77a1a9" vector-effect="non-scaling-stroke" d="
  M 63.38 157.62
  Q 82.72 127.82 96.82 94.73"
/>
<path stroke="#956b3e" vector-effect="non-scaling-stroke" d="
  M 23.17 27.31
  L 17.71 24.94"
/>
<path stroke="#865d26" vector-effect="non-scaling-stroke" d="
  M 17.71 24.94
  L 15.52 22.71"
/>
<path stroke="#a6a36c" vector-effect="non-scaling-stroke" d="
  M 15.75 22.89
  Q 15.63 22.80 15.52 22.71"
/>
<path stroke="#57574f" vector-effect="non-scaling-stroke" d="
  M 15.52 22.71
  L 5.62 46.58
  Q 5.43 47.04 5.56 47.53
  Q 10.50 66.27 17.61 84.21"
/>
<path stroke="#5d7b7a" vector-effect="non-scaling-stroke" d="
  M 17.61 84.21
  Q 16.95 85.57 16.88 87.05"
/>
<path stroke="#6b5522" vector-effect="non-scaling-stroke" d="
  M 33.70 28.66
  Q 32.90 32.10 34.69 36.75"
/>
<path stroke="#a67646" vector-effect="non-scaling-stroke" d="
  M 34.69 36.75
  Q 34.38 37.84 33.69 37.83"
/>
<path stroke="#855658" vector-effect="non-scaling-stroke" d="
  M 40.60 52.31
  L 38.62 52.33"
/>
<path stroke="#af8651" vector-effect="non-scaling-stroke" d="
  M 38.62 52.33
  L 36.06 47.92"
/>
<path stroke="#fffd86" vector-effect="non-scaling-stroke" d="
  M 37.86 38.00
  Q 38.34 38.62 37.28 39.79"
/>
<path stroke="#807e37" vector-effect="non-scaling-stroke" d="
  M 37.28 39.79
  L 33.70 28.66"
/>
<path stroke="#ead258" vector-effect="non-scaling-stroke" d="
  M 33.70 28.66
  Q 34.09 27.17 33.05 25.10
  Q 32.80 24.61 32.25 24.58
  Q 30.84 24.50 30.76 23.53"
/>
<path stroke="#938242" vector-effect="non-scaling-stroke" d="
  M 30.76 23.53
  L 29.49 9.17"
/>
<path stroke="#bc9960" vector-effect="non-scaling-stroke" d="
  M 38.62 52.33
  Q 40.80 54.11 40.53 56.98
  Q 40.47 57.56 40.66 58.12
  L 42.32 63.18
  A 0.42 0.42 0.0 0 1 41.88 63.73
  Q 40.30 63.59 39.96 61.76
  Q 39.15 57.39 36.71 52.24"
/>
<path stroke="#c9b4b1" vector-effect="non-scaling-stroke" d="
  M 50.72 64.53
  Q 50.79 64.83 50.75 65.15
  Q 50.71 65.41 50.49 65.66
  Q 47.00 69.70 45.96 73.71"
/>
<path stroke="#663f42" vector-effect="non-scaling-stroke" d="
  M 45.96 73.71
  L 35.00 81.39"
/>
<path stroke="#744a50" vector-effect="non-scaling-stroke" d="
  M 35.00 81.39
  Q 30.53 84.84 25.94 89.19
  Q 25.05 90.03 21.97 89.54"
/>
<path stroke="#7f4d50" vector-effect="non-scaling-stroke" d="
  M 31.26 45.95
  Q 28.29 44.90 25.61 46.03
  Q 25.12 46.23 24.59 46.23
  Q 22.16 46.20 20.97 48.25
  A 1.77 1.77 0.0 0 1 20.31 48.91
  C 16.14 51.34 15.11 57.15 13.45 61.31
  Q 13.27 61.77 12.78 61.77
  Q 11.97 61.77 11.33 61.48"
/>
<path stroke="#8c5f60" vector-effect="non-scaling-stroke" d="
  M 32.99 51.83
  C 29.71 52.48 24.14 56.39 22.26 59.29
  Q 18.57 64.98 18.84 71.27
  C 18.97 74.10 18.28 75.44 17.07 77.75"
/>
<path stroke="#461f20" vector-effect="non-scaling-stroke" d="
  M 17.71 24.94
  Q 17.92 25.54 16.99 25.91"
/>
<path stroke="#572a28" vector-effect="non-scaling-stroke" d="
  M 16.99 25.91
  Q 16.43 26.03 16.31 26.31
  Q 12.13 35.78 8.13 45.84
  A 5.70 5.63 -42.3 0 0 7.94 49.47
  L 11.33 61.48"
/>
<path stroke="#5f3430" vector-effect="non-scaling-stroke" d="
  M 11.33 61.48
  L 17.07 77.75"
/>
<path stroke="#653d38" vector-effect="non-scaling-stroke" d="
  M 17.07 77.75
  L 21.97 89.54"
/>
<path stroke="#461f20" vector-effect="non-scaling-stroke" d="
  M 21.97 89.54
  Q 33.88 117.42 50.42 143.16"
/>
<path stroke="#391313" vector-effect="non-scaling-stroke" d="
  M 50.42 143.16
  Q 53.48 147.98 56.65 153.15
  C 59.67 158.08 62.16 153.60 63.95 151.12"
/>
<path stroke="#250d0a" vector-effect="non-scaling-stroke" d="
  M 63.95 151.12
  Q 62.00 155.77 63.76 154.13"
/>
<path stroke="#717d7e" vector-effect="non-scaling-stroke" d="
  M 63.76 154.13
  L 62.43 156.34"
/>
<path stroke="#59504f" vector-effect="non-scaling-stroke" d="
  M 62.43 156.34
  L 58.23 156.99"
/>
<path stroke="#3d3534" vector-effect="non-scaling-stroke" d="
  M 58.23 156.99
  Q 42.51 134.85 30.05 110.82
  C 25.87 102.77 21.74 93.09 17.61 84.21"
/>
<path stroke="#a1acad" vector-effect="non-scaling-stroke" d="
  M 111.11 52.71
  Q 105.57 74.36 96.82 94.73"
/>
<path stroke="#d5f4f7" vector-effect="non-scaling-stroke" d="
  M 96.82 94.73
  Q 95.49 94.71 95.37 93.95"
/>
<path stroke="#93bbc4" vector-effect="non-scaling-stroke" d="
  M 63.38 157.62
  Q 62.31 157.75 62.43 156.34"
/>
<path stroke="#5f747a" vector-effect="non-scaling-stroke" d="
  M 112.73 51.80
  Q 111.47 52.73 111.11 52.71"
/>
<path stroke="#bdc7c8" vector-effect="non-scaling-stroke" d="
  M 111.11 52.71
  L 107.99 43.00"
/>
<path stroke="#8badb3" vector-effect="non-scaling-stroke" d="
  M 107.99 43.00
  Q 106.37 37.82 104.65 32.69
  Q 104.45 32.09 104.14 31.98
  Q 103.70 31.82 103.11 32.28"
/>
<path stroke="#474c51" vector-effect="non-scaling-stroke" d="
  M 103.11 32.28
  L 100.53 25.76"
/>
<path stroke="#79757c" vector-effect="non-scaling-stroke" d="
  M 100.53 25.76
  L 98.25 21.24"
/>
<path stroke="#80804f" vector-effect="non-scaling-stroke" d="
  M 37.28 39.79
  L 43.22 51.50"
/>
<path stroke="#80807e" vector-effect="non-scaling-stroke" d="
  M 51.45 62.23
  L 50.72 64.53"
/>
<path stroke="#493434" vector-effect="non-scaling-stroke" d="
  M 50.72 64.53
  C 48.91 64.11 48.54 62.43 47.52 61.41
  Q 43.45 57.33 40.60 52.31"
/>
<path stroke="#3c2224" vector-effect="non-scaling-stroke" d="
  M 40.60 52.31
  Q 36.84 44.77 34.69 36.75"
/>
<path stroke="#fffd9b" vector-effect="non-scaling-stroke" d="
  M 49.72 7.50
  Q 50.55 12.74 50.50 15.75
  Q 50.36 23.79 50.86 30.45"
/>
<path stroke="#ffffb3" vector-effect="non-scaling-stroke" d="
  M 50.86 30.45
  Q 45.57 37.66 39.95 36.79
  Q 39.50 36.72 39.14 37.00
  L 37.86 38.00"
/>
<path stroke="#fffd9b" vector-effect="non-scaling-stroke" d="
  M 37.86 38.00
  L 34.00 23.10"
/>
<path stroke="#ffffe2" vector-effect="non-scaling-stroke" d="
  M 34.00 23.10
  C 37.57 23.31 42.51 23.07 42.95 18.98
  C 43.26 16.13 43.77 13.43 43.79 10.53
  Q 43.79 9.99 44.30 9.83
  L 48.34 8.57
  A 0.42 0.41 -53.6 0 0 48.22 7.76
  L 42.27 7.79"
/>
<path stroke="#fffdb4" vector-effect="non-scaling-stroke" d="
  M 34.00 23.10
  L 31.29 10.68
  A 1.12 1.11 -32.8 0 1 31.49 9.77
  Q 32.40 8.52 34.51 8.64"
/>
<path stroke="#f3e491" vector-effect="non-scaling-stroke" d="
  M 42.26 7.54
  Q 42.26 7.67 42.27 7.79"
/>
<path stroke="#f3e4aa" vector-effect="non-scaling-stroke" d="
  M 42.27 7.79
  L 34.51 8.64"
/>
<path stroke="#f3e263" vector-effect="non-scaling-stroke" d="
  M 34.51 8.64
  L 32.46 8.37"
/>
<path stroke="#836e66" vector-effect="non-scaling-stroke" d="
  M 43.27 83.72
  L 43.78 97.42"
/>
<path stroke="#6c5851" vector-effect="non-scaling-stroke" d="
  M 43.78 97.42
  Q 42.94 101.67 43.72 105.49"
/>
<path stroke="#9d8845" vector-effect="non-scaling-stroke" d="
  M 43.72 105.49
  Q 41.35 107.10 41.89 109.14"
/>
<path stroke="#572f14" vector-effect="non-scaling-stroke" d="
  M 41.89 109.14
  Q 45.06 112.60 48.61 108.79"
/>
<path stroke="#674717" vector-effect="non-scaling-stroke" d="
  M 48.61 108.79
  L 51.99 108.45"
/>
<path stroke="#461912" vector-effect="non-scaling-stroke" d="
  M 51.99 108.45
  L 53.08 108.52
  Q 53.62 108.55 53.51 109.08
  Q 53.42 109.54 52.98 110.05"
/>
<path stroke="#301b1d" vector-effect="non-scaling-stroke" d="
  M 52.98 110.05
  L 50.01 110.41"
/>
<path stroke="#3a2829" vector-effect="non-scaling-stroke" d="
  M 50.01 110.41
  Q 49.42 110.73 48.32 110.79
  A 0.45 0.44 83.2 0 0 47.91 111.32
  C 49.76 120.23 55.84 126.60 63.11 133.97
  Q 63.45 134.31 63.77 133.95
  Q 63.98 133.70 64.10 133.17"
/>
<path stroke="#48212b" vector-effect="non-scaling-stroke" d="
  M 50.42 143.16
  Q 51.27 142.99 50.41 140.82
  Q 50.06 139.93 49.19 138.92
  C 46.35 135.66 46.71 133.00 45.50 129.61
  C 43.34 123.62 41.68 117.50 39.46 111.51
  Q 39.07 110.45 39.99 108.33
  A 0.65 0.64 28.2 0 0 39.74 107.52
  Q 38.48 106.74 38.36 105.20
  Q 37.53 94.57 36.81 83.94
  Q 36.75 83.10 35.00 81.39"
/>
<path stroke="#80807e" vector-effect="non-scaling-stroke" d="
  M 70.82 64.23
  Q 73.16 65.57 73.56 68.00"
/>
<path stroke="#cee6e6" vector-effect="non-scaling-stroke" d="
  M 73.56 68.00
  Q 73.53 68.59 72.46 68.82"
/>
<path stroke="#c1bfb2" vector-effect="non-scaling-stroke" d="
  M 72.46 68.82
  C 69.81 67.46 70.37 65.48 66.46 64.80"
/>
<path stroke="#bbcec8" vector-effect="non-scaling-stroke" d="
  M 66.46 64.80
  L 62.02 62.46
  Q 61.12 61.98 61.74 62.79
  L 62.52 63.80"
/>
<path stroke="#96948c" vector-effect="non-scaling-stroke" d="
  M 62.52 63.80
  L 62.27 64.18"
/>
<path stroke="#e6e3d5" vector-effect="non-scaling-stroke" d="
  M 62.27 64.18
  Q 62.38 65.26 62.24 65.41
  A 1.04 1.04 0.0 0 1 60.55 65.15
  C 58.74 61.40 53.07 65.35 51.53 67.43"
/>
<path stroke="#96948c" vector-effect="non-scaling-stroke" d="
  M 51.53 67.43
  C 47.95 71.49 46.54 77.28 44.67 83.52"
/>
<path stroke="#e6e3d5" vector-effect="non-scaling-stroke" d="
  M 44.67 83.52
  L 44.28 83.49
  Q 43.80 83.47 43.80 83.95
  Q 43.79 84.34 43.74 84.74
  Q 43.57 86.09 43.52 84.73
  Q 43.50 84.10 43.27 83.72"
/>
<path stroke="#9d8a8c" vector-effect="non-scaling-stroke" d="
  M 43.27 83.72
  Q 42.84 83.25 43.00 82.75
  Q 44.25 78.90 45.96 73.71"
/>
<path stroke="#576b6e" vector-effect="non-scaling-stroke" d="
  M 103.11 32.28
  L 106.92 43.51"
/>
<path stroke="#898484" vector-effect="non-scaling-stroke" d="
  M 106.92 43.51
  L 109.30 50.82
  Q 109.46 51.29 109.33 51.77
  Q 103.84 73.38 95.37 93.95"
/>
<path stroke="#5e7980" vector-effect="non-scaling-stroke" d="
  M 95.37 93.95
  Q 82.32 125.42 63.76 154.13"
/>
<path stroke="#260f15" vector-effect="non-scaling-stroke" d="
  M 63.95 151.12
  L 69.88 141.06
  Q 70.17 140.56 69.80 140.11
  L 64.10 133.17"
/>
<path stroke="#262220" vector-effect="non-scaling-stroke" d="
  M 64.10 133.17
  Q 59.39 127.45 54.17 122.11
  C 51.61 119.49 51.19 116.62 50.16 113.30
  Q 50.02 112.84 50.19 112.39
  Q 50.30 112.09 50.24 111.78"
/>
<path stroke="#1c1514" vector-effect="non-scaling-stroke" d="
  M 50.24 111.78
  L 50.85 111.60
  Q 51.35 111.46 51.42 111.97
  C 51.89 115.51 52.32 118.35 54.86 121.15
  Q 60.79 127.70 66.60 134.37
  C 67.84 135.79 68.37 137.85 70.85 138.32
  Q 71.39 138.42 71.69 137.95
  Q 79.30 125.95 84.71 112.78"
/>
<path stroke="#2a141b" vector-effect="non-scaling-stroke" d="
  M 84.71 112.78
  Q 89.18 105.54 91.96 98.78
  Q 99.21 81.13 105.13 60.96
  Q 106.08 57.71 106.76 54.40
  Q 106.85 53.96 107.24 53.71
  Q 108.68 52.81 107.79 50.93
  Q 106.96 49.16 106.41 47.23"
/>
<path stroke="#cee6e6" vector-effect="non-scaling-stroke" d="
  M 107.99 43.00
  Q 106.89 42.83 106.92 43.51"
/>
<path stroke="#bdc79a" vector-effect="non-scaling-stroke" d="
  M 102.11 20.72
  Q 100.73 20.62 99.76 19.61
  Q 99.39 19.23 99.03 19.62
  Q 98.42 20.26 98.25 21.24"
/>
<path stroke="#bbad81" vector-effect="non-scaling-stroke" d="
  M 98.25 21.24
  Q 97.73 21.46 97.82 21.62"
/>
<path stroke="#ead471" vector-effect="non-scaling-stroke" d="
  M 97.82 21.62
  Q 97.58 21.53 97.38 21.49
  Q 97.03 21.41 96.99 21.05
  Q 96.97 20.90 96.97 20.72"
/>
<path stroke="#d3b662" vector-effect="non-scaling-stroke" d="
  M 96.97 20.72
  Q 97.08 20.45 96.83 20.27
  Q 96.45 20.00 96.08 20.28
  L 91.26 24.02"
/>
<path stroke="#f3e47c" vector-effect="non-scaling-stroke" d="
  M 91.26 24.02
  Q 90.73 24.13 90.67 23.44"
/>
<path stroke="#898455" vector-effect="non-scaling-stroke" d="
  M 90.67 23.44
  C 92.64 21.35 94.85 19.98 96.29 17.35
  Q 97.16 15.75 98.40 14.43
  Q 98.75 14.06 98.74 13.55
  L 98.72 11.52"
/>
<path stroke="#453238" vector-effect="non-scaling-stroke" d="
  M 100.53 25.76
  L 99.97 25.53
  Q 99.37 25.27 99.57 25.90
  L 106.41 47.23"
/>
<path stroke="#5c3d47" vector-effect="non-scaling-stroke" d="
  M 106.41 47.23
  L 105.44 49.34
  A 1.14 1.12 -87.2 0 1 104.79 49.94
  Q 95.73 53.26 86.18 54.96"
/>
<path stroke="#66444e" vector-effect="non-scaling-stroke" d="
  M 86.18 54.96
  Q 85.38 55.37 84.14 55.39"
/>
<path stroke="#bbab68" vector-effect="non-scaling-stroke" d="
  M 84.14 55.39
  L 84.73 47.15"
/>
<path stroke="#8f767c" vector-effect="non-scaling-stroke" d="
  M 84.73 47.15
  Q 86.21 50.05 86.05 53.75
  Q 86.01 54.52 86.76 54.31
  L 100.23 50.58
  A 0.78 0.76 -13.1 0 0 100.79 49.70
  Q 99.40 41.67 94.63 35.10
  Q 94.36 34.71 93.96 34.45
  L 92.02 33.17
  A 2.00 2.00 0.0 0 0 88.98 34.35
  Q 87.92 38.57 87.08 34.81"
/>
<path stroke="#bbab68" vector-effect="non-scaling-stroke" d="
  M 87.08 34.81
  Q 88.34 32.10 89.79 29.73
  Q 90.40 28.73 90.00 28.20
  Q 89.57 27.64 88.44 27.15"
/>
<path stroke="#af925e" vector-effect="non-scaling-stroke" d="
  M 88.44 27.15
  Q 89.72 26.43 90.46 25.40"
/>
<path stroke="#fffdb4" vector-effect="non-scaling-stroke" d="
  M 56.66 59.15
  Q 52.19 59.68 51.45 62.23"
/>
<path stroke="#807e37" vector-effect="non-scaling-stroke" d="
  M 51.45 62.23
  L 43.22 51.50"
/>
<path stroke="#fffd86" vector-effect="non-scaling-stroke" d="
  M 43.22 51.50
  Q 46.45 50.22 49.76 50.88
  A 1.75 1.75 0.0 0 0 51.85 49.08
  L 50.86 30.45"
/>
<path stroke="#deb94e" vector-effect="non-scaling-stroke" d="
  M 58.98 7.29
  Q 60.36 7.68 61.56 7.45
  A 0.84 0.84 0.0 0 1 62.54 8.47
  C 61.73 11.81 61.00 14.72 60.98 18.21
  C 60.92 31.58 61.87 44.46 59.41 57.74
  Q 59.31 58.26 59.82 58.43
  Q 61.22 58.87 61.28 60.09"
/>
<path stroke="#f3e4aa" vector-effect="non-scaling-stroke" d="
  M 61.28 60.09
  Q 58.75 58.33 56.66 59.15"
/>
<path stroke="#f3e263" vector-effect="non-scaling-stroke" d="
  M 56.66 59.15
  C 56.29 53.20 58.41 48.43 58.30 42.84
  Q 57.95 25.44 58.71 8.04
  Q 58.73 7.52 58.22 7.52
  L 49.72 7.50"
/>
<path stroke="#f3e491" vector-effect="non-scaling-stroke" d="
  M 49.72 7.50
  L 42.99 7.35"
/>
<path stroke="#807e37" vector-effect="non-scaling-stroke" d="
  M 47.49 107.50
  Q 45.39 107.28 44.00 108.27"
/>
<path stroke="#baa23c" vector-effect="non-scaling-stroke" d="
  M 44.00 108.27
  L 41.89 109.14"
/>
<path stroke="#84620d" stroke-opacity="0.996" vector-effect="non-scaling-stroke" d="
  M 48.61 108.79
  Q 47.53 108.92 47.73 108.01"
/>
<path stroke="#4a3d08" vector-effect="non-scaling-stroke" d="
  M 47.73 108.01
  Q 47.61 107.76 47.49 107.50"
/>
<path stroke="#302e28" vector-effect="non-scaling-stroke" d="
  M 50.24 111.78
  Q 50.60 111.37 50.67 111.06
  Q 50.74 110.81 50.50 110.62
  Q 50.29 110.47 50.01 110.41"
/>
<path stroke="#776a4e" vector-effect="non-scaling-stroke" d="
  M 46.70 104.68
  Q 45.40 103.34 44.99 103.97
  Q 44.61 104.55 44.77 105.45"
/>
<path stroke="#cfcb79" vector-effect="non-scaling-stroke" d="
  M 44.77 105.45
  L 43.72 105.49"
/>
<path stroke="#b5b099" vector-effect="non-scaling-stroke" d="
  M 45.47 96.36
  Q 45.21 97.74 44.43 98.42
  Q 44.07 98.73 43.78 97.42"
/>
<path stroke="#3c1f11" vector-effect="non-scaling-stroke" d="
  M 77.09 108.00
  Q 73.91 108.60 69.75 109.27
  Q 61.42 110.61 52.98 110.05"
/>
<path stroke="#724b0b" vector-effect="non-scaling-stroke" d="
  M 51.99 108.45
  Q 51.75 107.99 53.27 107.87"
/>
<path stroke="#8fa69d" vector-effect="non-scaling-stroke" d="
  M 72.46 68.82
  Q 73.28 69.96 74.52 69.31"
/>
<path stroke="#c1bfb2" vector-effect="non-scaling-stroke" d="
  M 76.72 71.26
  Q 75.68 71.06 75.22 72.00"
/>
<path stroke="#8fa69d" vector-effect="non-scaling-stroke" d="
  M 75.22 72.00
  L 73.01 72.58"
/>
<path stroke="#be8b34" vector-effect="non-scaling-stroke" d="
  M 68.59 7.60
  C 68.56 11.11 66.50 13.42 66.40 16.83
  Q 65.94 31.91 66.11 47.00
  Q 66.15 50.39 63.64 60.87"
/>
<path stroke="#ead49f" vector-effect="non-scaling-stroke" d="
  M 63.64 60.87
  L 61.28 60.09"
/>
<path stroke="#7b531f" vector-effect="non-scaling-stroke" d="
  M 71.89 7.52
  C 73.55 16.86 74.96 23.11 74.38 34.55
  A 0.79 0.78 -78.4 0 0 74.89 35.33
  Q 76.58 35.95 79.34 34.29"
/>
<path stroke="#be8b34" vector-effect="non-scaling-stroke" d="
  M 79.34 34.29
  L 76.69 36.88
  Q 76.34 37.23 76.33 37.72
  L 76.12 55.30"
/>
<path stroke="#9c6a46" vector-effect="non-scaling-stroke" d="
  M 76.12 55.30
  Q 76.24 56.40 74.67 58.42"
/>
<path stroke="#7e4c2f" vector-effect="non-scaling-stroke" d="
  M 74.67 58.42
  Q 74.99 58.59 74.46 59.23"
/>
<path stroke="#533613" vector-effect="non-scaling-stroke" d="
  M 74.46 59.23
  L 70.82 64.23"
/>
<path stroke="#d3b690" vector-effect="non-scaling-stroke" d="
  M 70.82 64.23
  L 63.64 60.87"
/>
<path stroke="#7c7765" vector-effect="non-scaling-stroke" d="
  M 62.27 64.18
  Q 63.09 66.48 62.39 68.26
  Q 62.17 68.84 61.56 68.77
  Q 59.65 68.54 58.06 69.58
  A 0.99 0.98 44.3 0 1 56.99 69.59
  Q 54.28 67.85 51.53 67.43"
/>
<path stroke="#575443" vector-effect="non-scaling-stroke" d="
  M 66.37 65.21
  Q 67.47 66.58 69.27 66.79
  A 0.78 0.77 85.4 0 1 69.92 67.35
  C 70.58 69.72 70.30 71.61 73.01 72.58"
/>
<path stroke="#647a76" vector-effect="non-scaling-stroke" d="
  M 73.01 72.58
  Q 73.01 72.87 72.20 73.44"
/>
<path stroke="#96948c" vector-effect="non-scaling-stroke" d="
  M 72.20 73.44
  Q 72.08 73.66 71.31 73.90"
/>
<path stroke="#647a76" vector-effect="non-scaling-stroke" d="
  M 71.31 73.90
  L 62.54 72.97"
/>
<path stroke="#96948c" vector-effect="non-scaling-stroke" d="
  M 62.54 72.97
  Q 62.34 71.64 61.31 71.49
  Q 57.63 70.99 53.75 71.31"
/>
<path stroke="#1f1914" vector-effect="non-scaling-stroke" d="
  M 53.75 71.31
  L 53.66 69.99
  Q 53.63 69.42 53.17 69.08
  L 52.73 68.77
  Q 52.15 68.35 51.92 69.02
  C 51.57 70.03 51.63 71.13 51.08 71.99
  Q 48.27 76.37 51.31 75.07"
/>
<path stroke="#656150" vector-effect="non-scaling-stroke" d="
  M 51.31 75.07
  Q 51.37 75.15 51.43 75.23"
/>
<path stroke="#454335" vector-effect="non-scaling-stroke" d="
  M 51.43 75.23
  C 49.27 79.90 44.87 80.44 46.41 86.84
  A 0.19 0.18 53.1 0 0 46.75 86.89
  Q 48.96 83.05 51.03 79.04
  C 51.32 78.48 51.67 78.31 52.27 78.22"
/>
<path stroke="#656150" vector-effect="non-scaling-stroke" d="
  M 52.27 78.22
  Q 53.29 78.60 53.85 79.86"
/>
<path stroke="#333128" vector-effect="non-scaling-stroke" d="
  M 53.85 79.86
  Q 53.82 80.72 52.97 81.44"
/>
<path stroke="#656150" vector-effect="non-scaling-stroke" d="
  M 52.97 81.44
  Q 52.62 81.69 52.49 81.95"
/>
<path stroke="#454335" vector-effect="non-scaling-stroke" d="
  M 52.49 81.95
  Q 49.88 84.98 47.86 88.34
  C 46.62 90.42 46.92 92.27 47.02 94.57
  A 0.12 0.12 0.0 0 0 47.24 94.62
  L 51.12 86.99
  Q 51.47 86.30 52.14 86.69
  L 53.40 87.44
  A 0.63 0.62 -54.2 0 1 53.55 88.39
  L 51.33 90.89"
/>
<path stroke="#575443" vector-effect="non-scaling-stroke" d="
  M 51.33 90.89
  L 47.62 96.45
  Q 47.34 96.88 47.40 97.39
  L 48.04 102.58
  A 0.43 0.43 0.0 0 0 48.89 102.58
  L 49.13 100.79
  A 0.63 0.62 71.2 0 1 49.29 100.46
  Q 50.72 98.92 50.72 96.73
  Q 50.72 96.14 51.29 96.00
  Q 54.42 95.28 57.54 96.00
  Q 58.08 96.12 58.42 95.69
  Q 59.33 94.56 59.72 93.03"
/>
<path stroke="#454335" vector-effect="non-scaling-stroke" d="
  M 59.72 93.03
  Q 61.82 91.96 64.76 92.03
  Q 65.83 92.05 65.74 90.74
  A 0.58 0.58 0.0 0 0 64.91 90.26
  Q 62.72 91.29 60.68 90.10
  A 1.33 1.33 0.0 0 1 60.16 88.38
  L 61.89 84.74
  Q 62.14 84.22 62.67 83.99
  Q 63.75 83.52 65.21 83.73"
/>
<path stroke="#575443" vector-effect="non-scaling-stroke" d="
  M 65.21 83.73
  Q 67.01 84.46 68.24 84.05
  A 1.56 1.56 0.0 0 1 70.28 85.77
  Q 70.01 87.52 71.19 88.55"
/>
<path stroke="#695c58" vector-effect="non-scaling-stroke" d="
  M 71.19 88.55
  Q 71.16 89.49 70.49 90.20"
/>
<path stroke="#7c7765" vector-effect="non-scaling-stroke" d="
  M 70.49 90.20
  Q 69.09 90.50 69.26 91.87
  A 0.65 0.65 0.0 0 0 69.87 92.45
  L 70.69 92.49"
/>
<path stroke="#694a21" vector-effect="non-scaling-stroke" d="
  M 70.69 92.49
  C 71.60 96.17 62.90 97.11 60.66 98.10
  Q 60.19 98.31 59.70 98.17
  Q 57.75 97.63 56.60 99.33
  Q 56.32 99.75 55.83 99.86
  L 52.20 100.69"
/>
<path stroke="#89793b" vector-effect="non-scaling-stroke" d="
  M 52.20 100.69
  Q 50.95 101.00 50.49 102.27"
/>
<path stroke="#96948c" vector-effect="non-scaling-stroke" d="
  M 50.49 102.27
  L 47.70 104.98"
/>
<path stroke="#969245" vector-effect="non-scaling-stroke" d="
  M 47.70 104.98
  L 46.75 105.24"
/>
<path stroke="#3e311a" vector-effect="non-scaling-stroke" d="
  M 46.75 105.24
  Q 46.78 104.70 46.70 104.68"
/>
<path stroke="#656150" vector-effect="non-scaling-stroke" d="
  M 46.70 104.68
  Q 47.57 100.18 45.47 96.36"
/>
<path stroke="#7c7765" vector-effect="non-scaling-stroke" d="
  M 45.47 96.36
  L 44.67 83.52"
/>
<path stroke="#414035" vector-effect="non-scaling-stroke" d="
  M 76.75 71.00
  L 74.52 69.31"
/>
<path stroke="#4e6668" vector-effect="non-scaling-stroke" d="
  M 74.52 69.31
  L 73.56 68.00"
/>
<path stroke="#7d8e7f" vector-effect="non-scaling-stroke" d="
  M 66.46 64.80
  Q 66.59 65.38 66.37 65.21"
/>
<path stroke="#526359" vector-effect="non-scaling-stroke" d="
  M 66.37 65.21
  Q 64.90 66.48 63.76 64.54
  A 1.30 1.29 -6.2 0 0 63.04 63.97
  L 62.52 63.80"
/>
<path stroke="#342023" vector-effect="non-scaling-stroke" d="
  M 84.71 112.78
  Q 80.52 111.08 77.09 108.00"
/>
<path stroke="#491e18" vector-effect="non-scaling-stroke" d="
  M 77.09 108.00
  L 81.41 108.50
  Q 81.97 108.57 82.26 108.09
  Q 83.20 106.50 82.19 106.80"
/>
<path stroke="#744628" vector-effect="non-scaling-stroke" d="
  M 82.19 106.80
  L 83.05 105.76"
/>
<path stroke="#8b6437" vector-effect="non-scaling-stroke" d="
  M 83.05 105.76
  Q 83.78 105.12 83.44 104.12
  A 1.24 1.24 0.0 0 0 82.83 103.41
  C 78.70 101.28 76.16 97.69 73.32 94.16"
/>
<path stroke="#744628" vector-effect="non-scaling-stroke" d="
  M 73.32 94.16
  L 72.72 93.11"
/>
<path stroke="#4b2631" vector-effect="non-scaling-stroke" d="
  M 72.72 93.11
  L 73.01 92.14
  Q 73.23 91.42 73.68 92.03
  Q 77.50 97.17 82.41 101.31
  A 1.73 1.73 0.0 0 0 84.25 101.56
  Q 87.13 100.21 87.05 97.08
  Q 87.04 96.66 87.45 96.58
  Q 87.84 96.49 88.01 96.01
  C 90.45 88.74 92.14 81.49 94.41 75.02
  C 96.82 68.15 99.20 61.82 100.57 54.56
  A 0.90 0.89 -0.9 0 0 99.49 53.52
  L 86.52 56.47
  Q 86.03 56.58 85.95 56.08
  Q 85.88 55.65 86.18 54.96"
/>
<path stroke="#be8b34" vector-effect="non-scaling-stroke" d="
  M 96.97 20.72
  Q 95.81 22.99 93.57 23.47
  Q 93.08 23.57 92.84 24.01
  Q 92.18 25.22 92.96 25.31"
/>
<path stroke="#8f6444" vector-effect="non-scaling-stroke" d="
  M 92.96 25.31
  Q 92.02 26.21 90.46 25.40"
/>
<path stroke="#c69b3f" vector-effect="non-scaling-stroke" d="
  M 90.46 25.40
  Q 91.12 24.90 91.26 24.02"
/>
<path stroke="#ffffcd" vector-effect="non-scaling-stroke" d="
  M 99.46 8.35
  Q 99.26 8.03 99.22 9.02"
/>
<path stroke="#cabd86" vector-effect="non-scaling-stroke" d="
  M 99.22 9.02
  C 97.03 6.20 98.11 3.51 94.04 2.13"
/>
<path stroke="#f3e4aa" vector-effect="non-scaling-stroke" d="
  M 94.04 2.13
  L 93.33 1.95
  Q 92.77 1.81 93.02 1.30
  L 93.43 0.48"
/>
<path stroke="#cabd57" vector-effect="non-scaling-stroke" d="
  M 99.22 9.02
  Q 99.32 10.26 98.72 11.52"
/>
<path stroke="#53410e" vector-effect="non-scaling-stroke" d="
  M 98.72 11.52
  L 97.40 11.17"
/>
<path stroke="#cabb3f" vector-effect="non-scaling-stroke" d="
  M 97.40 11.17
  Q 97.89 10.13 96.74 9.70"
/>
<path stroke="#bda235" vector-effect="non-scaling-stroke" d="
  M 92.45 6.03
  Q 90.11 5.85 90.25 8.47"
/>
<path stroke="#a68253" vector-effect="non-scaling-stroke" d="
  M 97.82 21.62
  L 92.96 25.31"
/>
<path stroke="#f3e263" vector-effect="non-scaling-stroke" d="
  M 88.44 27.15
  L 86.80 31.07"
/>
<path stroke="#7c6933" vector-effect="non-scaling-stroke" d="
  M 90.67 23.44
  L 89.14 25.14"
/>
<path stroke="#3e2735" vector-effect="non-scaling-stroke" d="
  M 89.14 25.14
  Q 88.08 25.06 88.18 24.32"
/>
<path stroke="#745928" vector-effect="non-scaling-stroke" d="
  M 88.18 24.32
  Q 88.70 23.72 88.83 23.21"
/>
<path stroke="#3e2735" vector-effect="non-scaling-stroke" d="
  M 88.83 23.21
  Q 89.40 22.94 89.58 22.29"
/>
<path stroke="#745928" vector-effect="non-scaling-stroke" d="
  M 89.58 22.29
  L 91.59 20.60"
/>
<path stroke="#7e4c2f" vector-effect="non-scaling-stroke" d="
  M 72.72 93.11
  Q 72.15 91.73 71.30 91.75"
/>
<path stroke="#917973" vector-effect="non-scaling-stroke" d="
  M 71.30 91.75
  L 71.18 90.75"
/>
<path stroke="#7e5e66" vector-effect="non-scaling-stroke" d="
  M 71.18 90.75
  L 74.50 86.40
  Q 74.80 86.01 75.26 85.86
  Q 76.74 85.38 76.89 83.97
  C 77.21 80.88 77.89 78.09 77.90 74.96"
/>
<path stroke="#aa969a" vector-effect="non-scaling-stroke" d="
  M 77.90 74.96
  Q 78.42 72.68 76.72 71.26"
/>
<path stroke="#6c5651" vector-effect="non-scaling-stroke" d="
  M 76.72 71.26
  Q 76.73 71.13 76.75 71.00"
/>
<path stroke="#2b161c" vector-effect="non-scaling-stroke" d="
  M 76.75 71.00
  L 77.64 71.00
  Q 78.23 70.99 77.87 70.53
  L 73.01 64.28
  A 0.80 0.80 0.0 0 1 72.99 63.32
  L 75.71 59.61
  Q 76.32 58.78 75.32 59.02
  L 74.46 59.23"
/>
<path stroke="#d3c681" vector-effect="non-scaling-stroke" d="
  M 87.08 34.81
  Q 84.72 41.08 84.73 47.15"
/>
<path stroke="#aa9453" vector-effect="non-scaling-stroke" d="
  M 84.14 55.39
  Q 83.55 56.27 83.05 56.47
  Q 82.34 56.74 82.33 55.98
  L 82.26 52.48"
/>
<path stroke="#f3e263" vector-effect="non-scaling-stroke" d="
  M 82.26 52.48
  Q 83.45 48.85 82.96 44.37"
/>
<path stroke="#a89b43" vector-effect="non-scaling-stroke" d="
  M 46.75 105.24
  Q 45.94 105.69 44.77 105.45"
/>
<path stroke="#fffdb4" vector-effect="non-scaling-stroke" d="
  M 49.04 105.83
  Q 47.75 106.49 47.70 104.98"
/>
<path stroke="#3a2405" vector-effect="non-scaling-stroke" d="
  M 47.73 108.01
  L 44.34 109.13
  Q 43.99 109.24 44.00 108.88
  L 44.00 108.27"
/>
<path stroke="#936325" vector-effect="non-scaling-stroke" d="
  M 60.23 106.99
  L 53.27 107.87"
/>
<path stroke="#b5922a" vector-effect="non-scaling-stroke" d="
  M 53.27 107.87
  L 47.49 107.50"
/>
<path stroke="#ead258" vector-effect="non-scaling-stroke" d="
  M 47.49 107.50
  Q 48.46 107.04 49.04 105.83"
/>
<path stroke="#ead49f" vector-effect="non-scaling-stroke" d="
  M 49.04 105.83
  L 55.72 104.82
  Q 56.21 104.74 56.55 104.38
  Q 57.10 103.78 57.01 103.08"
/>
<path stroke="#deb94e" vector-effect="non-scaling-stroke" d="
  M 57.01 103.08
  Q 58.14 100.11 56.44 100.35"
/>
<path stroke="#be8b34" vector-effect="non-scaling-stroke" d="
  M 73.32 94.16
  Q 72.93 94.47 72.79 94.79
  Q 72.53 95.39 72.74 95.68
  Q 76.91 101.40 83.05 105.76"
/>
<path stroke="#7c4416" vector-effect="non-scaling-stroke" d="
  M 82.19 106.80
  C 75.40 104.82 67.22 106.52 60.23 106.99"
/>
<path stroke="#be8b34" vector-effect="non-scaling-stroke" d="
  M 60.23 106.99
  Q 63.96 106.64 66.98 104.67
  Q 67.39 104.40 67.42 103.91
  C 67.72 98.84 59.80 98.94 56.44 100.35"
/>
<path stroke="#c69b3f" vector-effect="non-scaling-stroke" d="
  M 56.44 100.35
  L 52.20 100.69"
/>
<path stroke="#d3c8c8" vector-effect="non-scaling-stroke" d="
  M 77.90 74.96
  Q 76.86 75.31 76.17 75.22"
/>
<path stroke="#9d8a8c" vector-effect="non-scaling-stroke" d="
  M 76.17 75.22
  Q 76.11 74.46 75.17 73.49"
/>
<path stroke="#cee6e6" vector-effect="non-scaling-stroke" d="
  M 75.17 73.49
  Q 75.63 72.40 75.22 72.00"
/>
<path stroke="#6b7177" vector-effect="non-scaling-stroke" d="
  M 75.17 73.49
  Q 73.83 72.78 73.66 73.78"
/>
<path stroke="#cee6e6" vector-effect="non-scaling-stroke" d="
  M 73.66 73.78
  Q 73.04 73.47 72.20 73.44"
/>
<path stroke="#9b8239" vector-effect="non-scaling-stroke" d="
  M 80.50 8.39
  Q 80.17 10.19 80.65 11.96"
/>
<path stroke="#93722e" vector-effect="non-scaling-stroke" d="
  M 80.65 11.96
  L 79.34 34.29"
/>
<path stroke="#744a50" vector-effect="non-scaling-stroke" d="
  M 79.39 56.80
  Q 76.92 59.08 74.67 58.42"
/>
<path stroke="#a07751" vector-effect="non-scaling-stroke" d="
  M 83.11 34.90
  L 79.22 49.68"
/>
<path stroke="#b48955" vector-effect="non-scaling-stroke" d="
  M 79.22 49.68
  L 76.12 55.30"
/>
<path stroke="#656150" vector-effect="non-scaling-stroke" d="
  M 62.44 75.73
  L 62.48 77.22"
/>
<path stroke="#6c6a5c" vector-effect="non-scaling-stroke" d="
  M 62.48 77.22
  Q 60.49 77.30 58.82 78.49
  Q 58.39 78.79 57.87 78.73
  Q 55.49 78.48 53.85 79.86"
/>
<path stroke="#7e7c69" vector-effect="non-scaling-stroke" d="
  M 52.27 78.22
  L 51.43 75.23"
/>
<path stroke="#c1bfb2" vector-effect="non-scaling-stroke" d="
  M 57.71 89.49
  Q 57.03 92.49 59.44 92.79"
/>
<path stroke="#cee6e6" vector-effect="non-scaling-stroke" d="
  M 71.31 73.90
  Q 71.60 75.49 72.90 77.36
  Q 73.16 77.74 73.61 77.79
  Q 74.22 77.86 74.29 77.25"
/>
<path stroke="#6b7177" vector-effect="non-scaling-stroke" d="
  M 74.29 77.25
  Q 74.66 77.53 74.47 78.43"
/>
<path stroke="#b4c9bf" vector-effect="non-scaling-stroke" d="
  M 74.47 78.43
  L 72.11 79.75"
/>
<path stroke="#647a76" vector-effect="non-scaling-stroke" d="
  M 72.11 79.75
  Q 70.38 78.63 71.01 77.25
  A 1.18 1.18 0.0 0 0 70.02 75.59
  L 63.00 75.06"
/>
<path stroke="#cee6e6" vector-effect="non-scaling-stroke" d="
  M 62.54 72.97
  L 63.00 75.06"
/>
<path stroke="#96948c" vector-effect="non-scaling-stroke" d="
  M 63.00 75.06
  Q 62.80 75.07 62.44 75.73"
/>
<path stroke="#cfcdc0" vector-effect="non-scaling-stroke" d="
  M 62.44 75.73
  L 62.28 76.14
  Q 61.93 76.97 61.47 76.20
  L 60.34 74.32
  A 0.82 0.80 -11.5 0 0 59.75 73.94
  Q 56.18 73.51 52.71 74.00
  Q 52.44 74.03 52.33 73.93
  Q 52.20 73.79 52.20 73.49"
/>
<path stroke="#898484" vector-effect="non-scaling-stroke" d="
  M 53.75 71.31
  Q 52.68 72.01 52.20 73.49"
/>
<path stroke="#585248" vector-effect="non-scaling-stroke" d="
  M 52.20 73.49
  L 51.31 75.07"
/>
<path stroke="#b9996a" vector-effect="non-scaling-stroke" d="
  M 71.30 91.75
  L 70.69 92.49"
/>
<path stroke="#706f5b" vector-effect="non-scaling-stroke" d="
  M 59.72 93.03
  Q 59.54 92.97 59.44 92.79"
/>
<path stroke="#afafa4" vector-effect="non-scaling-stroke" d="
  M 59.44 92.79
  Q 60.68 89.97 57.71 89.49"
/>
<path stroke="#706f5b" vector-effect="non-scaling-stroke" d="
  M 57.71 89.49
  Q 54.31 89.35 51.33 90.89"
/>
<path stroke="#b9aba1" vector-effect="non-scaling-stroke" d="
  M 71.18 90.75
  Q 70.88 90.14 70.49 90.20"
/>
<path stroke="#94887f" vector-effect="non-scaling-stroke" d="
  M 71.19 88.55
  Q 72.68 87.65 73.00 86.35
  Q 73.13 85.81 72.58 85.79
  Q 70.28 85.69 70.89 83.96"
/>
<path stroke="#c7c2c3" vector-effect="non-scaling-stroke" d="
  M 70.89 83.96
  Q 74.11 85.75 73.78 84.01"
/>
<path stroke="#f3e4aa" vector-effect="non-scaling-stroke" d="
  M 57.01 103.08
  Q 57.14 101.84 56.79 101.34
  A 0.70 0.70 0.0 0 0 55.87 101.12
  Q 53.14 102.58 50.49 102.27"
/>
<path stroke="#6b8382" vector-effect="non-scaling-stroke" d="
  M 60.92 81.49
  Q 57.19 80.29 53.76 81.09"
/>
<path stroke="#6c6a5c" vector-effect="non-scaling-stroke" d="
  M 53.76 81.09
  Q 53.51 81.63 52.97 81.44"
/>
<path stroke="#b5baae" vector-effect="non-scaling-stroke" d="
  M 71.53 82.49
  L 70.89 83.96"
/>
<path stroke="#706f5b" vector-effect="non-scaling-stroke" d="
  M 65.21 83.73
  Q 62.69 83.44 62.73 82.33"
/>
<path stroke="#7e7c69" vector-effect="non-scaling-stroke" d="
  M 59.79 83.55
  Q 58.23 88.14 53.04 85.61
  Q 52.56 85.38 52.55 84.85
  L 52.49 81.95"
/>
<path stroke="#bda235" vector-effect="non-scaling-stroke" d="
  M 94.04 2.13
  Q 91.65 2.53 89.62 4.61"
/>
<path stroke="#89823d" vector-effect="non-scaling-stroke" d="
  M 97.40 11.17
  Q 96.63 17.67 91.59 20.60"
/>
<path stroke="#ead258" vector-effect="non-scaling-stroke" d="
  M 91.59 20.60
  Q 91.18 20.42 91.18 20.00"
/>
<path stroke="#a89b43" vector-effect="non-scaling-stroke" d="
  M 91.18 20.00
  Q 91.75 18.52 90.99 18.68"
/>
<path stroke="#f4f8b0" vector-effect="non-scaling-stroke" d="
  M 90.99 18.68
  Q 92.43 17.73 93.32 16.15"
/>
<path stroke="#a07751" vector-effect="non-scaling-stroke" d="
  M 87.94 18.60
  C 87.02 19.81 85.79 21.83 86.57 23.32
  Q 87.15 24.40 88.18 24.32"
/>
<path stroke="#a8875c" vector-effect="non-scaling-stroke" d="
  M 89.14 25.14
  Q 85.92 28.30 86.80 31.07"
/>
<path stroke="#b5a066" vector-effect="non-scaling-stroke" d="
  M 86.80 31.07
  Q 84.13 37.49 82.96 44.37"
/>
<path stroke="#a8875c" vector-effect="non-scaling-stroke" d="
  M 82.96 44.37
  L 80.54 50.62"
/>
<path stroke="#7e5663" vector-effect="non-scaling-stroke" d="
  M 80.54 50.62
  Q 79.76 50.41 79.22 49.68"
/>
<path stroke="#93722e" vector-effect="non-scaling-stroke" d="
  M 89.19 19.75
  Q 90.20 20.67 91.18 20.00"
/>
<path stroke="#a07751" vector-effect="non-scaling-stroke" d="
  M 89.58 22.29
  L 88.58 21.16
  Q 88.08 20.59 87.79 21.29
  L 87.48 22.03
  Q 87.19 22.72 87.91 22.93
  L 88.83 23.21"
/>
<path stroke="#9e7b49" vector-effect="non-scaling-stroke" d="
  M 82.26 52.48
  Q 81.33 55.07 80.25 60.74
  Q 80.05 61.81 78.94 61.57
  Q 78.47 61.46 78.56 60.99
  L 79.39 56.80"
/>
<path stroke="#bc9960" vector-effect="non-scaling-stroke" d="
  M 79.39 56.80
  Q 79.13 53.03 80.54 50.62"
/>
<path stroke="#705359" vector-effect="non-scaling-stroke" d="
  M 76.17 75.22
  Q 76.49 80.20 74.96 84.74
  Q 74.78 85.27 74.43 84.83
  L 73.78 84.01"
/>
<path stroke="#918588" vector-effect="non-scaling-stroke" d="
  M 73.78 84.01
  Q 73.69 82.55 72.74 81.92"
/>
<path stroke="#331f1d" vector-effect="non-scaling-stroke" d="
  M 72.74 81.92
  Q 72.81 81.48 72.67 80.96"
/>
<path stroke="#836e66" vector-effect="non-scaling-stroke" d="
  M 72.67 80.96
  Q 74.51 79.98 74.47 78.43"
/>
<path stroke="#9d8a8c" vector-effect="non-scaling-stroke" d="
  M 74.29 77.25
  Q 74.40 75.41 73.66 73.78"
/>
<path stroke="#e7dfa6" vector-effect="non-scaling-stroke" d="
  M 84.95 14.08
  L 84.75 15.71"
/>
<path stroke="#c2b26f" vector-effect="non-scaling-stroke" d="
  M 84.75 15.71
  L 84.58 20.26"
/>
<path stroke="#a8875c" vector-effect="non-scaling-stroke" d="
  M 84.58 20.26
  L 83.11 34.90"
/>
<path stroke="#deb94e" vector-effect="non-scaling-stroke" d="
  M 83.11 34.90
  Q 82.40 36.91 81.54 36.80
  Q 80.94 36.73 80.99 36.12
  L 82.61 18.05
  Q 82.65 17.54 82.32 17.14
  Q 80.66 15.15 80.65 11.96"
/>
<path stroke="#7c7765" vector-effect="non-scaling-stroke" d="
  M 72.11 79.75
  L 71.88 80.25
  Q 71.63 80.78 72.18 80.98
  Q 72.40 81.06 72.67 80.96"
/>
<path stroke="#8a8e87" vector-effect="non-scaling-stroke" d="
  M 72.74 81.92
  L 71.53 82.49"
/>
<path stroke="#575443" vector-effect="non-scaling-stroke" d="
  M 71.53 82.49
  Q 67.75 82.76 64.23 81.81
  Q 63.38 81.58 62.73 82.33"
/>
<path stroke="#454335" vector-effect="non-scaling-stroke" d="
  M 62.73 82.33
  Q 62.18 82.15 61.50 82.31"
/>
<path stroke="#647a76" vector-effect="non-scaling-stroke" d="
  M 61.50 82.31
  L 60.92 81.49"
/>
<path stroke="#333128" vector-effect="non-scaling-stroke" d="
  M 60.92 81.49
  C 61.31 80.16 63.22 78.60 62.48 77.22"
/>
<path stroke="#7d958f" vector-effect="non-scaling-stroke" d="
  M 61.50 82.31
  Q 61.40 83.55 59.79 83.55"
/>
<path stroke="#9db3aa" vector-effect="non-scaling-stroke" d="
  M 59.79 83.55
  Q 57.36 81.35 54.32 81.89
  Q 53.83 81.97 53.76 81.48
  Q 53.74 81.32 53.76 81.09"
/>
<path stroke="#9c9785" vector-effect="non-scaling-stroke" d="
  M 90.99 18.68
  L 89.19 19.75"
/>
<path stroke="#decf9b" vector-effect="non-scaling-stroke" d="
  M 89.19 19.75
  L 88.58 19.75
  Q 88.04 19.75 88.00 19.21
  L 87.94 18.60"
/>
<path stroke="#a99ca8" vector-effect="non-scaling-stroke" d="
  M 87.94 18.60
  L 90.12 17.47
  Q 91.04 16.99 90.01 16.86
  L 85.49 16.29"
/>
<path stroke="#c3c7bb" vector-effect="non-scaling-stroke" d="
  M 85.49 16.29
  Q 85.21 16.38 84.75 15.71"
/>
<path stroke="#846f71" vector-effect="non-scaling-stroke" d="
  M 85.49 16.29
  L 84.58 20.26"
/>
<path stroke="#e4ebe9" stroke-opacity="0.914" vector-effect="non-scaling-stroke" d="
  M 7.11 97.76
  Q 6.77 96.69 5.82 96.73
  Q 5.33 96.75 5.26 97.23
  L 5.17 97.76"
/>
<path stroke="#c6d3d2" stroke-opacity="0.753" vector-effect="non-scaling-stroke" d="
  M 31.89 129.96
  Q 32.16 130.62 30.59 129.92"
/>
<path stroke="#d8d8d5" stroke-opacity="0.624" vector-effect="non-scaling-stroke" d="
  M 30.59 129.92
  L 19.51 110.36
  Q 19.17 109.76 18.83 110.36
  L 14.62 117.82"
/>
<path stroke="#f4f4f2" stroke-opacity="0.957" vector-effect="non-scaling-stroke" d="
  M 12.85 92.62
  C 11.98 93.66 12.02 95.09 12.76 96.33
  Q 15.55 101.03 12.60 105.62
  Q 12.27 106.15 11.94 105.62
  L 7.11 97.76"
/>
<path stroke="#d9edec" stroke-opacity="0.961" vector-effect="non-scaling-stroke" d="
  M 107.29 100.13
  Q 104.69 101.04 103.72 104.34
  A 1.35 1.34 -34.2 0 1 101.09 103.84
  Q 101.18 102.86 100.60 101.38
  Q 100.43 100.94 100.55 100.47
  L 101.80 95.54
  Q 101.90 95.12 101.50 95.29
  Q 101.01 95.49 100.68 95.45"
/>
<path stroke="#c6d0cf" stroke-opacity="0.624" vector-effect="non-scaling-stroke" d="
  M 100.59 115.37
  L 97.19 108.46
  Q 96.89 107.86 96.58 108.45
  L 85.02 130.27"
/>
<path stroke="#b6cccc" stroke-opacity="0.749" vector-effect="non-scaling-stroke" d="
  M 85.02 130.27
  L 84.44 129.69"
/>
<path stroke="#302e28" vector-effect="non-scaling-stroke" d="
  M 73.34 124.43
  A 2.49 1.68 78.4 0 1 71.68 122.80
  Q 70.73 120.07 68.02 119.24
  Q 67.58 119.10 67.29 118.73
  Q 65.61 116.53 63.05 117.49
  Q 62.60 117.66 62.48 118.13
  C 60.82 124.93 68.53 126.85 73.37 126.57
  A 0.96 0.96 0.0 0 0 74.16 125.16
  Q 73.78 124.47 73.34 124.43"
/>
</g>
<path fill="#fffffb" d="
  M 17.90 0.56
  Q 18.88 2.06 16.66 2.91
  Q 13.78 4.01 13.99 7.24
  Q 14.03 7.75 13.61 8.06
  Q 13.01 8.50 12.18 7.97
  Q 11.05 1.25 17.90 0.56
  Z"
/>
<path fill="#fffffb" d="
  M 99.46 8.35
  Q 99.26 8.03 99.22 9.02
  C 97.03 6.20 98.11 3.51 94.04 2.13
  L 93.33 1.95
  Q 92.77 1.81 93.02 1.30
  L 93.43 0.48
  Q 99.64 0.73 99.46 8.35
  Z"
/>
<path fill="#e6c959" d="
  M 17.90 0.56
  Q 22.72 1.68 23.02 4.95
  Q 20.88 3.09 18.78 3.02
  Q 18.25 3.00 18.25 3.53
  L 18.25 4.02
  C 14.48 4.90 15.41 11.62 16.55 13.93
  Q 16.82 14.46 17.76 14.21
  Q 17.04 14.81 16.86 15.85
  Q 14.48 13.31 14.04 9.40
  Q 13.97 8.77 13.68 8.77
  Q 13.36 8.77 13.05 9.75
  Q 12.39 9.43 11.73 9.46
  Q 12.51 8.74 12.18 7.97
  Q 13.01 8.50 13.61 8.06
  Q 14.03 7.75 13.99 7.24
  Q 13.78 4.01 16.66 2.91
  Q 18.88 2.06 17.90 0.56
  Z"
/>
<path fill="#e6c959" d="
  M 93.43 0.48
  L 93.02 1.30
  Q 92.77 1.81 93.33 1.95
  L 94.04 2.13
  Q 91.65 2.53 89.62 4.61
  Q 89.24 1.92 93.43 0.48
  Z"
/>
<path fill="#947a10" fill-opacity="0.996" d="
  M 94.04 2.13
  C 98.11 3.51 97.03 6.20 99.22 9.02
  Q 99.32 10.26 98.72 11.52
  L 97.40 11.17
  Q 97.89 10.13 96.74 9.70
  Q 96.64 7.12 95.29 4.58
  A 1.52 1.52 0.0 0 0 92.92 4.17
  Q 92.00 5.01 92.45 6.03
  Q 90.11 5.85 90.25 8.47
  Q 88.73 7.78 89.62 4.61
  Q 91.65 2.53 94.04 2.13
  Z"
/>
<path fill="#74490a" fill-opacity="0.996" d="
  M 23.02 4.95
  Q 24.30 8.18 22.81 8.96
  L 22.45 7.12
  A 0.94 0.92 7.0 0 0 21.92 6.45
  Q 21.02 6.05 19.76 6.28
  Q 19.93 4.75 18.25 4.02
  L 18.25 3.53
  Q 18.25 3.00 18.78 3.02
  Q 20.88 3.09 23.02 4.95
  Z"
/>
<path fill="#e6c959" d="
  M 92.45 6.03
  C 93.88 7.68 91.81 10.10 90.25 8.47
  Q 90.11 5.85 92.45 6.03
  Z"
/>
<path fill="#e6c959" d="
  M 19.76 6.28
  Q 21.02 6.05 21.92 6.45
  A 0.94 0.92 7.0 0 1 22.45 7.12
  L 22.81 8.96
  C 20.96 10.52 18.67 8.05 19.76 6.28
  Z"
/>
<path fill="#e6c959" d="
  M 58.98 7.29
  Q 60.36 7.68 61.56 7.45
  A 0.84 0.84 0.0 0 1 62.54 8.47
  C 61.73 11.81 61.00 14.72 60.98 18.21
  C 60.92 31.58 61.87 44.46 59.41 57.74
  Q 59.31 58.26 59.82 58.43
  Q 61.22 58.87 61.28 60.09
  Q 58.75 58.33 56.66 59.15
  C 56.29 53.20 58.41 48.43 58.30 42.84
  Q 57.95 25.44 58.71 8.04
  Q 58.73 7.52 58.22 7.52
  L 49.72 7.50
  L 42.99 7.35
  L 58.98 7.29
  Z"
/>
<path fill="#d5a943" d="
  M 58.98 7.29
  L 68.59 7.60
  C 68.56 11.11 66.50 13.42 66.40 16.83
  Q 65.94 31.91 66.11 47.00
  Q 66.15 50.39 63.64 60.87
  L 61.28 60.09
  Q 61.22 58.87 59.82 58.43
  Q 59.31 58.26 59.41 57.74
  C 61.87 44.46 60.92 31.58 60.98 18.21
  C 61.00 14.72 61.73 11.81 62.54 8.47
  A 0.84 0.84 0.0 0 0 61.56 7.45
  Q 60.36 7.68 58.98 7.29
  Z"
/>
<path fill="#e6c959" d="
  M 42.26 7.54
  Q 42.26 7.67 42.27 7.79
  L 34.51 8.64
  L 32.46 8.37
  L 42.26 7.54
  Z"
/>
<path fill="#ffffc8" d="
  M 42.26 7.54
  Q 42.95 7.55 42.99 7.35
  L 49.72 7.50
  Q 50.55 12.74 50.50 15.75
  Q 50.36 23.79 50.86 30.45
  Q 45.57 37.66 39.95 36.79
  Q 39.50 36.72 39.14 37.00
  L 37.86 38.00
  L 34.00 23.10
  C 37.57 23.31 42.51 23.07 42.95 18.98
  C 43.26 16.13 43.77 13.43 43.79 10.53
  Q 43.79 9.99 44.30 9.83
  L 48.34 8.57
  A 0.42 0.41 -53.6 0 0 48.22 7.76
  L 42.27 7.79
  Q 42.26 7.67 42.26 7.54
  Z"
/>
<path fill="#fffb6d" d="
  M 49.72 7.50
  L 58.22 7.52
  Q 58.73 7.52 58.71 8.04
  Q 57.95 25.44 58.30 42.84
  C 58.41 48.43 56.29 53.20 56.66 59.15
  Q 52.19 59.68 51.45 62.23
  L 43.22 51.50
  Q 46.45 50.22 49.76 50.88
  A 1.75 1.75 0.0 0 0 51.85 49.08
  L 50.86 30.45
  Q 50.36 23.79 50.50 15.75
  Q 50.55 12.74 49.72 7.50
  Z"
/>
<path fill="#a66c25" d="
  M 68.59 7.60
  L 71.89 7.52
  C 73.55 16.86 74.96 23.11 74.38 34.55
  A 0.79 0.78 -78.4 0 0 74.89 35.33
  Q 76.58 35.95 79.34 34.29
  L 76.69 36.88
  Q 76.34 37.23 76.33 37.72
  L 76.12 55.30
  Q 76.24 56.40 74.67 58.42
  Q 74.99 58.59 74.46 59.23
  L 70.82 64.23
  L 63.64 60.87
  Q 66.15 50.39 66.11 47.00
  Q 65.94 31.91 66.40 16.83
  C 66.50 13.42 68.56 11.11 68.59 7.60
  Z"
/>
<path fill="#503a18" d="
  M 71.89 7.52
  L 80.50 8.39
  Q 80.17 10.19 80.65 11.96
  L 79.34 34.29
  Q 76.58 35.95 74.89 35.33
  A 0.79 0.78 -78.4 0 1 74.38 34.55
  C 74.96 23.11 73.55 16.86 71.89 7.52
  Z"
/>
<path fill="#fffffb" d="
  M 42.27 7.79
  L 48.22 7.76
  A 0.42 0.41 -53.6 0 1 48.34 8.57
  L 44.30 9.83
  Q 43.79 9.99 43.79 10.53
  C 43.77 13.43 43.26 16.13 42.95 18.98
  C 42.51 23.07 37.57 23.31 34.00 23.10
  L 31.29 10.68
  A 1.12 1.11 -32.8 0 1 31.49 9.77
  Q 32.40 8.52 34.51 8.64
  L 42.27 7.79
  Z"
/>
<path fill="#ffff9e" d="
  M 99.46 8.35
  Q 101.68 9.86 100.09 12.46
  Q 99.83 12.89 100.02 13.35
  Q 101.15 16.01 98.72 17.05
  Q 98.11 17.31 98.61 17.75
  C 100.03 19.00 101.28 18.72 102.11 20.72
  Q 100.73 20.62 99.76 19.61
  Q 99.39 19.23 99.03 19.62
  Q 98.42 20.26 98.25 21.24
  Q 97.73 21.46 97.82 21.62
  Q 97.58 21.53 97.38 21.49
  Q 97.03 21.41 96.99 21.05
  Q 96.97 20.90 96.97 20.72
  Q 97.08 20.45 96.83 20.27
  Q 96.45 20.00 96.08 20.28
  L 91.26 24.02
  Q 90.73 24.13 90.67 23.44
  C 92.64 21.35 94.85 19.98 96.29 17.35
  Q 97.16 15.75 98.40 14.43
  Q 98.75 14.06 98.74 13.55
  L 98.72 11.52
  Q 99.32 10.26 99.22 9.02
  Q 99.26 8.03 99.46 8.35
  Z"
/>
<path fill="#fffb6d" d="
  M 32.46 8.37
  L 34.51 8.64
  Q 32.40 8.52 31.49 9.77
  A 1.12 1.11 -32.8 0 0 31.29 10.68
  L 34.00 23.10
  L 37.86 38.00
  Q 38.34 38.62 37.28 39.79
  L 33.70 28.66
  Q 34.09 27.17 33.05 25.10
  Q 32.80 24.61 32.25 24.58
  Q 30.84 24.50 30.76 23.53
  L 29.49 9.17
  L 32.46 8.37
  Z"
/>
<path fill="#e6c959" d="
  M 80.50 8.39
  L 84.15 8.98
  Q 84.72 9.07 84.75 9.65
  L 84.95 14.08
  L 84.75 15.71
  L 84.58 20.26
  L 83.11 34.90
  Q 82.40 36.91 81.54 36.80
  Q 80.94 36.73 80.99 36.12
  L 82.61 18.05
  Q 82.65 17.54 82.32 17.14
  Q 80.66 15.15 80.65 11.96
  Q 80.17 10.19 80.50 8.39
  Z"
/>
<path fill="#74490a" fill-opacity="0.996" d="
  M 16.86 15.85
  L 17.27 17.66
  Q 16.96 17.85 16.95 18.19
  Q 13.37 14.98 13.05 9.75
  Q 13.36 8.77 13.68 8.77
  Q 13.97 8.77 14.04 9.40
  Q 14.48 13.31 16.86 15.85
  Z"
/>
<path fill="#270916" d="
  M 29.49 9.17
  L 30.76 23.53
  Q 31.35 30.74 33.69 37.83
  Q 34.61 39.70 33.23 40.50
  L 29.99 32.97
  Q 29.93 28.36 25.04 25.52
  C 23.05 23.56 17.90 20.42 16.95 18.19
  Q 16.96 17.85 17.27 17.66
  L 23.13 22.15
  Q 22.71 22.11 23.73 22.28
  Q 24.55 23.36 25.69 23.53
  L 26.26 24.20
  Q 25.79 24.31 26.60 25.02
  A 1.15 1.15 0.0 0 0 27.96 25.12
  Q 29.84 23.93 28.43 21.74
  Q 28.84 20.93 28.75 19.99
  Q 28.70 19.51 28.22 19.49
  Q 27.68 19.47 27.28 19.72
  L 19.19 16.53
  Q 19.06 15.91 20.29 15.94
  Q 23.07 16.82 25.00 15.40
  Q 27.65 15.92 28.50 14.87
  Q 29.05 13.18 28.57 11.98
  Q 28.90 11.02 28.65 9.92
  Q 28.54 9.40 29.05 9.26
  Q 29.23 9.21 29.49 9.17
  Z"
/>
<path fill="#fffb6d" d="
  M 11.73 9.46
  Q 12.39 9.43 13.05 9.75
  Q 13.37 14.98 16.95 18.19
  C 17.90 20.42 23.05 23.56 25.04 25.52
  Q 24.89 26.12 24.18 26.86
  Q 23.20 25.30 21.66 24.86
  Q 21.13 24.71 20.71 24.34
  L 17.28 21.23
  Q 17.05 21.02 16.75 21.13
  L 16.27 21.31
  Q 14.80 18.44 13.36 18.66
  Q 11.78 16.44 12.19 14.59
  Q 12.29 14.11 12.05 13.68
  C 11.49 12.66 10.23 10.27 11.73 9.46
  Z"
/>
<path fill="#fffb6d" d="
  M 96.74 9.70
  Q 97.89 10.13 97.40 11.17
  Q 96.63 17.67 91.59 20.60
  Q 91.18 20.42 91.18 20.00
  Q 91.75 18.52 90.99 18.68
  Q 92.43 17.73 93.32 16.15
  Q 96.86 14.81 96.74 9.70
  Z"
/>
<path fill="#12090c" d="
  M 97.40 11.17
  L 98.72 11.52
  L 98.74 13.55
  Q 98.75 14.06 98.40 14.43
  Q 97.16 15.75 96.29 17.35
  C 94.85 19.98 92.64 21.35 90.67 23.44
  L 89.14 25.14
  Q 88.08 25.06 88.18 24.32
  Q 88.70 23.72 88.83 23.21
  Q 89.40 22.94 89.58 22.29
  L 91.59 20.60
  Q 96.63 17.67 97.40 11.17
  Z"
/>
<path fill="#fffffb" d="
  M 28.57 11.98
  Q 29.05 13.18 28.50 14.87
  Q 27.63 14.30 26.74 14.57
  Q 23.28 14.34 20.29 15.94
  Q 19.06 15.91 19.19 16.53
  L 16.86 15.85
  Q 17.04 14.81 17.76 14.21
  Q 22.86 12.38 28.57 11.98
  Z"
/>
<path fill="#d5a943" d="
  M 80.65 11.96
  Q 80.66 15.15 82.32 17.14
  Q 82.65 17.54 82.61 18.05
  L 80.99 36.12
  Q 80.94 36.73 81.54 36.80
  Q 82.40 36.91 83.11 34.90
  L 79.22 49.68
  L 76.12 55.30
  L 76.33 37.72
  Q 76.34 37.23 76.69 36.88
  L 79.34 34.29
  L 80.65 11.96
  Z"
/>
<path fill="#e8f5f3" fill-opacity="0.996" d="
  M 84.95 14.08
  L 93.32 16.15
  Q 92.43 17.73 90.99 18.68
  L 89.19 19.75
  L 88.58 19.75
  Q 88.04 19.75 88.00 19.21
  L 87.94 18.60
  L 90.12 17.47
  Q 91.04 16.99 90.01 16.86
  L 85.49 16.29
  Q 85.21 16.38 84.75 15.71
  L 84.95 14.08
  Z"
/>
<path fill="#779d95" d="
  M 26.74 14.57
  Q 26.65 15.32 25.00 15.40
  Q 23.07 16.82 20.29 15.94
  Q 23.28 14.34 26.74 14.57
  Z"
/>
<path fill="#43595f" d="
  M 26.74 14.57
  Q 27.63 14.30 28.50 14.87
  Q 27.65 15.92 25.00 15.40
  Q 26.65 15.32 26.74 14.57
  Z"
/>
<path fill="#fffb6d" d="
  M 16.86 15.85
  L 19.19 16.53
  L 27.28 19.72
  Q 27.19 20.13 27.32 20.25
  Q 27.46 21.58 25.29 21.23
  Q 24.46 19.65 22.97 19.84
  Q 22.39 19.92 22.74 20.39
  Q 23.61 21.54 23.13 22.15
  L 17.27 17.66
  L 16.86 15.85
  Z"
/>
<path fill="#9e9a84" d="
  M 84.75 15.71
  Q 85.21 16.38 85.49 16.29
  L 84.58 20.26
  L 84.75 15.71
  Z"
/>
<path fill="#6a445e" d="
  M 85.49 16.29
  L 90.01 16.86
  Q 91.04 16.99 90.12 17.47
  L 87.94 18.60
  C 87.02 19.81 85.79 21.83 86.57 23.32
  Q 87.15 24.40 88.18 24.32
  Q 88.08 25.06 89.14 25.14
  Q 85.92 28.30 86.80 31.07
  Q 84.13 37.49 82.96 44.37
  L 80.54 50.62
  Q 79.76 50.41 79.22 49.68
  L 83.11 34.90
  L 84.58 20.26
  L 85.49 16.29
  Z"
/>
<path fill="#fffffb" d="
  M 16.27 21.31
  L 16.50 22.38
  Q 16.13 22.45 15.75 22.89
  Q 15.34 22.36 14.87 22.19
  Q 14.33 22.01 14.11 22.53
  L 3.74 47.45
  A 1.68 1.64 -42.7 0 0 3.68 48.54
  C 7.98 63.04 11.31 74.30 16.88 87.05
  Q 23.76 103.63 32.33 119.40
  Q 31.75 120.45 31.56 120.27
  Q 12.28 85.82 1.62 47.93
  Q 1.30 46.77 1.72 45.70
  Q 7.02 32.41 13.36 18.66
  Q 14.80 18.44 16.27 21.31
  Z"
/>
<path fill="#d5a943" d="
  M 87.94 18.60
  L 88.00 19.21
  Q 88.04 19.75 88.58 19.75
  L 89.19 19.75
  Q 90.20 20.67 91.18 20.00
  Q 91.18 20.42 91.59 20.60
  L 89.58 22.29
  L 88.58 21.16
  Q 88.08 20.59 87.79 21.29
  L 87.48 22.03
  Q 87.19 22.72 87.91 22.93
  L 88.83 23.21
  Q 88.70 23.72 88.18 24.32
  Q 87.15 24.40 86.57 23.32
  C 85.79 21.83 87.02 19.81 87.94 18.60
  Z"
/>
<path fill="#503a18" d="
  M 90.99 18.68
  Q 91.75 18.52 91.18 20.00
  Q 90.20 20.67 89.19 19.75
  L 90.99 18.68
  Z"
/>
<path fill="#7b8e95" d="
  M 102.11 20.72
  Q 108.05 34.82 113.06 49.44
  Q 113.32 50.19 112.73 51.80
  Q 111.47 52.73 111.11 52.71
  L 107.99 43.00
  Q 106.37 37.82 104.65 32.69
  Q 104.45 32.09 104.14 31.98
  Q 103.70 31.82 103.11 32.28
  L 100.53 25.76
  L 98.25 21.24
  Q 98.42 20.26 99.03 19.62
  Q 99.39 19.23 99.76 19.61
  Q 100.73 20.62 102.11 20.72
  Z"
/>
<path fill="#74490a" fill-opacity="0.996" d="
  M 28.43 21.74
  Q 27.63 21.24 27.32 20.25
  Q 27.19 20.13 27.28 19.72
  Q 27.68 19.47 28.22 19.49
  Q 28.70 19.51 28.75 19.99
  Q 28.84 20.93 28.43 21.74
  Z"
/>
<path fill="#503a18" d="
  M 25.29 21.23
  Q 25.02 22.11 23.73 22.28
  Q 22.71 22.11 23.13 22.15
  Q 23.61 21.54 22.74 20.39
  Q 22.39 19.92 22.97 19.84
  Q 24.46 19.65 25.29 21.23
  Z"
/>
<path fill="#a66c25" d="
  M 96.97 20.72
  Q 95.81 22.99 93.57 23.47
  Q 93.08 23.57 92.84 24.01
  Q 92.18 25.22 92.96 25.31
  Q 92.02 26.21 90.46 25.40
  Q 91.12 24.90 91.26 24.02
  L 96.08 20.28
  Q 96.45 20.00 96.83 20.27
  Q 97.08 20.45 96.97 20.72
  Z"
/>
<path fill="#e6c959" d="
  M 27.32 20.25
  Q 27.63 21.24 28.43 21.74
  Q 29.84 23.93 27.96 25.12
  A 1.15 1.15 0.0 0 1 26.60 25.02
  Q 25.79 24.31 26.26 24.20
  Q 27.75 24.53 27.76 23.66
  A 1.09 1.09 0.0 0 0 26.06 22.74
  Q 25.77 22.93 25.69 23.53
  Q 24.55 23.36 23.73 22.28
  Q 25.02 22.11 25.29 21.23
  Q 27.46 21.58 27.32 20.25
  Z"
/>
<path fill="#d5a943" d="
  M 96.97 20.72
  Q 96.97 20.90 96.99 21.05
  Q 97.03 21.41 97.38 21.49
  Q 97.58 21.53 97.82 21.62
  L 92.96 25.31
  Q 92.18 25.22 92.84 24.01
  Q 93.08 23.57 93.57 23.47
  Q 95.81 22.99 96.97 20.72
  Z"
/>
<path fill="#947a10" fill-opacity="0.996" d="
  M 24.18 26.86
  Q 24.21 26.91 24.24 26.95
  L 23.17 27.31
  Q 22.81 25.25 20.10 25.10
  Q 19.60 25.08 19.31 24.68
  Q 18.26 23.27 16.50 22.38
  L 16.27 21.31
  L 16.75 21.13
  Q 17.05 21.02 17.28 21.23
  L 20.71 24.34
  Q 21.13 24.71 21.66 24.86
  Q 23.20 25.30 24.18 26.86
  Z"
/>
<path fill="#6a445e" d="
  M 89.58 22.29
  Q 89.40 22.94 88.83 23.21
  L 87.91 22.93
  Q 87.19 22.72 87.48 22.03
  L 87.79 21.29
  Q 88.08 20.59 88.58 21.16
  L 89.58 22.29
  Z"
/>
<path fill="#775b63" d="
  M 98.25 21.24
  L 100.53 25.76
  L 99.97 25.53
  Q 99.37 25.27 99.57 25.90
  L 106.41 47.23
  L 105.44 49.34
  A 1.14 1.12 -87.2 0 1 104.79 49.94
  Q 95.73 53.26 86.18 54.96
  Q 85.38 55.37 84.14 55.39
  L 84.73 47.15
  Q 86.21 50.05 86.05 53.75
  Q 86.01 54.52 86.76 54.31
  L 100.23 50.58
  A 0.78 0.76 -13.1 0 0 100.79 49.70
  Q 99.40 41.67 94.63 35.10
  Q 94.36 34.71 93.96 34.45
  L 92.02 33.17
  A 2.00 2.00 0.0 0 0 88.98 34.35
  Q 87.92 38.57 87.08 34.81
  Q 88.34 32.10 89.79 29.73
  Q 90.40 28.73 90.00 28.20
  Q 89.57 27.64 88.44 27.15
  Q 89.72 26.43 90.46 25.40
  Q 92.02 26.21 92.96 25.31
  L 97.82 21.62
  Q 97.73 21.46 98.25 21.24
  Z"
/>
<path fill="#779d95" d="
  M 15.75 22.89
  Q 15.63 22.80 15.52 22.71
  L 5.62 46.58
  Q 5.43 47.04 5.56 47.53
  Q 10.50 66.27 17.61 84.21
  Q 16.95 85.57 16.88 87.05
  C 11.31 74.30 7.98 63.04 3.68 48.54
  A 1.68 1.64 -42.7 0 1 3.74 47.45
  L 14.11 22.53
  Q 14.33 22.01 14.87 22.19
  Q 15.34 22.36 15.75 22.89
  Z"
/>
<path fill="#d5a943" d="
  M 16.50 22.38
  Q 18.26 23.27 19.31 24.68
  Q 19.60 25.08 20.10 25.10
  Q 22.81 25.25 23.17 27.31
  L 17.71 24.94
  L 15.52 22.71
  Q 15.63 22.80 15.75 22.89
  Q 16.13 22.45 16.50 22.38
  Z"
/>
<path fill="#12090c" d="
  M 26.26 24.20
  L 25.69 23.53
  Q 25.77 22.93 26.06 22.74
  A 1.09 1.09 0.0 0 1 27.76 23.66
  Q 27.75 24.53 26.26 24.20
  Z"
/>
<path fill="#371108" d="
  M 15.52 22.71
  L 17.71 24.94
  Q 17.92 25.54 16.99 25.91
  Q 16.43 26.03 16.31 26.31
  Q 12.13 35.78 8.13 45.84
  A 5.70 5.63 -42.3 0 0 7.94 49.47
  L 11.33 61.48
  L 17.07 77.75
  L 21.97 89.54
  Q 33.88 117.42 50.42 143.16
  Q 53.48 147.98 56.65 153.15
  C 59.67 158.08 62.16 153.60 63.95 151.12
  Q 62.00 155.77 63.76 154.13
  L 62.43 156.34
  L 58.23 156.99
  Q 42.51 134.85 30.05 110.82
  C 25.87 102.77 21.74 93.09 17.61 84.21
  Q 10.50 66.27 5.56 47.53
  Q 5.43 47.04 5.62 46.58
  L 15.52 22.71
  Z"
/>
<path fill="#d5a943" d="
  M 30.76 23.53
  Q 30.84 24.50 32.25 24.58
  Q 32.80 24.61 33.05 25.10
  Q 34.09 27.17 33.70 28.66
  Q 32.90 32.10 34.69 36.75
  Q 34.38 37.84 33.69 37.83
  Q 31.35 30.74 30.76 23.53
  Z"
/>
<path fill="#e6c959" d="
  M 90.67 23.44
  Q 90.73 24.13 91.26 24.02
  Q 91.12 24.90 90.46 25.40
  Q 89.72 26.43 88.44 27.15
  L 86.80 31.07
  Q 85.92 28.30 89.14 25.14
  L 90.67 23.44
  Z"
/>
<path fill="#552c38" d="
  M 17.71 24.94
  L 23.17 27.31
  L 24.24 26.95
  Q 25.81 27.28 26.23 28.74
  Q 25.61 29.29 25.47 30.04
  A 1.17 1.16 31.6 0 0 25.70 30.98
  C 32.31 39.36 33.33 47.71 35.50 57.73
  Q 35.32 58.17 35.04 58.32
  Q 34.48 58.62 34.34 58.00
  L 32.99 51.83
  L 31.26 45.95
  Q 30.24 42.08 28.61 38.39
  C 27.29 35.41 24.61 32.94 23.15 29.56
  Q 22.96 29.11 22.52 28.87
  L 16.99 25.91
  Q 17.92 25.54 17.71 24.94
  Z"
/>
<path fill="#e6c959" d="
  M 25.04 25.52
  Q 29.93 28.36 29.99 32.97
  Q 28.32 31.68 27.71 29.26
  Q 27.53 28.56 26.23 28.74
  Q 25.81 27.28 24.24 26.95
  Q 24.21 26.91 24.18 26.86
  Q 24.89 26.12 25.04 25.52
  Z"
/>
<path fill="#12090c" d="
  M 100.53 25.76
  L 103.11 32.28
  L 106.92 43.51
  L 109.30 50.82
  Q 109.46 51.29 109.33 51.77
  Q 103.84 73.38 95.37 93.95
  Q 82.32 125.42 63.76 154.13
  Q 62.00 155.77 63.95 151.12
  L 69.88 141.06
  Q 70.17 140.56 69.80 140.11
  L 64.10 133.17
  Q 59.39 127.45 54.17 122.11
  C 51.61 119.49 51.19 116.62 50.16 113.30
  Q 50.02 112.84 50.19 112.39
  Q 50.30 112.09 50.24 111.78
  L 50.85 111.60
  Q 51.35 111.46 51.42 111.97
  C 51.89 115.51 52.32 118.35 54.86 121.15
  Q 60.79 127.70 66.60 134.37
  C 67.84 135.79 68.37 137.85 70.85 138.32
  Q 71.39 138.42 71.69 137.95
  Q 79.30 125.95 84.71 112.78
  Q 89.18 105.54 91.96 98.78
  Q 99.21 81.13 105.13 60.96
  Q 106.08 57.71 106.76 54.40
  Q 106.85 53.96 107.24 53.71
  Q 108.68 52.81 107.79 50.93
  Q 106.96 49.16 106.41 47.23
  L 99.57 25.90
  Q 99.37 25.27 99.97 25.53
  L 100.53 25.76
  Z"
/>
<path fill="#774348" d="
  M 16.99 25.91
  L 22.52 28.87
  Q 22.96 29.11 23.15 29.56
  C 24.61 32.94 27.29 35.41 28.61 38.39
  Q 30.24 42.08 31.26 45.95
  Q 28.29 44.90 25.61 46.03
  Q 25.12 46.23 24.59 46.23
  Q 22.16 46.20 20.97 48.25
  A 1.77 1.77 0.0 0 1 20.31 48.91
  C 16.14 51.34 15.11 57.15 13.45 61.31
  Q 13.27 61.77 12.78 61.77
  Q 11.97 61.77 11.33 61.48
  L 7.94 49.47
  A 5.70 5.63 -42.3 0 1 8.13 45.84
  Q 12.13 35.78 16.31 26.31
  Q 16.43 26.03 16.99 25.91
  Z"
/>
<path fill="#fffb6d" d="
  M 88.44 27.15
  Q 89.57 27.64 90.00 28.20
  Q 90.40 28.73 89.79 29.73
  Q 88.34 32.10 87.08 34.81
  Q 84.72 41.08 84.73 47.15
  L 84.14 55.39
  Q 83.55 56.27 83.05 56.47
  Q 82.34 56.74 82.33 55.98
  L 82.26 52.48
  Q 83.45 48.85 82.96 44.37
  Q 84.13 37.49 86.80 31.07
  L 88.44 27.15
  Z"
/>
<path fill="#fffb6d" d="
  M 26.23 28.74
  Q 27.53 28.56 27.71 29.26
  Q 28.32 31.68 29.99 32.97
  L 33.23 40.50
  L 36.06 47.92
  Q 35.98 50.32 36.71 52.24
  L 37.44 57.95
  A 0.67 0.67 0.0 0 1 36.67 58.70
  Q 36.04 58.60 35.50 57.73
  C 33.33 47.71 32.31 39.36 25.70 30.98
  A 1.17 1.16 31.6 0 1 25.47 30.04
  Q 25.61 29.29 26.23 28.74
  Z"
/>
<path fill="#000000" d="
  M 33.70 28.66
  L 37.28 39.79
  L 43.22 51.50
  L 51.45 62.23
  L 50.72 64.53
  C 48.91 64.11 48.54 62.43 47.52 61.41
  Q 43.45 57.33 40.60 52.31
  Q 36.84 44.77 34.69 36.75
  Q 32.90 32.10 33.70 28.66
  Z"
/>
<path fill="#ffff9e" d="
  M 50.86 30.45
  L 51.85 49.08
  A 1.75 1.75 0.0 0 1 49.76 50.88
  Q 46.45 50.22 43.22 51.50
  L 37.28 39.79
  Q 38.34 38.62 37.86 38.00
  L 39.14 37.00
  Q 39.50 36.72 39.95 36.79
  Q 45.57 37.66 50.86 30.45
  Z"
/>
<path fill="#9ccdd1" fill-opacity="0.996" d="
  M 107.99 43.00
  Q 106.89 42.83 106.92 43.51
  L 103.11 32.28
  Q 103.70 31.82 104.14 31.98
  Q 104.45 32.09 104.65 32.69
  Q 106.37 37.82 107.99 43.00
  Z"
/>
<path fill="#a69094" d="
  M 84.73 47.15
  Q 84.72 41.08 87.08 34.81
  Q 87.92 38.57 88.98 34.35
  A 2.00 2.00 0.0 0 1 92.02 33.17
  L 93.96 34.45
  Q 94.36 34.71 94.63 35.10
  Q 99.40 41.67 100.79 49.70
  A 0.78 0.76 -13.1 0 1 100.23 50.58
  L 86.76 54.31
  Q 86.01 54.52 86.05 53.75
  Q 86.21 50.05 84.73 47.15
  Z"
/>
<path fill="#774348" d="
  M 34.69 36.75
  Q 36.84 44.77 40.60 52.31
  L 38.62 52.33
  L 36.06 47.92
  L 33.23 40.50
  Q 34.61 39.70 33.69 37.83
  Q 34.38 37.84 34.69 36.75
  Z"
/>
<path fill="#fffffb" d="
  M 107.99 43.00
  L 111.11 52.71
  Q 105.57 74.36 96.82 94.73
  Q 95.49 94.71 95.37 93.95
  Q 103.84 73.38 109.33 51.77
  Q 109.46 51.29 109.30 50.82
  L 106.92 43.51
  Q 106.89 42.83 107.99 43.00
  Z"
/>
<path fill="#e6c959" d="
  M 82.96 44.37
  Q 83.45 48.85 82.26 52.48
  Q 81.33 55.07 80.25 60.74
  Q 80.05 61.81 78.94 61.57
  Q 78.47 61.46 78.56 60.99
  L 79.39 56.80
  Q 79.13 53.03 80.54 50.62
  L 82.96 44.37
  Z"
/>
<path fill="#865658" d="
  M 31.26 45.95
  L 32.99 51.83
  C 29.71 52.48 24.14 56.39 22.26 59.29
  Q 18.57 64.98 18.84 71.27
  C 18.97 74.10 18.28 75.44 17.07 77.75
  L 11.33 61.48
  Q 11.97 61.77 12.78 61.77
  Q 13.27 61.77 13.45 61.31
  C 15.11 57.15 16.14 51.34 20.31 48.91
  A 1.77 1.77 0.0 0 0 20.97 48.25
  Q 22.16 46.20 24.59 46.23
  Q 25.12 46.23 25.61 46.03
  Q 28.29 44.90 31.26 45.95
  Z"
/>
<path fill="#411f2a" d="
  M 106.41 47.23
  Q 106.96 49.16 107.79 50.93
  Q 108.68 52.81 107.24 53.71
  Q 106.85 53.96 106.76 54.40
  Q 106.08 57.71 105.13 60.96
  Q 99.21 81.13 91.96 98.78
  Q 89.18 105.54 84.71 112.78
  Q 80.52 111.08 77.09 108.00
  L 81.41 108.50
  Q 81.97 108.57 82.26 108.09
  Q 83.20 106.50 82.19 106.80
  L 83.05 105.76
  Q 83.78 105.12 83.44 104.12
  A 1.24 1.24 0.0 0 0 82.83 103.41
  C 78.70 101.28 76.16 97.69 73.32 94.16
  L 72.72 93.11
  L 73.01 92.14
  Q 73.23 91.42 73.68 92.03
  Q 77.50 97.17 82.41 101.31
  A 1.73 1.73 0.0 0 0 84.25 101.56
  Q 87.13 100.21 87.05 97.08
  Q 87.04 96.66 87.45 96.58
  Q 87.84 96.49 88.01 96.01
  C 90.45 88.74 92.14 81.49 94.41 75.02
  C 96.82 68.15 99.20 61.82 100.57 54.56
  A 0.90 0.89 -0.9 0 0 99.49 53.52
  L 86.52 56.47
  Q 86.03 56.58 85.95 56.08
  Q 85.88 55.65 86.18 54.96
  Q 95.73 53.26 104.79 49.94
  A 1.14 1.12 -87.2 0 0 105.44 49.34
  L 106.41 47.23
  Z"
/>
<path fill="#e6c959" d="
  M 36.06 47.92
  L 38.62 52.33
  Q 40.80 54.11 40.53 56.98
  Q 40.47 57.56 40.66 58.12
  L 42.32 63.18
  A 0.42 0.42 0.0 0 1 41.88 63.73
  Q 40.30 63.59 39.96 61.76
  Q 39.15 57.39 36.71 52.24
  Q 35.98 50.32 36.06 47.92
  Z"
/>
<path fill="#926867" d="
  M 79.22 49.68
  Q 79.76 50.41 80.54 50.62
  Q 79.13 53.03 79.39 56.80
  Q 76.92 59.08 74.67 58.42
  Q 76.24 56.40 76.12 55.30
  L 79.22 49.68
  Z"
/>
<path fill="#926867" d="
  M 32.99 51.83
  L 34.34 58.00
  Q 34.48 58.62 35.04 58.32
  Q 35.32 58.17 35.50 57.73
  Q 36.04 58.60 36.67 58.70
  A 0.67 0.67 0.0 0 0 37.44 57.95
  L 36.71 52.24
  Q 39.15 57.39 39.96 61.76
  Q 40.30 63.59 41.88 63.73
  A 0.42 0.42 0.0 0 0 42.32 63.18
  L 40.66 58.12
  Q 40.47 57.56 40.53 56.98
  Q 40.80 54.11 38.62 52.33
  L 40.60 52.31
  Q 43.45 57.33 47.52 61.41
  C 48.54 62.43 48.91 64.11 50.72 64.53
  Q 50.79 64.83 50.75 65.15
  Q 50.71 65.41 50.49 65.66
  Q 47.00 69.70 45.96 73.71
  L 35.00 81.39
  Q 30.53 84.84 25.94 89.19
  Q 25.05 90.03 21.97 89.54
  L 17.07 77.75
  C 18.28 75.44 18.97 74.10 18.84 71.27
  Q 18.57 64.98 22.26 59.29
  C 24.14 56.39 29.71 52.48 32.99 51.83
  Z"
/>
<path fill="#43595f" d="
  M 112.73 51.80
  C 102.94 89.85 85.26 126.07 63.74 158.80
  C 62.53 160.65 60.87 161.05 58.87 160.65
  Q 56.28 158.12 55.31 156.69
  Q 43.01 138.55 32.33 119.40
  Q 23.76 103.63 16.88 87.05
  Q 16.95 85.57 17.61 84.21
  C 21.74 93.09 25.87 102.77 30.05 110.82
  Q 42.51 134.85 58.23 156.99
  Q 57.20 159.81 63.38 157.62
  Q 82.72 127.82 96.82 94.73
  Q 105.57 74.36 111.11 52.71
  Q 111.47 52.73 112.73 51.80
  Z"
/>
<path fill="#552c38" d="
  M 82.26 52.48
  L 82.33 55.98
  Q 82.34 56.74 83.05 56.47
  Q 83.55 56.27 84.14 55.39
  Q 85.38 55.37 86.18 54.96
  Q 85.88 55.65 85.95 56.08
  Q 86.03 56.58 86.52 56.47
  L 99.49 53.52
  A 0.90 0.89 -0.9 0 1 100.57 54.56
  C 99.20 61.82 96.82 68.15 94.41 75.02
  C 92.14 81.49 90.45 88.74 88.01 96.01
  Q 87.84 96.49 87.45 96.58
  Q 87.04 96.66 87.05 97.08
  Q 87.13 100.21 84.25 101.56
  A 1.73 1.73 0.0 0 1 82.41 101.31
  Q 77.50 97.17 73.68 92.03
  Q 73.23 91.42 73.01 92.14
  L 72.72 93.11
  Q 72.15 91.73 71.30 91.75
  L 71.18 90.75
  L 74.50 86.40
  Q 74.80 86.01 75.26 85.86
  Q 76.74 85.38 76.89 83.97
  C 77.21 80.88 77.89 78.09 77.90 74.96
  Q 78.42 72.68 76.72 71.26
  Q 76.73 71.13 76.75 71.00
  L 77.64 71.00
  Q 78.23 70.99 77.87 70.53
  L 73.01 64.28
  A 0.80 0.80 0.0 0 1 72.99 63.32
  L 75.71 59.61
  Q 76.32 58.78 75.32 59.02
  L 74.46 59.23
  Q 74.99 58.59 74.67 58.42
  Q 76.92 59.08 79.39 56.80
  L 78.56 60.99
  Q 78.47 61.46 78.94 61.57
  Q 80.05 61.81 80.25 60.74
  Q 81.33 55.07 82.26 52.48
  Z"
/>
<path fill="#fffffb" d="
  M 61.28 60.09
  L 63.64 60.87
  L 70.82 64.23
  Q 73.16 65.57 73.56 68.00
  Q 73.53 68.59 72.46 68.82
  C 69.81 67.46 70.37 65.48 66.46 64.80
  L 62.02 62.46
  Q 61.12 61.98 61.74 62.79
  L 62.52 63.80
  L 62.27 64.18
  Q 62.38 65.26 62.24 65.41
  A 1.04 1.04 0.0 0 1 60.55 65.15
  C 58.74 61.40 53.07 65.35 51.53 67.43
  C 47.95 71.49 46.54 77.28 44.67 83.52
  L 44.28 83.49
  Q 43.80 83.47 43.80 83.95
  Q 43.79 84.34 43.74 84.74
  Q 43.57 86.09 43.52 84.73
  Q 43.50 84.10 43.27 83.72
  Q 42.84 83.25 43.00 82.75
  Q 44.25 78.90 45.96 73.71
  Q 47.00 69.70 50.49 65.66
  Q 50.71 65.41 50.75 65.15
  Q 50.79 64.83 50.72 64.53
  L 51.45 62.23
  Q 52.19 59.68 56.66 59.15
  Q 58.75 58.33 61.28 60.09
  Z"
/>
<path fill="#000000" d="
  M 76.75 71.00
  L 74.52 69.31
  L 73.56 68.00
  Q 73.16 65.57 70.82 64.23
  L 74.46 59.23
  L 75.32 59.02
  Q 76.32 58.78 75.71 59.61
  L 72.99 63.32
  A 0.80 0.80 0.0 0 0 73.01 64.28
  L 77.87 70.53
  Q 78.23 70.99 77.64 71.00
  L 76.75 71.00
  Z"
/>
<path fill="#779d95" d="
  M 66.46 64.80
  Q 66.59 65.38 66.37 65.21
  Q 64.90 66.48 63.76 64.54
  A 1.30 1.29 -6.2 0 0 63.04 63.97
  L 62.52 63.80
  L 61.74 62.79
  Q 61.12 61.98 62.02 62.46
  L 66.46 64.80
  Z"
/>
<path fill="#ccc6ae" d="
  M 62.27 64.18
  Q 63.09 66.48 62.39 68.26
  Q 62.17 68.84 61.56 68.77
  Q 59.65 68.54 58.06 69.58
  A 0.99 0.98 44.3 0 1 56.99 69.59
  Q 54.28 67.85 51.53 67.43
  C 53.07 65.35 58.74 61.40 60.55 65.15
  A 1.04 1.04 0.0 0 0 62.24 65.41
  Q 62.38 65.26 62.27 64.18
  Z"
/>
<path fill="#2c281c" d="
  M 62.52 63.80
  L 63.04 63.97
  A 1.30 1.29 -6.2 0 1 63.76 64.54
  Q 64.90 66.48 66.37 65.21
  Q 67.47 66.58 69.27 66.79
  A 0.78 0.77 85.4 0 1 69.92 67.35
  C 70.58 69.72 70.30 71.61 73.01 72.58
  Q 73.01 72.87 72.20 73.44
  Q 72.08 73.66 71.31 73.90
  L 62.54 72.97
  Q 62.34 71.64 61.31 71.49
  Q 57.63 70.99 53.75 71.31
  L 53.66 69.99
  Q 53.63 69.42 53.17 69.08
  L 52.73 68.77
  Q 52.15 68.35 51.92 69.02
  C 51.57 70.03 51.63 71.13 51.08 71.99
  Q 48.27 76.37 51.31 75.07
  Q 51.37 75.15 51.43 75.23
  C 49.27 79.90 44.87 80.44 46.41 86.84
  A 0.19 0.18 53.1 0 0 46.75 86.89
  Q 48.96 83.05 51.03 79.04
  C 51.32 78.48 51.67 78.31 52.27 78.22
  Q 53.29 78.60 53.85 79.86
  Q 53.82 80.72 52.97 81.44
  Q 52.62 81.69 52.49 81.95
  Q 49.88 84.98 47.86 88.34
  C 46.62 90.42 46.92 92.27 47.02 94.57
  A 0.12 0.12 0.0 0 0 47.24 94.62
  L 51.12 86.99
  Q 51.47 86.30 52.14 86.69
  L 53.40 87.44
  A 0.63 0.62 -54.2 0 1 53.55 88.39
  L 51.33 90.89
  L 47.62 96.45
  Q 47.34 96.88 47.40 97.39
  L 48.04 102.58
  A 0.43 0.43 0.0 0 0 48.89 102.58
  L 49.13 100.79
  A 0.63 0.62 71.2 0 1 49.29 100.46
  Q 50.72 98.92 50.72 96.73
  Q 50.72 96.14 51.29 96.00
  Q 54.42 95.28 57.54 96.00
  Q 58.08 96.12 58.42 95.69
  Q 59.33 94.56 59.72 93.03
  Q 61.82 91.96 64.76 92.03
  Q 65.83 92.05 65.74 90.74
  A 0.58 0.58 0.0 0 0 64.91 90.26
  Q 62.72 91.29 60.68 90.10
  A 1.33 1.33 0.0 0 1 60.16 88.38
  L 61.89 84.74
  Q 62.14 84.22 62.67 83.99
  Q 63.75 83.52 65.21 83.73
  Q 67.01 84.46 68.24 84.05
  A 1.56 1.56 0.0 0 1 70.28 85.77
  Q 70.01 87.52 71.19 88.55
  Q 71.16 89.49 70.49 90.20
  Q 69.09 90.50 69.26 91.87
  A 0.65 0.65 0.0 0 0 69.87 92.45
  L 70.69 92.49
  C 71.60 96.17 62.90 97.11 60.66 98.10
  Q 60.19 98.31 59.70 98.17
  Q 57.75 97.63 56.60 99.33
  Q 56.32 99.75 55.83 99.86
  L 52.20 100.69
  Q 50.95 101.00 50.49 102.27
  L 47.70 104.98
  L 46.75 105.24
  Q 46.78 104.70 46.70 104.68
  Q 47.57 100.18 45.47 96.36
  L 44.67 83.52
  C 46.54 77.28 47.95 71.49 51.53 67.43
  Q 54.28 67.85 56.99 69.59
  A 0.99 0.98 44.3 0 0 58.06 69.58
  Q 59.65 68.54 61.56 68.77
  Q 62.17 68.84 62.39 68.26
  Q 63.09 66.48 62.27 64.18
  L 62.52 63.80
  Z"
/>
<path fill="#827f69" d="
  M 66.46 64.80
  C 70.37 65.48 69.81 67.46 72.46 68.82
  Q 73.28 69.96 74.52 69.31
  L 76.75 71.00
  Q 76.73 71.13 76.72 71.26
  Q 75.68 71.06 75.22 72.00
  L 73.01 72.58
  C 70.30 71.61 70.58 69.72 69.92 67.35
  A 0.78 0.77 85.4 0 0 69.27 66.79
  Q 67.47 66.58 66.37 65.21
  Q 66.59 65.38 66.46 64.80
  Z"
/>
<path fill="#9ccdd1" fill-opacity="0.996" d="
  M 73.56 68.00
  L 74.52 69.31
  Q 73.28 69.96 72.46 68.82
  Q 73.53 68.59 73.56 68.00
  Z"
/>
<path fill="#12090c" d="
  M 53.75 71.31
  Q 52.68 72.01 52.20 73.49
  L 51.31 75.07
  Q 48.27 76.37 51.08 71.99
  C 51.63 71.13 51.57 70.03 51.92 69.02
  Q 52.15 68.35 52.73 68.77
  L 53.17 69.08
  Q 53.63 69.42 53.66 69.99
  L 53.75 71.31
  Z"
/>
<path fill="#fffffb" d="
  M 62.54 72.97
  L 63.00 75.06
  Q 62.80 75.07 62.44 75.73
  L 62.28 76.14
  Q 61.93 76.97 61.47 76.20
  L 60.34 74.32
  A 0.82 0.80 -11.5 0 0 59.75 73.94
  Q 56.18 73.51 52.71 74.00
  Q 52.44 74.03 52.33 73.93
  Q 52.20 73.79 52.20 73.49
  Q 52.68 72.01 53.75 71.31
  Q 57.63 70.99 61.31 71.49
  Q 62.34 71.64 62.54 72.97
  Z"
/>
<path fill="#fffffb" d="
  M 76.72 71.26
  Q 78.42 72.68 77.90 74.96
  Q 76.86 75.31 76.17 75.22
  Q 76.11 74.46 75.17 73.49
  Q 75.63 72.40 75.22 72.00
  Q 75.68 71.06 76.72 71.26
  Z"
/>
<path fill="#9ccdd1" fill-opacity="0.996" d="
  M 75.22 72.00
  Q 75.63 72.40 75.17 73.49
  Q 73.83 72.78 73.66 73.78
  Q 73.04 73.47 72.20 73.44
  Q 73.01 72.87 73.01 72.58
  L 75.22 72.00
  Z"
/>
<path fill="#9ccdd1" fill-opacity="0.996" d="
  M 71.31 73.90
  Q 71.60 75.49 72.90 77.36
  Q 73.16 77.74 73.61 77.79
  Q 74.22 77.86 74.29 77.25
  Q 74.66 77.53 74.47 78.43
  L 72.11 79.75
  Q 70.38 78.63 71.01 77.25
  A 1.18 1.18 0.0 0 0 70.02 75.59
  L 63.00 75.06
  L 62.54 72.97
  L 71.31 73.90
  Z"
/>
<path fill="#3a151d" d="
  M 75.17 73.49
  Q 76.11 74.46 76.17 75.22
  Q 76.49 80.20 74.96 84.74
  Q 74.78 85.27 74.43 84.83
  L 73.78 84.01
  Q 73.69 82.55 72.74 81.92
  Q 72.81 81.48 72.67 80.96
  Q 74.51 79.98 74.47 78.43
  Q 74.66 77.53 74.29 77.25
  Q 74.40 75.41 73.66 73.78
  Q 73.83 72.78 75.17 73.49
  Z"
/>
<path fill="#9e9a84" d="
  M 52.20 73.49
  Q 52.20 73.79 52.33 73.93
  Q 52.44 74.03 52.71 74.00
  Q 56.18 73.51 59.75 73.94
  A 0.82 0.80 -11.5 0 1 60.34 74.32
  L 61.47 76.20
  Q 61.93 76.97 62.28 76.14
  L 62.44 75.73
  L 62.48 77.22
  Q 60.49 77.30 58.82 78.49
  Q 58.39 78.79 57.87 78.73
  Q 55.49 78.48 53.85 79.86
  Q 53.29 78.60 52.27 78.22
  L 51.43 75.23
  Q 51.37 75.15 51.31 75.07
  L 52.20 73.49
  Z"
/>
<path fill="#fffffb" d="
  M 72.20 73.44
  Q 73.04 73.47 73.66 73.78
  Q 74.40 75.41 74.29 77.25
  Q 74.22 77.86 73.61 77.79
  Q 73.16 77.74 72.90 77.36
  Q 71.60 75.49 71.31 73.90
  Q 72.08 73.66 72.20 73.44
  Z"
/>
<path fill="#3a151d" d="
  M 45.96 73.71
  Q 44.25 78.90 43.00 82.75
  Q 42.84 83.25 43.27 83.72
  L 43.78 97.42
  Q 42.94 101.67 43.72 105.49
  Q 41.35 107.10 41.89 109.14
  Q 45.06 112.60 48.61 108.79
  L 51.99 108.45
  L 53.08 108.52
  Q 53.62 108.55 53.51 109.08
  Q 53.42 109.54 52.98 110.05
  L 50.01 110.41
  Q 49.42 110.73 48.32 110.79
  A 0.45 0.44 83.2 0 0 47.91 111.32
  C 49.76 120.23 55.84 126.60 63.11 133.97
  Q 63.45 134.31 63.77 133.95
  Q 63.98 133.70 64.10 133.17
  L 69.80 140.11
  Q 70.17 140.56 69.88 141.06
  L 63.95 151.12
  C 62.16 153.60 59.67 158.08 56.65 153.15
  Q 53.48 147.98 50.42 143.16
  Q 51.27 142.99 50.41 140.82
  Q 50.06 139.93 49.19 138.92
  C 46.35 135.66 46.71 133.00 45.50 129.61
  C 43.34 123.62 41.68 117.50 39.46 111.51
  Q 39.07 110.45 39.99 108.33
  A 0.65 0.64 28.2 0 0 39.74 107.52
  Q 38.48 106.74 38.36 105.20
  Q 37.53 94.57 36.81 83.94
  Q 36.75 83.10 35.00 81.39
  L 45.96 73.71
  Z"
/>
<path fill="#2c281c" d="
  M 63.00 75.06
  L 70.02 75.59
  A 1.18 1.18 0.0 0 1 71.01 77.25
  Q 70.38 78.63 72.11 79.75
  L 71.88 80.25
  Q 71.63 80.78 72.18 80.98
  Q 72.40 81.06 72.67 80.96
  Q 72.81 81.48 72.74 81.92
  L 71.53 82.49
  Q 67.75 82.76 64.23 81.81
  Q 63.38 81.58 62.73 82.33
  Q 62.18 82.15 61.50 82.31
  L 60.92 81.49
  C 61.31 80.16 63.22 78.60 62.48 77.22
  L 62.44 75.73
  Q 62.80 75.07 63.00 75.06
  Z"
/>
<path fill="#a69094" d="
  M 77.90 74.96
  C 77.89 78.09 77.21 80.88 76.89 83.97
  Q 76.74 85.38 75.26 85.86
  Q 74.80 86.01 74.50 86.40
  L 71.18 90.75
  Q 70.88 90.14 70.49 90.20
  Q 71.16 89.49 71.19 88.55
  Q 72.68 87.65 73.00 86.35
  Q 73.13 85.81 72.58 85.79
  Q 70.28 85.69 70.89 83.96
  Q 74.11 85.75 73.78 84.01
  L 74.43 84.83
  Q 74.78 85.27 74.96 84.74
  Q 76.49 80.20 76.17 75.22
  Q 76.86 75.31 77.90 74.96
  Z"
/>
<path fill="#5e5e4d" d="
  M 51.43 75.23
  L 52.27 78.22
  C 51.67 78.31 51.32 78.48 51.03 79.04
  Q 48.96 83.05 46.75 86.89
  A 0.19 0.18 53.1 0 1 46.41 86.84
  C 44.87 80.44 49.27 79.90 51.43 75.23
  Z"
/>
<path fill="#757f81" fill-opacity="0.498" d="
  M 10.84 88.44
  L 9.64 90.62
  Q 9.38 91.08 8.87 91.21
  Q 7.28 91.59 6.12 92.73
  Q 5.80 93.03 5.37 93.00
  L 4.57 92.94
  Q 4.07 92.90 3.87 93.36
  Q 3.61 93.92 3.71 94.78
  L 0.36 87.34
  A 1.26 1.24 47.9 0 1 0.41 86.23
  L 5.37 77.31
  A 0.62 0.62 0.0 0 1 6.49 77.38
  L 10.84 88.44
  Z"
/>
<path fill="#3a3a34" d="
  M 62.48 77.22
  C 63.22 78.60 61.31 80.16 60.92 81.49
  Q 57.19 80.29 53.76 81.09
  Q 53.51 81.63 52.97 81.44
  Q 53.82 80.72 53.85 79.86
  Q 55.49 78.48 57.87 78.73
  Q 58.39 78.79 58.82 78.49
  Q 60.49 77.30 62.48 77.22
  Z"
/>
<path fill="#547b7f" fill-opacity="0.502" d="
  M 110.55 92.05
  C 109.02 94.66 106.52 91.40 104.45 91.51
  Q 103.97 91.53 104.11 91.07
  Q 104.68 89.13 103.88 88.48
  L 107.99 77.55
  Q 108.22 76.92 108.53 77.52
  L 112.52 85.23
  A 1.21 1.19 41.8 0 1 112.58 86.19
  L 110.55 92.05
  Z"
/>
<path fill="#ccc6ae" d="
  M 74.47 78.43
  Q 74.51 79.98 72.67 80.96
  Q 72.40 81.06 72.18 80.98
  Q 71.63 80.78 71.88 80.25
  L 72.11 79.75
  L 74.47 78.43
  Z"
/>
<path fill="#9ccdd1" fill-opacity="0.996" d="
  M 60.92 81.49
  L 61.50 82.31
  Q 61.40 83.55 59.79 83.55
  Q 57.36 81.35 54.32 81.89
  Q 53.83 81.97 53.76 81.48
  Q 53.74 81.32 53.76 81.09
  Q 57.19 80.29 60.92 81.49
  Z"
/>
<path fill="#552c38" d="
  M 35.00 81.39
  Q 36.75 83.10 36.81 83.94
  Q 37.53 94.57 38.36 105.20
  Q 38.48 106.74 39.74 107.52
  A 0.65 0.64 28.2 0 1 39.99 108.33
  Q 39.07 110.45 39.46 111.51
  C 41.68 117.50 43.34 123.62 45.50 129.61
  C 46.71 133.00 46.35 135.66 49.19 138.92
  Q 50.06 139.93 50.41 140.82
  Q 51.27 142.99 50.42 143.16
  Q 33.88 117.42 21.97 89.54
  Q 25.05 90.03 25.94 89.19
  Q 30.53 84.84 35.00 81.39
  Z"
/>
<path fill="#9e9a84" d="
  M 53.76 81.09
  Q 53.74 81.32 53.76 81.48
  Q 53.83 81.97 54.32 81.89
  Q 57.36 81.35 59.79 83.55
  Q 58.23 88.14 53.04 85.61
  Q 52.56 85.38 52.55 84.85
  L 52.49 81.95
  Q 52.62 81.69 52.97 81.44
  Q 53.51 81.63 53.76 81.09
  Z"
/>
<path fill="#827f69" d="
  M 71.53 82.49
  L 70.89 83.96
  Q 70.28 85.69 72.58 85.79
  Q 73.13 85.81 73.00 86.35
  Q 72.68 87.65 71.19 88.55
  Q 70.01 87.52 70.28 85.77
  A 1.56 1.56 0.0 0 0 68.24 84.05
  Q 67.01 84.46 65.21 83.73
  Q 62.69 83.44 62.73 82.33
  Q 63.38 81.58 64.23 81.81
  Q 67.75 82.76 71.53 82.49
  Z"
/>
<path fill="#5e5e4d" d="
  M 52.49 81.95
  L 52.55 84.85
  Q 52.56 85.38 53.04 85.61
  Q 58.23 88.14 59.79 83.55
  Q 61.40 83.55 61.50 82.31
  Q 62.18 82.15 62.73 82.33
  Q 62.69 83.44 65.21 83.73
  Q 63.75 83.52 62.67 83.99
  Q 62.14 84.22 61.89 84.74
  L 60.16 88.38
  A 1.33 1.33 0.0 0 0 60.68 90.10
  Q 62.72 91.29 64.91 90.26
  A 0.58 0.58 0.0 0 1 65.74 90.74
  Q 65.83 92.05 64.76 92.03
  Q 61.82 91.96 59.72 93.03
  Q 59.54 92.97 59.44 92.79
  Q 60.68 89.97 57.71 89.49
  Q 54.31 89.35 51.33 90.89
  L 53.55 88.39
  A 0.63 0.62 -54.2 0 0 53.40 87.44
  L 52.14 86.69
  Q 51.47 86.30 51.12 86.99
  L 47.24 94.62
  A 0.12 0.12 0.0 0 1 47.02 94.57
  C 46.92 92.27 46.62 90.42 47.86 88.34
  Q 49.88 84.98 52.49 81.95
  Z"
/>
<path fill="#e8f5f3" fill-opacity="0.996" d="
  M 72.74 81.92
  Q 73.69 82.55 73.78 84.01
  Q 74.11 85.75 70.89 83.96
  L 71.53 82.49
  L 72.74 81.92
  Z"
/>
<path fill="#ccc6ae" d="
  M 44.67 83.52
  L 45.47 96.36
  Q 45.21 97.74 44.43 98.42
  Q 44.07 98.73 43.78 97.42
  L 43.27 83.72
  Q 43.50 84.10 43.52 84.73
  Q 43.57 86.09 43.74 84.74
  Q 43.79 84.34 43.80 83.95
  Q 43.80 83.47 44.28 83.49
  L 44.67 83.52
  Z"
/>
<path fill="#a0bdbe" fill-opacity="0.741" d="
  M 10.84 88.44
  Q 11.50 89.40 11.69 90.42
  L 10.99 93.41
  Q 10.89 93.84 10.47 94.00
  L 6.59 95.53
  Q 6.46 95.58 6.36 95.49
  L 6.05 95.17
  A 0.41 0.41 0.0 0 0 5.44 95.20
  Q 4.73 96.03 4.68 97.02
  L 3.71 94.78
  Q 3.61 93.92 3.87 93.36
  Q 4.07 92.90 4.57 92.94
  L 5.37 93.00
  Q 5.80 93.03 6.12 92.73
  Q 7.28 91.59 8.87 91.21
  Q 9.38 91.08 9.64 90.62
  L 10.84 88.44
  Z"
/>
<path fill="#90cbcc" fill-opacity="0.824" d="
  M 110.55 92.05
  L 109.00 96.16
  Q 107.98 96.83 107.14 97.65
  Q 106.47 98.30 106.00 98.42
  Q 105.01 98.67 104.51 97.69
  Q 104.31 97.29 103.86 97.28
  L 102.73 97.24
  A 0.54 0.54 0.0 0 1 102.23 96.55
  Q 102.94 94.17 102.14 92.50
  L 103.88 88.48
  Q 104.68 89.13 104.11 91.07
  Q 103.97 91.53 104.45 91.51
  C 106.52 91.40 109.02 94.66 110.55 92.05
  Z"
/>
<path fill="#827f69" d="
  M 57.71 89.49
  Q 57.03 92.49 59.44 92.79
  Q 59.54 92.97 59.72 93.03
  Q 59.33 94.56 58.42 95.69
  Q 58.08 96.12 57.54 96.00
  Q 54.42 95.28 51.29 96.00
  Q 50.72 96.14 50.72 96.73
  Q 50.72 98.92 49.29 100.46
  A 0.63 0.62 71.2 0 0 49.13 100.79
  L 48.89 102.58
  A 0.43 0.43 0.0 0 1 48.04 102.58
  L 47.40 97.39
  Q 47.34 96.88 47.62 96.45
  L 51.33 90.89
  Q 54.31 89.35 57.71 89.49
  Z"
/>
<path fill="#fffffb" d="
  M 57.71 89.49
  Q 60.68 89.97 59.44 92.79
  Q 57.03 92.49 57.71 89.49
  Z"
/>
<path fill="#ccc6ae" d="
  M 70.49 90.20
  Q 70.88 90.14 71.18 90.75
  L 71.30 91.75
  L 70.69 92.49
  L 69.87 92.45
  A 0.65 0.65 0.0 0 1 69.26 91.87
  Q 69.09 90.50 70.49 90.20
  Z"
/>
<path fill="#c4d3d3" fill-opacity="0.827" d="
  M 11.69 90.42
  Q 12.18 90.95 12.21 91.64
  Q 11.71 94.30 12.41 96.78
  Q 12.53 97.21 12.16 97.48
  Q 8.82 99.90 7.11 97.76
  Q 6.77 96.69 5.82 96.73
  Q 5.33 96.75 5.26 97.23
  L 5.17 97.76
  Q 4.76 97.53 4.68 97.02
  Q 4.73 96.03 5.44 95.20
  A 0.41 0.41 0.0 0 1 6.05 95.17
  L 6.36 95.49
  Q 6.46 95.58 6.59 95.53
  L 10.47 94.00
  Q 10.89 93.84 10.99 93.41
  L 11.69 90.42
  Z"
/>
<path fill="#e7e7e8" fill-opacity="0.914" d="
  M 12.21 91.64
  Q 12.62 92.60 12.85 92.62
  C 11.98 93.66 12.02 95.09 12.76 96.33
  Q 15.55 101.03 12.60 105.62
  Q 12.27 106.15 11.94 105.62
  L 7.11 97.76
  Q 8.82 99.90 12.16 97.48
  Q 12.53 97.21 12.41 96.78
  Q 11.71 94.30 12.21 91.64
  Z"
/>
<path fill="#a66c25" d="
  M 71.30 91.75
  Q 72.15 91.73 72.72 93.11
  L 73.32 94.16
  Q 72.93 94.47 72.79 94.79
  Q 72.53 95.39 72.74 95.68
  Q 76.91 101.40 83.05 105.76
  L 82.19 106.80
  C 75.40 104.82 67.22 106.52 60.23 106.99
  Q 63.96 106.64 66.98 104.67
  Q 67.39 104.40 67.42 103.91
  C 67.72 98.84 59.80 98.94 56.44 100.35
  L 52.20 100.69
  L 55.83 99.86
  Q 56.32 99.75 56.60 99.33
  Q 57.75 97.63 59.70 98.17
  Q 60.19 98.31 60.66 98.10
  C 62.90 97.11 71.60 96.17 70.69 92.49
  L 71.30 91.75
  Z"
/>
<path fill="#fffffb" d="
  M 12.85 92.62
  L 31.89 129.96
  Q 32.16 130.62 30.59 129.92
  L 19.51 110.36
  Q 19.17 109.76 18.83 110.36
  L 14.62 117.82
  Q 9.08 107.81 5.17 97.76
  L 5.26 97.23
  Q 5.33 96.75 5.82 96.73
  Q 6.77 96.69 7.11 97.76
  L 11.94 105.62
  Q 12.27 106.15 12.60 105.62
  Q 15.55 101.03 12.76 96.33
  C 12.02 95.09 11.98 93.66 12.85 92.62
  Z"
/>
<path fill="#c8e5e5" fill-opacity="0.925" d="
  M 102.14 92.50
  Q 102.94 94.17 102.23 96.55
  A 0.54 0.54 0.0 0 0 102.73 97.24
  L 103.86 97.28
  Q 104.31 97.29 104.51 97.69
  Q 105.01 98.67 106.00 98.42
  Q 106.47 98.30 107.14 97.65
  Q 107.98 96.83 109.00 96.16
  L 107.29 100.13
  Q 104.69 101.04 103.72 104.34
  A 1.35 1.34 -34.2 0 1 101.09 103.84
  Q 101.18 102.86 100.60 101.38
  Q 100.43 100.94 100.55 100.47
  L 101.80 95.54
  Q 101.90 95.12 101.50 95.29
  Q 101.01 95.49 100.68 95.45
  L 102.14 92.50
  Z"
/>
<path fill="#aae8f3" d="
  M 95.37 93.95
  Q 95.49 94.71 96.82 94.73
  Q 82.72 127.82 63.38 157.62
  Q 62.31 157.75 62.43 156.34
  L 63.76 154.13
  Q 82.32 125.42 95.37 93.95
  Z"
/>
<path fill="#d5a943" d="
  M 73.32 94.16
  C 76.16 97.69 78.70 101.28 82.83 103.41
  A 1.24 1.24 0.0 0 1 83.44 104.12
  Q 83.78 105.12 83.05 105.76
  Q 76.91 101.40 72.74 95.68
  Q 72.53 95.39 72.79 94.79
  Q 72.93 94.47 73.32 94.16
  Z"
/>
<path fill="#e8f5f3" fill-opacity="0.996" d="
  M 107.29 100.13
  Q 104.49 108.45 100.59 115.37
  L 97.19 108.46
  Q 96.89 107.86 96.58 108.45
  L 85.02 130.27
  L 84.44 129.69
  L 100.68 95.45
  Q 101.01 95.49 101.50 95.29
  Q 101.90 95.12 101.80 95.54
  L 100.55 100.47
  Q 100.43 100.94 100.60 101.38
  Q 101.18 102.86 101.09 103.84
  A 1.35 1.34 -34.2 0 0 103.72 104.34
  Q 104.69 101.04 107.29 100.13
  Z"
/>
<path fill="#9e9a84" d="
  M 45.47 96.36
  Q 47.57 100.18 46.70 104.68
  Q 45.40 103.34 44.99 103.97
  Q 44.61 104.55 44.77 105.45
  L 43.72 105.49
  Q 42.94 101.67 43.78 97.42
  Q 44.07 98.73 44.43 98.42
  Q 45.21 97.74 45.47 96.36
  Z"
/>
<path fill="#d5a943" d="
  M 60.23 106.99
  L 53.27 107.87
  L 47.49 107.50
  Q 48.46 107.04 49.04 105.83
  L 55.72 104.82
  Q 56.21 104.74 56.55 104.38
  Q 57.10 103.78 57.01 103.08
  Q 58.14 100.11 56.44 100.35
  C 59.80 98.94 67.72 98.84 67.42 103.91
  Q 67.39 104.40 66.98 104.67
  Q 63.96 106.64 60.23 106.99
  Z"
/>
<path fill="#e6c959" d="
  M 56.44 100.35
  Q 58.14 100.11 57.01 103.08
  Q 57.14 101.84 56.79 101.34
  A 0.70 0.70 0.0 0 0 55.87 101.12
  Q 53.14 102.58 50.49 102.27
  Q 50.95 101.00 52.20 100.69
  L 56.44 100.35
  Z"
/>
<path fill="#fffffb" d="
  M 57.01 103.08
  Q 57.10 103.78 56.55 104.38
  Q 56.21 104.74 55.72 104.82
  L 49.04 105.83
  Q 47.75 106.49 47.70 104.98
  L 50.49 102.27
  Q 53.14 102.58 55.87 101.12
  A 0.70 0.70 0.0 0 1 56.79 101.34
  Q 57.14 101.84 57.01 103.08
  Z"
/>
<path fill="#503a18" d="
  M 46.70 104.68
  Q 46.78 104.70 46.75 105.24
  Q 45.94 105.69 44.77 105.45
  Q 44.61 104.55 44.99 103.97
  Q 45.40 103.34 46.70 104.68
  Z"
/>
<path fill="#fffb6d" d="
  M 47.70 104.98
  Q 47.75 106.49 49.04 105.83
  Q 48.46 107.04 47.49 107.50
  Q 45.39 107.28 44.00 108.27
  L 41.89 109.14
  Q 41.35 107.10 43.72 105.49
  L 44.77 105.45
  Q 45.94 105.69 46.75 105.24
  L 47.70 104.98
  Z"
/>
<path fill="#511c06" d="
  M 82.19 106.80
  Q 83.20 106.50 82.26 108.09
  Q 81.97 108.57 81.41 108.50
  L 77.09 108.00
  Q 73.91 108.60 69.75 109.27
  Q 61.42 110.61 52.98 110.05
  Q 53.42 109.54 53.51 109.08
  Q 53.62 108.55 53.08 108.52
  L 51.99 108.45
  Q 51.75 107.99 53.27 107.87
  L 60.23 106.99
  C 67.22 106.52 75.40 104.82 82.19 106.80
  Z"
/>
<path fill="#947a10" fill-opacity="0.996" d="
  M 53.27 107.87
  Q 51.75 107.99 51.99 108.45
  L 48.61 108.79
  Q 47.53 108.92 47.73 108.01
  Q 47.61 107.76 47.49 107.50
  L 53.27 107.87
  Z"
/>
<path fill="#000000" d="
  M 47.49 107.50
  Q 47.61 107.76 47.73 108.01
  L 44.34 109.13
  Q 43.99 109.24 44.00 108.88
  L 44.00 108.27
  Q 45.39 107.28 47.49 107.50
  Z"
/>
<path fill="#74490a" fill-opacity="0.996" d="
  M 47.73 108.01
  Q 47.53 108.92 48.61 108.79
  Q 45.06 112.60 41.89 109.14
  L 44.00 108.27
  L 44.00 108.88
  Q 43.99 109.24 44.34 109.13
  L 47.73 108.01
  Z"
/>
<path fill="#26211c" d="
  M 77.09 108.00
  Q 80.52 111.08 84.71 112.78
  Q 79.30 125.95 71.69 137.95
  Q 71.39 138.42 70.85 138.32
  C 68.37 137.85 67.84 135.79 66.60 134.37
  Q 60.79 127.70 54.86 121.15
  C 52.32 118.35 51.89 115.51 51.42 111.97
  Q 51.35 111.46 50.85 111.60
  L 50.24 111.78
  Q 50.60 111.37 50.67 111.06
  Q 50.74 110.81 50.50 110.62
  Q 50.29 110.47 50.01 110.41
  L 52.98 110.05
  Q 61.42 110.61 69.75 109.27
  Q 73.91 108.60 77.09 108.00
  Z
  M 73.34 124.43
  A 2.49 1.68 78.4 0 1 71.68 122.80
  Q 70.73 120.07 68.02 119.24
  Q 67.58 119.10 67.29 118.73
  Q 65.61 116.53 63.05 117.49
  Q 62.60 117.66 62.48 118.13
  C 60.82 124.93 68.53 126.85 73.37 126.57
  A 0.96 0.96 0.0 0 0 74.16 125.16
  Q 73.78 124.47 73.34 124.43
  Z"
/>
<path fill="#3c3c3c" fill-opacity="0.247" d="
  M 100.59 115.37
  Q 93.37 131.33 84.22 147.28
  A 1.57 1.56 -76.2 0 1 82.94 148.06
  L 75.11 148.45
  A 0.44 0.44 0.0 0 1 74.70 147.79
  L 81.33 136.08
  Q 83.72 134.04 85.02 130.27
  L 96.58 108.45
  Q 96.89 107.86 97.19 108.46
  L 100.59 115.37
  Z"
/>
<path fill="#3c3c3c" fill-opacity="0.247" d="
  M 30.59 129.92
  Q 33.18 136.16 37.86 140.35
  L 43.13 149.67
  Q 43.40 150.14 42.86 150.22
  C 40.25 150.57 34.28 151.76 32.73 149.34
  Q 22.72 133.70 14.62 117.82
  L 18.83 110.36
  Q 19.17 109.76 19.51 110.36
  L 30.59 129.92
  Z"
/>
<path fill="#3a3a34" d="
  M 50.01 110.41
  Q 50.29 110.47 50.50 110.62
  Q 50.74 110.81 50.67 111.06
  Q 50.60 111.37 50.24 111.78
  Q 50.30 112.09 50.19 112.39
  Q 50.02 112.84 50.16 113.30
  C 51.19 116.62 51.61 119.49 54.17 122.11
  Q 59.39 127.45 64.10 133.17
  Q 63.98 133.70 63.77 133.95
  Q 63.45 134.31 63.11 133.97
  C 55.84 126.60 49.76 120.23 47.91 111.32
  A 0.45 0.44 83.2 0 1 48.32 110.79
  Q 49.42 110.73 50.01 110.41
  Z"
/>
<path fill="#3a3a34" d="
  M 73.34 124.43
  Q 73.78 124.47 74.16 125.16
  A 0.96 0.96 0.0 0 1 73.37 126.57
  C 68.53 126.85 60.82 124.93 62.48 118.13
  Q 62.60 117.66 63.05 117.49
  Q 65.61 116.53 67.29 118.73
  Q 67.58 119.10 68.02 119.24
  Q 70.73 120.07 71.68 122.80
  A 2.49 1.68 78.4 0 0 73.34 124.43
  Z"
/>
<path fill="#9ccdd1" fill-opacity="0.996" d="
  M 32.33 119.40
  Q 43.01 138.55 55.31 156.69
  Q 56.28 158.12 58.87 160.65
  C 57.95 160.91 57.29 160.75 56.70 159.95
  Q 42.73 140.95 31.56 120.27
  Q 31.75 120.45 32.33 119.40
  Z"
/>
<path fill="#547b7f" fill-opacity="0.502" d="
  M 84.44 129.69
  L 85.02 130.27
  Q 83.72 134.04 81.33 136.08
  L 84.44 129.69
  Z"
/>
<path fill="#547b7f" fill-opacity="0.502" d="
  M 30.59 129.92
  Q 32.16 130.62 31.89 129.96
  L 37.86 140.35
  Q 33.18 136.16 30.59 129.92
  Z"
/>
<path fill="#7b8e95" d="
  M 62.43 156.34
  Q 62.31 157.75 63.38 157.62
  Q 57.20 159.81 58.23 156.99
  L 62.43 156.34
  Z"
/>
</svg>
