<?xml version="1.0" encoding="UTF-8" standalone="no"?>
<!DOCTYPE svg PUBLIC "-//W3C//DTD SVG 1.1//EN" "http://www.w3.org/Graphics/SVG/1.1/DTD/svg11.dtd">
<svg xmlns="http://www.w3.org/2000/svg" version="1.1" viewBox="0.00 0.00 64.00 64.00">
<g stroke-width="5.00" fill="none" stroke-linecap="butt">
<path stroke="#5b5a57" vector-effect="non-scaling-stroke" d="
  M 0.75 42.73
  L 1.09 62.07"
/>
<path stroke="#393835" vector-effect="non-scaling-stroke" d="
  M 1.09 62.07
  L 1.38 62.47
  A 1.14 1.11 71.3 0 0 2.28 62.93
  L 62.00 63.03
  Q 62.72 63.03 62.73 62.30
  L 62.90 30.96"
/>
<path stroke="#484744" vector-effect="non-scaling-stroke" d="
  M 62.90 30.96
  Q 63.12 17.66 62.94 4.28
  C 62.93 3.64 62.62 3.11 62.46 2.50"
/>
<path stroke="#706f6c" vector-effect="non-scaling-stroke" d="
  M 62.46 2.50
  Q 63.01 1.67 62.65 1.10
  A 0.67 0.67 0.0 0 0 62.10 0.81
  L 1.39 1.01
  A 0.43 0.43 0.0 0 0 0.96 1.44
  L 0.75 42.73"
/>
<path stroke="#ababad" vector-effect="non-scaling-stroke" d="
  M 62.46 2.50
  L 61.09 3.01"
/>
<path stroke="#6e766e" vector-effect="non-scaling-stroke" d="
  M 61.09 3.01
  L 45.77 3.07"
/>
<path stroke="#85887a" vector-effect="non-scaling-stroke" d="
  M 45.77 3.07
  L 24.97 3.17"
/>
<path stroke="#6b706c" vector-effect="non-scaling-stroke" d="
  M 24.97 3.17
  L 3.78 3.23
  Q 3.22 3.23 3.21 3.79
  L 2.92 42.74"
/>
<path stroke="#bebec0" vector-effect="non-scaling-stroke" d="
  M 2.92 42.74
  Q 2.76 43.02 2.73 43.53
  Q 2.70 44.03 2.20 44.00
  Q 1.22 43.95 0.75 42.73"
/>
<path stroke="#747476" vector-effect="non-scaling-stroke" d="
  M 62.90 30.96
  Q 62.35 31.39 61.80 31.51
  A 0.45 0.44 84.5 0 1 61.26 31.06
  Q 61.30 30.25 61.01 29.73"
/>
<path stroke="#454e46" vector-effect="non-scaling-stroke" d="
  M 61.01 29.73
  L 61.09 3.01"
/>
<path stroke="#202b13" vector-effect="non-scaling-stroke" d="
  M 45.77 3.07
  Q 42.02 3.39 38.25 3.23
  Q 36.90 3.18 36.94 4.29"
/>
<path stroke="#564d2e" vector-effect="non-scaling-stroke" d="
  M 36.94 4.29
  L 28.28 4.11"
/>
<path stroke="#1d2511" vector-effect="non-scaling-stroke" d="
  M 28.28 4.11
  Q 29.22 2.98 24.97 3.17"
/>
<path stroke="#3c3520" vector-effect="non-scaling-stroke" d="
  M 28.28 4.11
  L 26.96 5.16"
/>
<path stroke="#607736" vector-effect="non-scaling-stroke" d="
  M 26.96 5.16
  L 23.98 6.71"
/>
<path stroke="#405224" vector-effect="non-scaling-stroke" d="
  M 23.98 6.71
  Q 21.49 7.20 20.04 9.76"
/>
<path stroke="#607736" vector-effect="non-scaling-stroke" d="
  M 20.04 9.76
  Q 18.45 10.24 17.65 11.67
  A 0.17 0.17 0.0 0 1 17.33 11.54
  Q 18.32 8.09 20.96 5.86
  Q 21.67 5.26 20.74 5.25
  C 17.00 5.23 16.72 9.09 15.26 11.72"
/>
<path stroke="#032e07" vector-effect="non-scaling-stroke" d="
  M 15.26 11.72
  Q 14.33 12.10 13.50 11.98"
/>
<path stroke="#668229" vector-effect="non-scaling-stroke" d="
  M 13.50 11.98
  Q 13.38 11.50 12.51 11.40"
/>
<path stroke="#032e07" vector-effect="non-scaling-stroke" d="
  M 12.51 11.40
  Q 11.61 10.15 9.97 10.21
  Q 9.51 10.23 9.19 10.55
  L 7.70 11.99
  Q 7.31 12.37 6.78 12.28
  Q 5.96 12.14 5.89 12.93
  Q 5.32 19.63 5.56 31.32"
/>
<path stroke="#084a0e" vector-effect="non-scaling-stroke" d="
  M 5.56 31.32
  Q 3.68 35.09 4.73 40.59"
/>
<path stroke="#43651c" vector-effect="non-scaling-stroke" d="
  M 4.73 40.59
  Q 4.09 41.77 4.20 44.18"
/>
<path stroke="#030803" vector-effect="non-scaling-stroke" d="
  M 4.20 44.18
  Q 3.80 43.54 2.96 43.77"
/>
<path stroke="#565b57" vector-effect="non-scaling-stroke" d="
  M 2.96 43.77
  Q 3.09 43.23 2.92 42.74"
/>
<path stroke="#373f37" vector-effect="non-scaling-stroke" d="
  M 61.01 29.73
  L 60.94 52.14
  Q 60.94 52.59 60.73 52.99
  Q 60.59 53.25 60.58 53.53"
/>
<path stroke="#060e05" vector-effect="non-scaling-stroke" d="
  M 60.58 53.53
  Q 59.73 52.77 59.42 52.02"
/>
<path stroke="#202b13" vector-effect="non-scaling-stroke" d="
  M 59.42 52.02
  Q 60.35 50.73 59.54 50.22
  Q 58.07 49.30 57.44 50.23"
/>
<path stroke="#060e05" vector-effect="non-scaling-stroke" d="
  M 57.44 50.23
  Q 57.02 49.76 56.97 49.26
  Q 56.92 48.79 57.30 48.51
  Q 57.89 48.07 58.23 48.35
  Q 58.89 48.89 59.18 48.09
  L 59.47 47.28"
/>
<path stroke="#425826" vector-effect="non-scaling-stroke" d="
  M 59.47 47.28
  L 59.72 45.27
  A 1.46 1.46 0.0 0 0 59.50 44.29
  Q 58.40 42.61 58.79 40.54
  Q 58.87 40.11 58.44 40.03
  Q 58.01 39.95 57.81 39.73"
/>
<path stroke="#738c4f" vector-effect="non-scaling-stroke" d="
  M 57.81 39.73
  L 57.71 37.90"
/>
<path stroke="#69882b" vector-effect="non-scaling-stroke" d="
  M 57.71 37.90
  L 58.79 32.49"
/>
<path stroke="#2c3a22" vector-effect="non-scaling-stroke" d="
  M 58.79 32.49
  L 59.45 32.14
  A 0.52 0.52 0.0 0 0 59.02 31.19
  Q 58.90 31.23 58.75 31.31"
/>
<path stroke="#05420a" vector-effect="non-scaling-stroke" d="
  M 58.75 31.31
  Q 58.05 31.36 57.74 30.78
  A 0.99 0.98 43.3 0 1 57.71 29.91
  Q 59.19 26.70 57.30 23.91
  C 54.87 20.35 56.01 18.34 58.50 15.42
  A 0.22 0.22 0.0 0 0 58.17 15.13
  Q 57.19 16.15 56.35 15.54"
/>
<path stroke="#69882b" vector-effect="non-scaling-stroke" d="
  M 56.35 15.54
  Q 56.27 14.21 58.09 13.21"
/>
<path stroke="#202b13" vector-effect="non-scaling-stroke" d="
  M 58.09 13.21
  Q 59.35 12.85 59.82 11.75
  Q 60.08 11.16 59.45 11.31
  L 58.36 11.59"
/>
<path stroke="#69882b" vector-effect="non-scaling-stroke" d="
  M 58.36 11.59
  Q 58.05 11.19 57.68 11.14
  Q 57.16 11.07 57.01 11.57
  L 56.71 12.54
  Q 56.57 12.96 56.20 13.20
  Q 55.02 13.94 54.60 15.24
  Q 54.47 15.66 54.16 15.96
  L 51.95 18.17
  A 1.24 1.23 44.8 0 1 50.20 18.17
  Q 49.00 16.97 49.89 15.89
  Q 50.22 15.47 50.01 14.98
  Q 49.42 13.60 50.84 12.58
  Q 53.41 10.73 53.68 7.81"
/>
<path stroke="#425826" vector-effect="non-scaling-stroke" d="
  M 53.68 7.81
  L 53.85 4.57
  Q 53.89 3.73 53.32 4.35
  Q 52.77 4.94 52.56 6.51"
/>
<path stroke="#69882b" vector-effect="non-scaling-stroke" d="
  M 52.56 6.51
  L 51.45 7.74"
/>
<path stroke="#466b1e" vector-effect="non-scaling-stroke" d="
  M 51.45 7.74
  Q 49.75 7.96 48.20 7.06
  Q 47.79 6.83 47.32 6.87
  L 43.40 7.27"
/>
<path stroke="#738c4f" vector-effect="non-scaling-stroke" d="
  M 43.40 7.27
  L 38.06 4.64"
/>
<path stroke="#3f3b22" vector-effect="non-scaling-stroke" d="
  M 38.06 4.64
  Q 37.17 4.50 36.94 4.29"
/>
<path stroke="#505d24" vector-effect="non-scaling-stroke" d="
  M 42.07 19.32
  C 45.38 26.65 45.96 34.01 48.58 41.39
  C 49.97 45.30 52.04 50.41 50.50 53.47"
/>
<path stroke="#1d2011" vector-effect="non-scaling-stroke" d="
  M 50.50 53.47
  L 48.99 54.58
  Q 48.56 54.91 48.14 54.56
  Q 43.59 50.81 41.19 49.06
  Q 40.95 48.88 40.77 48.95
  Q 40.35 49.10 40.67 49.41
  C 42.23 50.92 49.71 59.87 51.49 54.03"
/>
<path stroke="#505d24" vector-effect="non-scaling-stroke" d="
  M 51.49 54.03
  L 52.41 50.07"
/>
<path stroke="#1d3112" vector-effect="non-scaling-stroke" d="
  M 52.41 50.07
  Q 54.02 47.98 54.06 44.85
  Q 54.07 44.43 54.43 44.20
  L 54.69 44.04"
/>
<path stroke="#71814d" vector-effect="non-scaling-stroke" d="
  M 54.69 44.04
  L 57.27 45.29"
/>
<path stroke="#404d24" vector-effect="non-scaling-stroke" d="
  M 57.27 45.29
  Q 56.62 46.54 57.78 46.90
  Q 58.60 47.16 59.47 47.28"
/>
<path stroke="#1d2011" vector-effect="non-scaling-stroke" d="
  M 57.44 50.23
  Q 57.98 52.13 59.42 52.02"
/>
<path stroke="#343435" vector-effect="non-scaling-stroke" d="
  M 60.58 53.53
  L 61.15 61.15
  Q 61.18 61.58 60.77 61.46
  Q 58.34 60.76 55.75 60.75
  Q 29.20 60.56 2.82 60.99"
/>
<path stroke="#565657" vector-effect="non-scaling-stroke" d="
  M 2.82 60.99
  L 2.96 43.77"
/>
<path stroke="#43611c" vector-effect="non-scaling-stroke" d="
  M 4.20 44.18
  Q 3.80 50.73 6.23 48.45"
/>
<path stroke="#1d2011" vector-effect="non-scaling-stroke" d="
  M 6.23 48.45
  Q 7.64 48.56 8.44 47.84
  Q 8.87 47.45 8.74 47.04
  Q 8.60 46.58 7.78 46.50"
/>
<path stroke="#43611c" vector-effect="non-scaling-stroke" d="
  M 7.78 46.50
  Q 7.84 45.98 7.41 45.41"
/>
<path stroke="#71814d" vector-effect="non-scaling-stroke" d="
  M 7.41 45.41
  Q 9.67 44.77 10.20 43.35"
/>
<path stroke="#1d2011" vector-effect="non-scaling-stroke" d="
  M 10.20 43.35
  Q 10.75 43.16 11.02 43.25
  Q 11.28 43.34 11.17 43.84
  Q 10.69 46.21 11.69 48.03"
/>
<path stroke="#404d24" vector-effect="non-scaling-stroke" d="
  M 11.69 48.03
  L 13.22 54.28
  A 2.34 2.06 83.8 0 0 15.14 56.04
  Q 15.40 56.06 15.52 55.40"
/>
<path stroke="#1d2011" vector-effect="non-scaling-stroke" d="
  M 15.52 55.40
  Q 21.32 54.58 24.62 50.13
  A 0.29 0.29 0.0 0 0 24.24 49.70
  L 15.10 54.74"
/>
<path stroke="#404d24" vector-effect="non-scaling-stroke" d="
  M 15.10 54.74
  C 12.53 52.39 14.54 46.29 15.34 43.48"
/>
<path stroke="#1d2011" vector-effect="non-scaling-stroke" d="
  M 15.34 43.48
  C 16.70 38.13 18.77 33.75 19.28 27.43"
/>
<path stroke="#3c3020" vector-effect="non-scaling-stroke" d="
  M 19.28 27.43
  C 20.67 25.20 19.91 23.14 21.77 21.01"
/>
<path stroke="#242439" vector-effect="non-scaling-stroke" d="
  M 21.77 21.01
  Q 23.08 20.54 23.21 18.73"
/>
<path stroke="#607336" vector-effect="non-scaling-stroke" d="
  M 23.21 18.73
  L 24.05 17.52"
/>
<path stroke="#6b6b6c" vector-effect="non-scaling-stroke" d="
  M 24.05 17.52
  L 25.73 15.19"
/>
<path stroke="#878789" vector-effect="non-scaling-stroke" d="
  M 1.09 62.07
  L 2.82 60.99"
/>
<path stroke="#aaae6a" vector-effect="non-scaling-stroke" d="
  M 38.06 4.64
  L 37.44 4.77
  Q 36.88 4.89 37.21 5.36
  L 37.48 5.76"
/>
<path stroke="#5d5156" vector-effect="non-scaling-stroke" d="
  M 37.48 5.76
  Q 36.50 5.63 36.50 6.01"
/>
<path stroke="#ab9568" vector-effect="non-scaling-stroke" d="
  M 36.50 6.01
  Q 35.44 5.68 35.03 5.81
  A 0.27 0.27 0.0 0 0 34.96 6.29
  Q 40.92 10.58 45.77 16.68"
/>
<path stroke="#5d5156" vector-effect="non-scaling-stroke" d="
  M 45.77 16.68
  L 46.94 19.55"
/>
<path stroke="#4a3a27" vector-effect="non-scaling-stroke" d="
  M 46.94 19.55
  Q 47.04 19.77 46.90 19.99
  Q 46.66 20.36 46.31 20.08
  L 44.27 18.45"
/>
<path stroke="#896e43" vector-effect="non-scaling-stroke" d="
  M 44.27 18.45
  Q 43.55 14.29 40.09 11.86
  Q 39.54 11.48 39.78 12.10
  Q 40.25 13.36 41.56 14.48"
/>
<path stroke="#4a3a27" vector-effect="non-scaling-stroke" d="
  M 41.56 14.48
  Q 40.64 14.37 40.67 15.04"
/>
<path stroke="#aaae6a" vector-effect="non-scaling-stroke" d="
  M 40.67 15.04
  L 32.77 7.64"
/>
<path stroke="#baae9e" vector-effect="non-scaling-stroke" d="
  M 32.77 7.64
  Q 33.40 6.12 32.50 5.75
  Q 31.13 5.19 29.59 6.82"
/>
<path stroke="#7c7061" vector-effect="non-scaling-stroke" d="
  M 29.59 6.82
  L 29.26 6.29"
/>
<path stroke="#5d5156" vector-effect="non-scaling-stroke" d="
  M 29.26 6.29
  Q 29.57 6.06 29.60 5.92
  A 1.02 1.01 -2.6 0 0 28.28 4.72
  Q 27.73 4.92 27.70 5.53"
/>
<path stroke="#7c7061" vector-effect="non-scaling-stroke" d="
  M 27.70 5.53
  Q 27.61 5.50 27.52 5.47"
/>
<path stroke="#99a053" vector-effect="non-scaling-stroke" d="
  M 27.52 5.47
  Q 27.54 5.29 26.96 5.16"
/>
<path stroke="#9dbd57" vector-effect="non-scaling-stroke" d="
  M 20.04 9.76
  Q 22.19 9.99 23.98 6.71"
/>
<path stroke="#a0b377" vector-effect="non-scaling-stroke" d="
  M 27.52 5.47
  L 21.18 11.09
  Q 20.71 11.50 21.23 11.86
  L 21.55 12.08"
/>
<path stroke="#cfd77e" vector-effect="non-scaling-stroke" d="
  M 21.55 12.08
  Q 21.46 12.27 22.30 12.30"
/>
<path stroke="#7a9044" vector-effect="non-scaling-stroke" d="
  M 22.30 12.30
  C 19.84 13.50 18.02 18.96 16.89 21.69"
/>
<path stroke="#879f53" vector-effect="non-scaling-stroke" d="
  M 16.89 21.69
  Q 16.45 20.07 17.37 17.84
  C 18.26 15.69 18.38 13.48 19.73 11.48
  Q 20.14 10.88 19.50 11.23
  Q 18.40 11.84 17.86 13.28"
/>
<path stroke="#cef180" vector-effect="non-scaling-stroke" d="
  M 17.86 13.28
  Q 17.62 11.93 16.23 12.67
  Q 15.79 12.90 15.75 13.39
  Q 15.68 14.36 15.95 14.86"
/>
<path stroke="#a0d04f" vector-effect="non-scaling-stroke" d="
  M 15.95 14.86
  Q 14.52 16.36 12.81 16.84"
/>
<path stroke="#60993a" vector-effect="non-scaling-stroke" d="
  M 12.81 16.84
  L 15.26 11.72"
/>
<path stroke="#66a32d" vector-effect="non-scaling-stroke" d="
  M 12.51 11.40
  Q 11.06 12.20 11.05 13.79
  A 0.71 0.71 0.0 0 0 12.27 14.29
  Q 13.07 13.49 13.50 11.98"
/>
<path stroke="#438720" vector-effect="non-scaling-stroke" d="
  M 12.81 16.84
  Q 12.46 17.08 12.48 17.64
  Q 12.50 18.09 12.87 18.32
  L 13.36 18.63"
/>
<path stroke="#70a751" vector-effect="non-scaling-stroke" d="
  M 13.36 18.63
  Q 13.88 20.38 12.37 22.27"
/>
<path stroke="#086c11" vector-effect="non-scaling-stroke" d="
  M 12.37 22.27
  L 9.89 24.59
  Q 9.52 24.94 9.03 25.03
  Q 8.12 25.19 8.00 26.15
  Q 7.92 26.71 7.52 27.12
  Q 5.99 28.69 5.56 31.32"
/>
<path stroke="#48a327" vector-effect="non-scaling-stroke" d="
  M 9.77 31.79
  Q 6.78 35.01 4.73 40.59"
/>
<path stroke="#5d7e2a" vector-effect="non-scaling-stroke" d="
  M 7.78 46.50
  L 6.23 48.45"
/>
<path stroke="#48a327" vector-effect="non-scaling-stroke" d="
  M 51.52 8.59
  Q 47.03 10.09 48.94 11.58"
/>
<path stroke="#d4fb73" vector-effect="non-scaling-stroke" d="
  M 54.62 32.46
  L 57.71 37.90"
/>
<path stroke="#adcb6e" vector-effect="non-scaling-stroke" d="
  M 57.81 39.73
  C 56.87 42.23 58.68 44.02 58.52 44.61
  Q 58.39 45.11 57.27 45.29"
/>
<path stroke="#8baf5c" vector-effect="non-scaling-stroke" d="
  M 54.69 44.04
  L 54.85 43.04"
/>
<path stroke="#bedb6e" vector-effect="non-scaling-stroke" d="
  M 54.85 43.04
  Q 56.01 41.19 55.44 38.47"
/>
<path stroke="#809a37" vector-effect="non-scaling-stroke" d="
  M 58.36 11.59
  Q 57.14 12.32 58.09 13.21"
/>
<path stroke="#66b12e" vector-effect="non-scaling-stroke" d="
  M 56.35 15.54
  Q 53.59 18.62 52.48 22.03"
/>
<path stroke="#d4fb73" vector-effect="non-scaling-stroke" d="
  M 52.48 22.03
  Q 51.71 20.42 50.30 21.35
  Q 49.85 21.65 49.89 22.19
  L 50.23 26.09"
/>
<path stroke="#748730" vector-effect="non-scaling-stroke" d="
  M 50.23 26.09
  L 48.45 20.19"
/>
<path stroke="#a6db42" vector-effect="non-scaling-stroke" d="
  M 46.65 12.32
  Q 47.65 14.73 48.94 11.58"
/>
<path stroke="#6bc034" vector-effect="non-scaling-stroke" d="
  M 48.94 11.58
  Q 51.82 10.63 51.52 8.59"
/>
<path stroke="#a6db42" vector-effect="non-scaling-stroke" d="
  M 51.52 8.59
  L 51.45 7.74"
/>
<path stroke="#296425" vector-effect="non-scaling-stroke" d="
  M 58.75 31.31
  L 58.23 31.70"
/>
<path stroke="#66b12e" vector-effect="non-scaling-stroke" d="
  M 58.23 31.70
  Q 57.16 31.94 56.24 31.37
  Q 55.49 30.91 55.22 31.22
  Q 54.91 31.57 54.62 32.46"
/>
<path stroke="#70b552" vector-effect="non-scaling-stroke" d="
  M 54.62 32.46
  Q 51.82 27.05 52.48 22.03"
/>
<path stroke="#8daa46" vector-effect="non-scaling-stroke" d="
  M 58.23 31.70
  Q 58.79 31.95 58.79 32.49"
/>
<path stroke="#b1df66" vector-effect="non-scaling-stroke" d="
  M 43.40 7.27
  C 44.52 8.32 46.62 9.37 47.27 10.60
  Q 47.88 11.75 46.65 12.32"
/>
<path stroke="#d4fb73" vector-effect="non-scaling-stroke" d="
  M 46.65 12.32
  Q 45.76 12.32 45.69 11.90
  C 45.54 10.93 44.75 10.23 43.89 10.18"
/>
<path stroke="#91a283" vector-effect="non-scaling-stroke" d="
  M 43.89 10.18
  L 37.48 5.76"
/>
<path stroke="#a3c74a" vector-effect="non-scaling-stroke" d="
  M 53.68 7.81
  Q 53.53 6.05 52.56 6.51"
/>
<path stroke="#7a9044" vector-effect="non-scaling-stroke" d="
  M 24.59 11.32
  Q 20.53 14.81 19.48 19.04"
/>
<path stroke="#564d2e" vector-effect="non-scaling-stroke" d="
  M 19.48 19.04
  L 16.75 28.17
  Q 16.50 29.02 17.26 28.58
  L 19.28 27.43"
/>
<path stroke="#5a6a31" vector-effect="non-scaling-stroke" d="
  M 15.34 43.48
  Q 13.51 44.71 13.24 47.59
  Q 13.19 48.16 12.62 48.11
  L 11.69 48.03"
/>
<path stroke="#8b9e5b" vector-effect="non-scaling-stroke" d="
  M 10.20 43.35
  Q 9.72 41.83 10.17 40.62"
/>
<path stroke="#6a7a32" vector-effect="non-scaling-stroke" d="
  M 10.17 40.62
  L 13.83 32.30"
/>
<path stroke="#6a8b33" vector-effect="non-scaling-stroke" d="
  M 51.67 47.37
  L 52.41 50.07"
/>
<path stroke="#6a7a32" vector-effect="non-scaling-stroke" d="
  M 51.49 54.03
  Q 50.25 54.11 50.50 53.47"
/>
<path stroke="#5a6a31" vector-effect="non-scaling-stroke" d="
  M 15.10 54.74
  Q 15.59 55.11 15.52 55.40"
/>
<path stroke="#c8db9f" vector-effect="non-scaling-stroke" d="
  M 24.31 15.08
  Q 23.34 15.79 22.87 16.75
  Q 22.65 17.23 23.13 17.44
  Q 23.47 17.58 24.05 17.52"
/>
<path stroke="#81946c" vector-effect="non-scaling-stroke" d="
  M 23.21 18.73
  Q 22.32 18.89 21.96 19.49"
/>
<path stroke="#99a053" vector-effect="non-scaling-stroke" d="
  M 21.96 19.49
  L 19.48 19.04"
/>
<path stroke="#5d5156" vector-effect="non-scaling-stroke" d="
  M 21.77 21.01
  Q 22.05 20.15 21.96 19.49"
/>
<path stroke="#1d2011" vector-effect="non-scaling-stroke" d="
  M 32.76 9.95
  L 32.26 10.02
  A 1.01 1.00 -72.0 0 0 31.68 10.32
  Q 28.75 13.45 26.67 15.17
  Q 26.41 15.39 25.73 15.19"
/>
<path stroke="#85887a" vector-effect="non-scaling-stroke" d="
  M 25.73 15.19
  L 26.27 14.32"
/>
<path stroke="#7e8b54" vector-effect="non-scaling-stroke" d="
  M 40.67 15.04
  L 42.90 18.41"
/>
<path stroke="#bedb6e" vector-effect="non-scaling-stroke" d="
  M 42.90 18.41
  Q 42.29 18.64 42.07 19.32"
/>
<path stroke="#71814d" vector-effect="non-scaling-stroke" d="
  M 42.07 19.32
  L 34.30 10.76
  Q 33.96 10.39 33.49 10.21
  L 32.76 9.95"
/>
<path stroke="#8b9e5b" vector-effect="non-scaling-stroke" d="
  M 32.76 9.95
  Q 32.39 9.58 31.99 9.53
  Q 31.65 9.49 31.24 9.83
  Q 28.67 11.96 26.27 14.32"
/>
<path stroke="#d9e9b6" vector-effect="non-scaling-stroke" d="
  M 26.27 14.32
  Q 25.11 13.92 24.31 15.08"
/>
<path stroke="#cef180" vector-effect="non-scaling-stroke" d="
  M 24.31 15.08
  Q 24.02 13.39 25.50 12.54"
/>
<path stroke="#bedb6e" vector-effect="non-scaling-stroke" d="
  M 10.00 39.70
  Q 9.40 38.46 10.17 40.62"
/>
<path stroke="#b1df66" vector-effect="non-scaling-stroke" d="
  M 7.41 45.41
  Q 6.67 45.42 6.22 45.19
  Q 5.78 44.96 5.66 44.25
  Q 5.19 41.43 7.52 40.00
  Q 7.90 39.77 7.94 39.33
  L 8.13 37.33
  Q 8.18 36.79 8.52 36.37
  Q 10.19 34.34 9.77 31.79"
/>
<path stroke="#76c458" vector-effect="non-scaling-stroke" d="
  M 9.77 31.79
  Q 10.85 31.87 9.27 30.88
  Q 8.77 30.57 9.08 30.06
  Q 9.38 29.56 9.95 29.48
  Q 10.40 29.42 10.72 29.09
  Q 12.44 27.31 10.47 26.03
  Q 9.70 25.53 10.59 25.30
  L 12.18 24.90
  Q 12.68 24.77 12.75 24.25
  Q 12.89 23.30 12.37 22.27"
/>
<path stroke="#b1df66" vector-effect="non-scaling-stroke" d="
  M 13.36 18.63
  Q 16.10 17.13 15.95 14.86"
/>
<path stroke="#928981" vector-effect="non-scaling-stroke" d="
  M 36.50 6.01
  C 40.22 9.09 44.34 11.44 45.77 16.68"
/>
<path stroke="#7e8b54" vector-effect="non-scaling-stroke" d="
  M 50.23 26.09
  L 55.44 38.47"
/>
<path stroke="#5e672b" vector-effect="non-scaling-stroke" d="
  M 55.44 38.47
  Q 55.21 38.72 55.03 38.74
  Q 54.87 38.76 54.75 38.48
  Q 53.27 35.18 51.50 32.03
  Q 51.38 31.81 51.13 31.78
  Q 50.67 31.74 50.85 32.17
  L 54.15 39.94"
/>
<path stroke="#2b3b19" vector-effect="non-scaling-stroke" d="
  M 54.15 39.94
  Q 53.80 40.42 53.38 40.51
  Q 52.97 40.59 52.80 40.20
  L 50.12 34.10
  A 0.29 0.29 0.0 0 0 49.57 34.24
  Q 50.10 40.04 52.04 45.74
  Q 52.36 46.68 51.67 47.37"
/>
<path stroke="#5e672b" vector-effect="non-scaling-stroke" d="
  M 51.67 47.37
  C 48.47 37.81 47.01 27.52 42.90 18.41"
/>
<path stroke="#5d4b2d" vector-effect="non-scaling-stroke" d="
  M 44.27 18.45
  L 41.56 14.48"
/>
<path stroke="#eeffcb" vector-effect="non-scaling-stroke" d="
  M 32.77 7.64
  L 25.50 12.54"
/>
<path stroke="#def0b4" vector-effect="non-scaling-stroke" d="
  M 25.50 12.54
  L 24.79 11.30"
/>
<path stroke="#63647a" vector-effect="non-scaling-stroke" d="
  M 29.26 6.29
  Q 28.14 6.08 27.70 5.53"
/>
<path stroke="#879e5f" vector-effect="non-scaling-stroke" d="
  M 43.89 10.18
  Q 48.29 14.96 48.45 20.19"
/>
<path stroke="#312e40" vector-effect="non-scaling-stroke" d="
  M 48.45 20.19
  Q 47.84 19.73 46.94 19.55"
/>
<path stroke="#c0c1c2" vector-effect="non-scaling-stroke" d="
  M 29.59 6.82
  L 24.79 11.30"
/>
<path stroke="#a0b377" vector-effect="non-scaling-stroke" d="
  M 24.79 11.30
  Q 23.86 11.14 24.59 11.32"
/>
<path stroke="#5d6052" vector-effect="non-scaling-stroke" d="
  M 24.59 11.32
  Q 23.71 10.79 22.98 11.06"
/>
<path stroke="#b1a88c" vector-effect="non-scaling-stroke" d="
  M 22.98 11.06
  Q 22.11 10.60 21.55 12.08"
/>
<path stroke="#8c8559" vector-effect="non-scaling-stroke" d="
  M 22.98 11.06
  Q 23.26 11.87 22.30 12.30"
/>
<path stroke="#444d2e" vector-effect="non-scaling-stroke" d="
  M 16.89 21.69
  L 13.83 32.30"
/>
<path stroke="#778a41" vector-effect="non-scaling-stroke" d="
  M 13.83 32.30
  Q 11.14 34.71 10.00 39.70"
/>
<path stroke="#97ae6a" vector-effect="non-scaling-stroke" d="
  M 10.00 39.70
  Q 9.17 38.62 9.45 37.98
  C 11.43 33.48 13.01 29.66 14.21 24.47
  Q 15.55 18.71 17.86 13.28"
/>
<path stroke="#6a8b33" vector-effect="non-scaling-stroke" d="
  M 54.85 43.04
  L 54.15 39.94"
/>
<path stroke="#66a32d" vector-effect="non-scaling-stroke" d="
  M 10.71 18.93
  L 10.48 20.25
  A 0.64 0.64 0.0 0 0 11.63 20.73
  Q 12.47 19.56 11.44 18.67
  A 0.45 0.44 25.3 0 0 10.71 18.93"
/>
<path stroke="#504126" vector-effect="non-scaling-stroke" d="
  M 24.11 24.27
  L 29.42 27.60
  Q 30.09 28.03 29.93 27.25
  L 29.65 25.90"
/>
<path stroke="#110d0a" vector-effect="non-scaling-stroke" d="
  M 29.65 25.90
  Q 31.46 26.64 32.26 26.42
  Q 32.69 26.31 33.01 26.62
  Q 33.16 26.77 33.32 26.93"
/>
<path stroke="#504126" vector-effect="non-scaling-stroke" d="
  M 33.32 26.93
  Q 33.15 27.10 33.23 27.41
  A 0.60 0.60 0.0 0 0 34.29 27.62
  Q 35.87 25.57 38.28 24.98"
/>
<path stroke="#110d0a" vector-effect="non-scaling-stroke" d="
  M 38.28 24.98
  Q 39.33 24.67 39.98 23.29
  Q 40.17 22.88 39.88 22.53
  C 37.59 19.81 36.81 17.70 32.82 16.68
  C 30.88 16.18 29.58 18.50 28.54 19.30
  C 26.53 20.83 24.38 21.41 24.11 24.27"
/>
<path stroke="#5d4b2d" vector-effect="non-scaling-stroke" d="
  M 38.28 24.98
  L 38.26 24.60
  Q 38.22 24.02 37.64 24.09
  Q 35.12 24.42 33.32 26.93"
/>
<path stroke="#5d4b2d" vector-effect="non-scaling-stroke" d="
  M 29.65 25.90
  Q 27.70 23.34 24.11 24.27"
/>
<path stroke="#504126" vector-effect="non-scaling-stroke" d="
  M 26.00 26.76
  L 25.50 26.49
  A 0.32 0.32 0.0 0 0 25.10 26.98
  Q 25.86 27.88 27.02 28.15
  Q 27.73 28.33 27.45 27.65
  Q 27.25 27.17 26.78 27.02
  Q 26.01 26.77 26.00 26.76"
/>
<path stroke="#504126" vector-effect="non-scaling-stroke" d="
  M 38.1718 26.8626
  A 1.36 0.47 -27.0 0 0 36.7466 27.0612
  A 1.36 0.47 -27.0 0 0 35.7482 28.0974
  A 1.36 0.47 -27.0 0 0 37.1734 27.8988
  A 1.36 0.47 -27.0 0 0 38.1718 26.8626"
/>
<path stroke="#504126" vector-effect="non-scaling-stroke" d="
  M 31.70 37.02
  A 1.10 1.09 -6.1 0 0 32.99 35.43
  L 32.75 35.03
  Q 32.55 34.68 32.79 34.36
  Q 35.30 30.95 32.03 28.28
  Q 31.66 27.98 31.33 28.32
  Q 28.90 30.87 31.00 33.75
  A 0.88 0.88 0.0 0 1 31.03 34.75
  Q 29.92 36.43 31.70 37.02"
/>
<path stroke="#3c3020" vector-effect="non-scaling-stroke" d="
  M 26.45 29.88
  L 24.29 28.67
  A 0.40 0.40 0.0 0 0 23.70 29.11
  Q 24.16 31.15 26.37 31.70
  Q 26.75 31.80 27.07 31.56
  L 28.22 30.71
  Q 29.18 30.00 27.99 30.00
  L 26.91 30.00
  A 1.00 0.91 57.0 0 1 26.45 29.88"
/>
<path stroke="#3c3020" vector-effect="non-scaling-stroke" d="
  M 38.52 29.38
  L 35.75 30.10
  Q 35.40 30.19 35.49 30.54
  Q 35.79 31.86 36.96 31.74
  Q 39.67 31.44 40.05 29.08
  A 0.50 0.49 76.3 0 0 39.27 28.60
  Q 39.08 28.74 39.00 28.95
  Q 38.87 29.29 38.52 29.38"
/>
<path stroke="#504126" vector-effect="non-scaling-stroke" d="
  M 28.48 32.87
  Q 28.05 33.77 27.97 34.83
  A 0.87 0.87 0.0 0 0 29.67 35.14
  Q 30.07 33.73 29.08 32.76
  Q 28.70 32.39 28.48 32.87"
/>
<path stroke="#1d2011" vector-effect="non-scaling-stroke" d="
  M 34.59 36.37
  Q 35.00 36.27 35.11 36.96
  Q 35.18 37.37 34.83 37.61
  L 32.72 39.00
  Q 31.52 39.80 32.96 39.91
  L 34.52 40.04
  Q 35.10 40.08 35.37 39.56
  L 36.36 37.61
  Q 36.60 37.14 37.10 36.97
  Q 38.34 36.55 37.86 35.20
  Q 37.23 33.41 35.15 33.37"
/>
<path stroke="#504126" vector-effect="non-scaling-stroke" d="
  M 35.15 33.37
  Q 32.38 33.25 34.59 36.37"
/>
<path stroke="#6a5e33" vector-effect="non-scaling-stroke" d="
  M 35.15 33.37
  Q 35.69 35.61 34.59 36.37"
/>
<path stroke="#1d2011" vector-effect="non-scaling-stroke" d="
  M 27.27 39.35
  L 27.11 40.14
  A 0.37 0.37 0.0 0 0 27.61 40.56
  L 30.06 39.57
  Q 30.50 39.39 30.32 38.95
  Q 29.62 37.27 27.84 36.82
  A 0.58 0.58 0.0 0 1 27.41 36.29
  L 27.33 34.63
  A 0.43 0.42 -24.3 0 0 26.60 34.36
  Q 24.44 36.58 26.95 38.52
  Q 27.37 38.84 27.27 39.35"
/>
<path stroke="#3c3020" vector-effect="non-scaling-stroke" d="
  M 36.22 43.14
  C 33.13 40.62 30.16 40.76 27.18 43.58
  A 0.28 0.28 0.0 0 0 27.52 44.02
  Q 31.58 41.59 35.67 43.91
  Q 36.02 44.11 36.32 43.84
  Q 36.44 43.73 36.47 43.60
  Q 36.51 43.38 36.22 43.14"
/>
<path stroke="#1d2011" vector-effect="non-scaling-stroke" d="
  M 28.78 46.23
  L 34.58 45.68
  A 0.04 0.04 0.0 0 0 34.61 45.63
  L 34.61 45.59
  A 2.84 1.80 -5.5 0 0 31.61 44.07
  L 31.39 44.09
  A 2.84 1.80 -5.5 0 0 28.74 46.16
  L 28.74 46.20
  A 0.04 0.04 0.0 0 0 28.78 46.23"
/>
<path stroke="#2a3020" vector-effect="non-scaling-stroke" d="
  M 4.72 50.56
  A 0.87 0.87 0.0 0 0 4.92 52.29
  Q 6.53 52.18 7.11 50.75
  Q 7.35 50.16 6.71 50.25
  L 4.72 50.56"
/>
<path stroke="#404d24" vector-effect="non-scaling-stroke" d="
  M 54.20 51.78
  L 58.97 56.94
  A 0.16 0.16 0.0 0 0 59.20 56.94
  L 59.24 56.90
  A 2.63 1.40 47.2 0 0 58.48 54.02
  L 57.07 52.50
  A 2.63 1.40 47.2 0 0 54.25 51.52
  L 54.21 51.56
  A 0.16 0.16 0.0 0 0 54.20 51.78"
/>
<path stroke="#404d24" vector-effect="non-scaling-stroke" d="
  M 10.25 52.14
  A 0.27 0.25 -52.2 0 0 10.22 51.82
  Q 9.79 51.37 9.23 51.46
  Q 8.90 51.52 8.55 51.89
  Q 6.41 54.18 4.13 57.18
  A 0.31 0.31 0.0 0 0 4.54 57.64
  Q 8.03 55.52 10.25 52.14"
/>
<path stroke="#1d2011" vector-effect="non-scaling-stroke" d="
  M 52.68 56.43
  L 52.17 58.07
  A 0.22 0.22 0.0 0 0 52.31 58.35
  L 52.39 58.37
  A 5.52 1.01 17.4 0 0 57.96 59.06
  L 58.00 58.92
  A 5.52 1.01 17.4 0 0 53.03 56.31
  L 52.96 56.29
  A 0.22 0.22 0.0 0 0 52.68 56.43"
/>
<path stroke="#1d2011" vector-effect="non-scaling-stroke" d="
  M 7.67 59.10
  Q 10.36 59.43 12.05 58.58
  A 1.03 1.03 0.0 0 0 11.13 56.73
  L 7.57 58.49
  A 0.32 0.32 0.0 0 0 7.67 59.10"
/>
</g>
<path fill="#0d0a03" d="
  M 0.00 0.00
  L 64.00 0.00
  L 64.00 64.00
  L 0.00 64.00
  L 0.00 0.00
  Z
  M 0.75 42.73
  L 1.09 62.07
  L 1.38 62.47
  A 1.14 1.11 71.3 0 0 2.28 62.93
  L 62.00 63.03
  Q 62.72 63.03 62.73 62.30
  L 62.90 30.96
  Q 63.12 17.66 62.94 4.28
  C 62.93 3.64 62.62 3.11 62.46 2.50
  Q 63.01 1.67 62.65 1.10
  A 0.67 0.67 0.0 0 0 62.10 0.81
  L 1.39 1.01
  A 0.43 0.43 0.0 0 0 0.96 1.44
  L 0.75 42.73
  Z"
/>
<path fill="#d3d3d5" d="
  M 62.46 2.50
  L 61.09 3.01
  L 45.77 3.07
  L 24.97 3.17
  L 3.78 3.23
  Q 3.22 3.23 3.21 3.79
  L 2.92 42.74
  Q 2.76 43.02 2.73 43.53
  Q 2.70 44.03 2.20 44.00
  Q 1.22 43.95 0.75 42.73
  L 0.96 1.44
  A 0.43 0.43 0.0 0 1 1.39 1.01
  L 62.10 0.81
  A 0.67 0.67 0.0 0 1 62.65 1.10
  Q 63.01 1.67 62.46 2.50
  Z"
/>
<path fill="#828385" d="
  M 62.46 2.50
  C 62.62 3.11 62.93 3.64 62.94 4.28
  Q 63.12 17.66 62.90 30.96
  Q 62.35 31.39 61.80 31.51
  A 0.45 0.44 84.5 0 1 61.26 31.06
  Q 61.30 30.25 61.01 29.73
  L 61.09 3.01
  L 62.46 2.50
  Z"
/>
<path fill="#373d1e" d="
  M 45.77 3.07
  Q 42.02 3.39 38.25 3.23
  Q 36.90 3.18 36.94 4.29
  L 28.28 4.11
  Q 29.22 2.98 24.97 3.17
  L 45.77 3.07
  Z"
/>
<path fill="#081807" d="
  M 45.77 3.07
  L 61.09 3.01
  L 61.01 29.73
  L 60.94 52.14
  Q 60.94 52.59 60.73 52.99
  Q 60.59 53.25 60.58 53.53
  Q 59.73 52.77 59.42 52.02
  Q 60.35 50.73 59.54 50.22
  Q 58.07 49.30 57.44 50.23
  Q 57.02 49.76 56.97 49.26
  Q 56.92 48.79 57.30 48.51
  Q 57.89 48.07 58.23 48.35
  Q 58.89 48.89 59.18 48.09
  L 59.47 47.28
  L 59.72 45.27
  A 1.46 1.46 0.0 0 0 59.50 44.29
  Q 58.40 42.61 58.79 40.54
  Q 58.87 40.11 58.44 40.03
  Q 58.01 39.95 57.81 39.73
  L 57.71 37.90
  L 58.79 32.49
  L 59.45 32.14
  A 0.52 0.52 0.0 0 0 59.02 31.19
  Q 58.90 31.23 58.75 31.31
  Q 58.05 31.36 57.74 30.78
  A 0.99 0.98 43.3 0 1 57.71 29.91
  Q 59.19 26.70 57.30 23.91
  C 54.87 20.35 56.01 18.34 58.50 15.42
  A 0.22 0.22 0.0 0 0 58.17 15.13
  Q 57.19 16.15 56.35 15.54
  Q 56.27 14.21 58.09 13.21
  Q 59.35 12.85 59.82 11.75
  Q 60.08 11.16 59.45 11.31
  L 58.36 11.59
  Q 58.05 11.19 57.68 11.14
  Q 57.16 11.07 57.01 11.57
  L 56.71 12.54
  Q 56.57 12.96 56.20 13.20
  Q 55.02 13.94 54.60 15.24
  Q 54.47 15.66 54.16 15.96
  L 51.95 18.17
  A 1.24 1.23 44.8 0 1 50.20 18.17
  Q 49.00 16.97 49.89 15.89
  Q 50.22 15.47 50.01 14.98
  Q 49.42 13.60 50.84 12.58
  Q 53.41 10.73 53.68 7.81
  L 53.85 4.57
  Q 53.89 3.73 53.32 4.35
  Q 52.77 4.94 52.56 6.51
  L 51.45 7.74
  Q 49.75 7.96 48.20 7.06
  Q 47.79 6.83 47.32 6.87
  L 43.40 7.27
  L 38.06 4.64
  Q 37.17 4.50 36.94 4.29
  Q 36.90 3.18 38.25 3.23
  Q 42.02 3.39 45.77 3.07
  Z"
/>
<path fill="#030c03" d="
  M 24.97 3.17
  Q 29.22 2.98 28.28 4.11
  L 26.96 5.16
  L 23.98 6.71
  Q 21.49 7.20 20.04 9.76
  Q 18.45 10.24 17.65 11.67
  A 0.17 0.17 0.0 0 1 17.33 11.54
  Q 18.32 8.09 20.96 5.86
  Q 21.67 5.26 20.74 5.25
  C 17.00 5.23 16.72 9.09 15.26 11.72
  Q 14.33 12.10 13.50 11.98
  Q 13.38 11.50 12.51 11.40
  Q 11.61 10.15 9.97 10.21
  Q 9.51 10.23 9.19 10.55
  L 7.70 11.99
  Q 7.31 12.37 6.78 12.28
  Q 5.96 12.14 5.89 12.93
  Q 5.32 19.63 5.56 31.32
  Q 3.68 35.09 4.73 40.59
  Q 4.09 41.77 4.20 44.18
  Q 3.80 43.54 2.96 43.77
  Q 3.09 43.23 2.92 42.74
  L 3.21 3.79
  Q 3.22 3.23 3.78 3.23
  L 24.97 3.17
  Z"
/>
<path fill="#755d3d" d="
  M 28.28 4.11
  L 36.94 4.29
  Q 37.17 4.50 38.06 4.64
  L 37.44 4.77
  Q 36.88 4.89 37.21 5.36
  L 37.48 5.76
  Q 36.50 5.63 36.50 6.01
  Q 35.44 5.68 35.03 5.81
  A 0.27 0.27 0.0 0 0 34.96 6.29
  Q 40.92 10.58 45.77 16.68
  L 46.94 19.55
  Q 47.04 19.77 46.90 19.99
  Q 46.66 20.36 46.31 20.08
  L 44.27 18.45
  Q 43.55 14.29 40.09 11.86
  Q 39.54 11.48 39.78 12.10
  Q 40.25 13.36 41.56 14.48
  Q 40.64 14.37 40.67 15.04
  L 32.77 7.64
  Q 33.40 6.12 32.50 5.75
  Q 31.13 5.19 29.59 6.82
  L 29.26 6.29
  Q 29.57 6.06 29.60 5.92
  A 1.02 1.01 -2.6 0 0 28.28 4.72
  Q 27.73 4.92 27.70 5.53
  Q 27.61 5.50 27.52 5.47
  Q 27.54 5.29 26.96 5.16
  L 28.28 4.11
  Z"
/>
<path fill="#7c9744" d="
  M 53.68 7.81
  Q 53.53 6.05 52.56 6.51
  Q 52.77 4.94 53.32 4.35
  Q 53.89 3.73 53.85 4.57
  L 53.68 7.81
  Z"
/>
<path fill="#44456e" d="
  M 29.26 6.29
  Q 28.14 6.08 27.70 5.53
  Q 27.73 4.92 28.28 4.72
  A 1.02 1.01 -2.6 0 1 29.60 5.92
  Q 29.57 6.06 29.26 6.29
  Z"
/>
<path fill="#deff97" d="
  M 38.06 4.64
  L 43.40 7.27
  C 44.52 8.32 46.62 9.37 47.27 10.60
  Q 47.88 11.75 46.65 12.32
  Q 45.76 12.32 45.69 11.90
  C 45.54 10.93 44.75 10.23 43.89 10.18
  L 37.48 5.76
  L 37.21 5.36
  Q 36.88 4.89 37.44 4.77
  L 38.06 4.64
  Z"
/>
<path fill="#bde269" d="
  M 20.04 9.76
  Q 22.19 9.99 23.98 6.71
  L 26.96 5.16
  Q 27.54 5.29 27.52 5.47
  L 21.18 11.09
  Q 20.71 11.50 21.23 11.86
  L 21.55 12.08
  Q 21.46 12.27 22.30 12.30
  C 19.84 13.50 18.02 18.96 16.89 21.69
  Q 16.45 20.07 17.37 17.84
  C 18.26 15.69 18.38 13.48 19.73 11.48
  Q 20.14 10.88 19.50 11.23
  Q 18.40 11.84 17.86 13.28
  Q 17.62 11.93 16.23 12.67
  Q 15.79 12.90 15.75 13.39
  Q 15.68 14.36 15.95 14.86
  Q 14.52 16.36 12.81 16.84
  L 15.26 11.72
  C 16.72 9.09 17.00 5.23 20.74 5.25
  Q 21.67 5.26 20.96 5.86
  Q 18.32 8.09 17.33 11.54
  A 0.17 0.17 0.0 0 0 17.65 11.67
  Q 18.45 10.24 20.04 9.76
  Z"
/>
<path fill="#828385" d="
  M 27.52 5.47
  Q 27.61 5.50 27.70 5.53
  Q 28.14 6.08 29.26 6.29
  L 29.59 6.82
  L 24.79 11.30
  Q 23.86 11.14 24.59 11.32
  Q 23.71 10.79 22.98 11.06
  Q 22.11 10.60 21.55 12.08
  L 21.23 11.86
  Q 20.71 11.50 21.18 11.09
  L 27.52 5.47
  Z"
/>
<path fill="#fefefe" d="
  M 32.77 7.64
  L 25.50 12.54
  L 24.79 11.30
  L 29.59 6.82
  Q 31.13 5.19 32.50 5.75
  Q 33.40 6.12 32.77 7.64
  Z"
/>
<path fill="#e0cc93" d="
  M 36.50 6.01
  C 40.22 9.09 44.34 11.44 45.77 16.68
  Q 40.92 10.58 34.96 6.29
  A 0.27 0.27 0.0 0 1 35.03 5.81
  Q 35.44 5.68 36.50 6.01
  Z"
/>
<path fill="#44456e" d="
  M 37.48 5.76
  L 43.89 10.18
  Q 48.29 14.96 48.45 20.19
  Q 47.84 19.73 46.94 19.55
  L 45.77 16.68
  C 44.34 11.44 40.22 9.09 36.50 6.01
  Q 36.50 5.63 37.48 5.76
  Z"
/>
<path fill="#c9f74f" d="
  M 52.56 6.51
  Q 53.53 6.05 53.68 7.81
  Q 53.41 10.73 50.84 12.58
  Q 49.42 13.60 50.01 14.98
  Q 50.22 15.47 49.89 15.89
  Q 49.00 16.97 50.20 18.17
  A 1.24 1.23 44.8 0 0 51.95 18.17
  L 54.16 15.96
  Q 54.47 15.66 54.60 15.24
  Q 55.02 13.94 56.20 13.20
  Q 56.57 12.96 56.71 12.54
  L 57.01 11.57
  Q 57.16 11.07 57.68 11.14
  Q 58.05 11.19 58.36 11.59
  Q 57.14 12.32 58.09 13.21
  Q 56.27 14.21 56.35 15.54
  Q 53.59 18.62 52.48 22.03
  Q 51.71 20.42 50.30 21.35
  Q 49.85 21.65 49.89 22.19
  L 50.23 26.09
  L 48.45 20.19
  Q 48.29 14.96 43.89 10.18
  C 44.75 10.23 45.54 10.93 45.69 11.90
  Q 45.76 12.32 46.65 12.32
  Q 47.65 14.73 48.94 11.58
  Q 51.82 10.63 51.52 8.59
  L 51.45 7.74
  L 52.56 6.51
  Z"
/>
<path fill="#7c9744" d="
  M 23.98 6.71
  Q 22.19 9.99 20.04 9.76
  Q 21.49 7.20 23.98 6.71
  Z"
/>
<path fill="#83be35" d="
  M 51.45 7.74
  L 51.52 8.59
  Q 47.03 10.09 48.94 11.58
  Q 47.65 14.73 46.65 12.32
  Q 47.88 11.75 47.27 10.60
  C 46.62 9.37 44.52 8.32 43.40 7.27
  L 47.32 6.87
  Q 47.79 6.83 48.20 7.06
  Q 49.75 7.96 51.45 7.74
  Z"
/>
<path fill="#deff97" d="
  M 32.77 7.64
  L 40.67 15.04
  L 42.90 18.41
  Q 42.29 18.64 42.07 19.32
  L 34.30 10.76
  Q 33.96 10.39 33.49 10.21
  L 32.76 9.95
  Q 32.39 9.58 31.99 9.53
  Q 31.65 9.49 31.24 9.83
  Q 28.67 11.96 26.27 14.32
  Q 25.11 13.92 24.31 15.08
  Q 24.02 13.39 25.50 12.54
  L 32.77 7.64
  Z"
/>
<path fill="#0d8818" d="
  M 51.52 8.59
  Q 51.82 10.63 48.94 11.58
  Q 47.03 10.09 51.52 8.59
  Z"
/>
<path fill="#373d1e" d="
  M 32.76 9.95
  L 32.26 10.02
  A 1.01 1.00 -72.0 0 0 31.68 10.32
  Q 28.75 13.45 26.67 15.17
  Q 26.41 15.39 25.73 15.19
  L 26.27 14.32
  Q 28.67 11.96 31.24 9.83
  Q 31.65 9.49 31.99 9.53
  Q 32.39 9.58 32.76 9.95
  Z"
/>
<path fill="#024f0a" d="
  M 12.51 11.40
  Q 11.06 12.20 11.05 13.79
  A 0.71 0.71 0.0 0 0 12.27 14.29
  Q 13.07 13.49 13.50 11.98
  Q 14.33 12.10 15.26 11.72
  L 12.81 16.84
  Q 12.46 17.08 12.48 17.64
  Q 12.50 18.09 12.87 18.32
  L 13.36 18.63
  Q 13.88 20.38 12.37 22.27
  L 9.89 24.59
  Q 9.52 24.94 9.03 25.03
  Q 8.12 25.19 8.00 26.15
  Q 7.92 26.71 7.52 27.12
  Q 5.99 28.69 5.56 31.32
  Q 5.32 19.63 5.89 12.93
  Q 5.96 12.14 6.78 12.28
  Q 7.31 12.37 7.70 11.99
  L 9.19 10.55
  Q 9.51 10.23 9.97 10.21
  Q 11.61 10.15 12.51 11.40
  Z
  M 10.71 18.93
  L 10.48 20.25
  A 0.64 0.64 0.0 0 0 11.63 20.73
  Q 12.47 19.56 11.44 18.67
  A 0.45 0.44 25.3 0 0 10.71 18.93
  Z"
/>
<path fill="#030303" d="
  M 32.76 9.95
  L 33.49 10.21
  Q 33.96 10.39 34.30 10.76
  L 42.07 19.32
  C 45.38 26.65 45.96 34.01 48.58 41.39
  C 49.97 45.30 52.04 50.41 50.50 53.47
  L 48.99 54.58
  Q 48.56 54.91 48.14 54.56
  Q 43.59 50.81 41.19 49.06
  Q 40.95 48.88 40.77 48.95
  Q 40.35 49.10 40.67 49.41
  C 42.23 50.92 49.71 59.87 51.49 54.03
  L 52.41 50.07
  Q 54.02 47.98 54.06 44.85
  Q 54.07 44.43 54.43 44.20
  L 54.69 44.04
  L 57.27 45.29
  Q 56.62 46.54 57.78 46.90
  Q 58.60 47.16 59.47 47.28
  L 59.18 48.09
  Q 58.89 48.89 58.23 48.35
  Q 57.89 48.07 57.30 48.51
  Q 56.92 48.79 56.97 49.26
  Q 57.02 49.76 57.44 50.23
  Q 57.98 52.13 59.42 52.02
  Q 59.73 52.77 60.58 53.53
  L 61.15 61.15
  Q 61.18 61.58 60.77 61.46
  Q 58.34 60.76 55.75 60.75
  Q 29.20 60.56 2.82 60.99
  L 2.96 43.77
  Q 3.80 43.54 4.20 44.18
  Q 3.80 50.73 6.23 48.45
  Q 7.64 48.56 8.44 47.84
  Q 8.87 47.45 8.74 47.04
  Q 8.60 46.58 7.78 46.50
  Q 7.84 45.98 7.41 45.41
  Q 9.67 44.77 10.20 43.35
  Q 10.75 43.16 11.02 43.25
  Q 11.28 43.34 11.17 43.84
  Q 10.69 46.21 11.69 48.03
  L 13.22 54.28
  A 2.34 2.06 83.8 0 0 15.14 56.04
  Q 15.40 56.06 15.52 55.40
  Q 21.32 54.58 24.62 50.13
  A 0.29 0.29 0.0 0 0 24.24 49.70
  L 15.10 54.74
  C 12.53 52.39 14.54 46.29 15.34 43.48
  C 16.70 38.13 18.77 33.75 19.28 27.43
  C 20.67 25.20 19.91 23.14 21.77 21.01
  Q 23.08 20.54 23.21 18.73
  L 24.05 17.52
  L 25.73 15.19
  Q 26.41 15.39 26.67 15.17
  Q 28.75 13.45 31.68 10.32
  A 1.01 1.00 -72.0 0 1 32.26 10.02
  L 32.76 9.95
  Z
  M 24.11 24.27
  L 29.42 27.60
  Q 30.09 28.03 29.93 27.25
  L 29.65 25.90
  Q 31.46 26.64 32.26 26.42
  Q 32.69 26.31 33.01 26.62
  Q 33.16 26.77 33.32 26.93
  Q 33.15 27.10 33.23 27.41
  A 0.60 0.60 0.0 0 0 34.29 27.62
  Q 35.87 25.57 38.28 24.98
  Q 39.33 24.67 39.98 23.29
  Q 40.17 22.88 39.88 22.53
  C 37.59 19.81 36.81 17.70 32.82 16.68
  C 30.88 16.18 29.58 18.50 28.54 19.30
  C 26.53 20.83 24.38 21.41 24.11 24.27
  Z
  M 26.00 26.76
  L 25.50 26.49
  A 0.32 0.32 0.0 0 0 25.10 26.98
  Q 25.86 27.88 27.02 28.15
  Q 27.73 28.33 27.45 27.65
  Q 27.25 27.17 26.78 27.02
  Q 26.01 26.77 26.00 26.76
  Z
  M 38.1718 26.8626
  A 1.36 0.47 -27.0 0 0 36.7466 27.0612
  A 1.36 0.47 -27.0 0 0 35.7482 28.0974
  A 1.36 0.47 -27.0 0 0 37.1734 27.8988
  A 1.36 0.47 -27.0 0 0 38.1718 26.8626
  Z
  M 31.70 37.02
  A 1.10 1.09 -6.1 0 0 32.99 35.43
  L 32.75 35.03
  Q 32.55 34.68 32.79 34.36
  Q 35.30 30.95 32.03 28.28
  Q 31.66 27.98 31.33 28.32
  Q 28.90 30.87 31.00 33.75
  A 0.88 0.88 0.0 0 1 31.03 34.75
  Q 29.92 36.43 31.70 37.02
  Z
  M 26.45 29.88
  L 24.29 28.67
  A 0.40 0.40 0.0 0 0 23.70 29.11
  Q 24.16 31.15 26.37 31.70
  Q 26.75 31.80 27.07 31.56
  L 28.22 30.71
  Q 29.18 30.00 27.99 30.00
  L 26.91 30.00
  A 1.00 0.91 57.0 0 1 26.45 29.88
  Z
  M 38.52 29.38
  L 35.75 30.10
  Q 35.40 30.19 35.49 30.54
  Q 35.79 31.86 36.96 31.74
  Q 39.67 31.44 40.05 29.08
  A 0.50 0.49 76.3 0 0 39.27 28.60
  Q 39.08 28.74 39.00 28.95
  Q 38.87 29.29 38.52 29.38
  Z
  M 28.48 32.87
  Q 28.05 33.77 27.97 34.83
  A 0.87 0.87 0.0 0 0 29.67 35.14
  Q 30.07 33.73 29.08 32.76
  Q 28.70 32.39 28.48 32.87
  Z
  M 34.59 36.37
  Q 35.00 36.27 35.11 36.96
  Q 35.18 37.37 34.83 37.61
  L 32.72 39.00
  Q 31.52 39.80 32.96 39.91
  L 34.52 40.04
  Q 35.10 40.08 35.37 39.56
  L 36.36 37.61
  Q 36.60 37.14 37.10 36.97
  Q 38.34 36.55 37.86 35.20
  Q 37.23 33.41 35.15 33.37
  Q 32.38 33.25 34.59 36.37
  Z
  M 27.27 39.35
  L 27.11 40.14
  A 0.37 0.37 0.0 0 0 27.61 40.56
  L 30.06 39.57
  Q 30.50 39.39 30.32 38.95
  Q 29.62 37.27 27.84 36.82
  A 0.58 0.58 0.0 0 1 27.41 36.29
  L 27.33 34.63
  A 0.43 0.42 -24.3 0 0 26.60 34.36
  Q 24.44 36.58 26.95 38.52
  Q 27.37 38.84 27.27 39.35
  Z
  M 36.22 43.14
  C 33.13 40.62 30.16 40.76 27.18 43.58
  A 0.28 0.28 0.0 0 0 27.52 44.02
  Q 31.58 41.59 35.67 43.91
  Q 36.02 44.11 36.32 43.84
  Q 36.44 43.73 36.47 43.60
  Q 36.51 43.38 36.22 43.14
  Z
  M 28.78 46.23
  L 34.58 45.68
  A 0.04 0.04 0.0 0 0 34.61 45.63
  L 34.61 45.59
  A 2.84 1.80 -5.5 0 0 31.61 44.07
  L 31.39 44.09
  A 2.84 1.80 -5.5 0 0 28.74 46.16
  L 28.74 46.20
  A 0.04 0.04 0.0 0 0 28.78 46.23
  Z
  M 4.72 50.56
  A 0.87 0.87 0.0 0 0 4.92 52.29
  Q 6.53 52.18 7.11 50.75
  Q 7.35 50.16 6.71 50.25
  L 4.72 50.56
  Z
  M 54.20 51.78
  L 58.97 56.94
  A 0.16 0.16 0.0 0 0 59.20 56.94
  L 59.24 56.90
  A 2.63 1.40 47.2 0 0 58.48 54.02
  L 57.07 52.50
  A 2.63 1.40 47.2 0 0 54.25 51.52
  L 54.21 51.56
  A 0.16 0.16 0.0 0 0 54.20 51.78
  Z
  M 10.25 52.14
  A 0.27 0.25 -52.2 0 0 10.22 51.82
  Q 9.79 51.37 9.23 51.46
  Q 8.90 51.52 8.55 51.89
  Q 6.41 54.18 4.13 57.18
  A 0.31 0.31 0.0 0 0 4.54 57.64
  Q 8.03 55.52 10.25 52.14
  Z
  M 52.68 56.43
  L 52.17 58.07
  A 0.22 0.22 0.0 0 0 52.31 58.35
  L 52.39 58.37
  A 5.52 1.01 17.4 0 0 57.96 59.06
  L 58.00 58.92
  A 5.52 1.01 17.4 0 0 53.03 56.31
  L 52.96 56.29
  A 0.22 0.22 0.0 0 0 52.68 56.43
  Z
  M 7.67 59.10
  Q 10.36 59.43 12.05 58.58
  A 1.03 1.03 0.0 0 0 11.13 56.73
  L 7.57 58.49
  A 0.32 0.32 0.0 0 0 7.67 59.10
  Z"
/>
<path fill="#505c3d" d="
  M 16.89 21.69
  L 13.83 32.30
  Q 11.14 34.71 10.00 39.70
  Q 9.17 38.62 9.45 37.98
  C 11.43 33.48 13.01 29.66 14.21 24.47
  Q 15.55 18.71 17.86 13.28
  Q 18.40 11.84 19.50 11.23
  Q 20.14 10.88 19.73 11.48
  C 18.38 13.48 18.26 15.69 17.37 17.84
  Q 16.45 20.07 16.89 21.69
  Z"
/>
<path fill="#e0cc93" d="
  M 22.98 11.06
  Q 23.26 11.87 22.30 12.30
  Q 21.46 12.27 21.55 12.08
  Q 22.11 10.60 22.98 11.06
  Z"
/>
<path fill="#373d1e" d="
  M 22.98 11.06
  Q 23.71 10.79 24.59 11.32
  Q 20.53 14.81 19.48 19.04
  L 16.75 28.17
  Q 16.50 29.02 17.26 28.58
  L 19.28 27.43
  C 18.77 33.75 16.70 38.13 15.34 43.48
  Q 13.51 44.71 13.24 47.59
  Q 13.19 48.16 12.62 48.11
  L 11.69 48.03
  Q 10.69 46.21 11.17 43.84
  Q 11.28 43.34 11.02 43.25
  Q 10.75 43.16 10.20 43.35
  Q 9.72 41.83 10.17 40.62
  L 13.83 32.30
  L 16.89 21.69
  C 18.02 18.96 19.84 13.50 22.30 12.30
  Q 23.26 11.87 22.98 11.06
  Z"
/>
<path fill="#bde269" d="
  M 24.59 11.32
  Q 23.86 11.14 24.79 11.30
  L 25.50 12.54
  Q 24.02 13.39 24.31 15.08
  Q 23.34 15.79 22.87 16.75
  Q 22.65 17.23 23.13 17.44
  Q 23.47 17.58 24.05 17.52
  L 23.21 18.73
  Q 22.32 18.89 21.96 19.49
  L 19.48 19.04
  Q 20.53 14.81 24.59 11.32
  Z"
/>
<path fill="#373d1e" d="
  M 58.09 13.21
  Q 57.14 12.32 58.36 11.59
  L 59.45 11.31
  Q 60.08 11.16 59.82 11.75
  Q 59.35 12.85 58.09 13.21
  Z"
/>
<path fill="#c9f74f" d="
  M 12.51 11.40
  Q 13.38 11.50 13.50 11.98
  Q 13.07 13.49 12.27 14.29
  A 0.71 0.71 0.0 0 1 11.05 13.79
  Q 11.06 12.20 12.51 11.40
  Z"
/>
<path fill="#9c7e48" d="
  M 44.27 18.45
  L 41.56 14.48
  Q 40.25 13.36 39.78 12.10
  Q 39.54 11.48 40.09 11.86
  Q 43.55 14.29 44.27 18.45
  Z"
/>
<path fill="#deff97" d="
  M 17.86 13.28
  Q 15.55 18.71 14.21 24.47
  C 13.01 29.66 11.43 33.48 9.45 37.98
  Q 9.17 38.62 10.00 39.70
  Q 9.40 38.46 10.17 40.62
  Q 9.72 41.83 10.20 43.35
  Q 9.67 44.77 7.41 45.41
  Q 6.67 45.42 6.22 45.19
  Q 5.78 44.96 5.66 44.25
  Q 5.19 41.43 7.52 40.00
  Q 7.90 39.77 7.94 39.33
  L 8.13 37.33
  Q 8.18 36.79 8.52 36.37
  Q 10.19 34.34 9.77 31.79
  Q 10.85 31.87 9.27 30.88
  Q 8.77 30.57 9.08 30.06
  Q 9.38 29.56 9.95 29.48
  Q 10.40 29.42 10.72 29.09
  Q 12.44 27.31 10.47 26.03
  Q 9.70 25.53 10.59 25.30
  L 12.18 24.90
  Q 12.68 24.77 12.75 24.25
  Q 12.89 23.30 12.37 22.27
  Q 13.88 20.38 13.36 18.63
  Q 16.10 17.13 15.95 14.86
  Q 15.68 14.36 15.75 13.39
  Q 15.79 12.90 16.23 12.67
  Q 17.62 11.93 17.86 13.28
  Z"
/>
<path fill="#d3d3d5" d="
  M 26.27 14.32
  L 25.73 15.19
  L 24.05 17.52
  Q 23.47 17.58 23.13 17.44
  Q 22.65 17.23 22.87 16.75
  Q 23.34 15.79 24.31 15.08
  Q 25.11 13.92 26.27 14.32
  Z"
/>
<path fill="#1e1711" d="
  M 41.56 14.48
  L 44.27 18.45
  L 46.31 20.08
  Q 46.66 20.36 46.90 19.99
  Q 47.04 19.77 46.94 19.55
  Q 47.84 19.73 48.45 20.19
  L 50.23 26.09
  L 55.44 38.47
  Q 55.21 38.72 55.03 38.74
  Q 54.87 38.76 54.75 38.48
  Q 53.27 35.18 51.50 32.03
  Q 51.38 31.81 51.13 31.78
  Q 50.67 31.74 50.85 32.17
  L 54.15 39.94
  Q 53.80 40.42 53.38 40.51
  Q 52.97 40.59 52.80 40.20
  L 50.12 34.10
  A 0.29 0.29 0.0 0 0 49.57 34.24
  Q 50.10 40.04 52.04 45.74
  Q 52.36 46.68 51.67 47.37
  C 48.47 37.81 47.01 27.52 42.90 18.41
  L 40.67 15.04
  Q 40.64 14.37 41.56 14.48
  Z"
/>
<path fill="#026b0c" d="
  M 58.75 31.31
  L 58.23 31.70
  Q 57.16 31.94 56.24 31.37
  Q 55.49 30.91 55.22 31.22
  Q 54.91 31.57 54.62 32.46
  Q 51.82 27.05 52.48 22.03
  Q 53.59 18.62 56.35 15.54
  Q 57.19 16.15 58.17 15.13
  A 0.22 0.22 0.0 0 1 58.50 15.42
  C 56.01 18.34 54.87 20.35 57.30 23.91
  Q 59.19 26.70 57.71 29.91
  A 0.99 0.98 43.3 0 0 57.74 30.78
  Q 58.05 31.36 58.75 31.31
  Z"
/>
<path fill="#83be35" d="
  M 15.95 14.86
  Q 16.10 17.13 13.36 18.63
  L 12.87 18.32
  Q 12.50 18.09 12.48 17.64
  Q 12.46 17.08 12.81 16.84
  Q 14.52 16.36 15.95 14.86
  Z"
/>
<path fill="#1e1711" d="
  M 38.28 24.98
  L 38.26 24.60
  Q 38.22 24.02 37.64 24.09
  Q 35.12 24.42 33.32 26.93
  Q 33.16 26.77 33.01 26.62
  Q 32.69 26.31 32.26 26.42
  Q 31.46 26.64 29.65 25.90
  Q 27.70 23.34 24.11 24.27
  C 24.38 21.41 26.53 20.83 28.54 19.30
  C 29.58 18.50 30.88 16.18 32.82 16.68
  C 36.81 17.70 37.59 19.81 39.88 22.53
  Q 40.17 22.88 39.98 23.29
  Q 39.33 24.67 38.28 24.98
  Z"
/>
<path fill="#9db745" d="
  M 42.90 18.41
  C 47.01 27.52 48.47 37.81 51.67 47.37
  L 52.41 50.07
  L 51.49 54.03
  Q 50.25 54.11 50.50 53.47
  C 52.04 50.41 49.97 45.30 48.58 41.39
  C 45.96 34.01 45.38 26.65 42.07 19.32
  Q 42.29 18.64 42.90 18.41
  Z"
/>
<path fill="#c9f74f" d="
  M 10.71 18.93
  A 0.45 0.44 25.3 0 1 11.44 18.67
  Q 12.47 19.56 11.63 20.73
  A 0.64 0.64 0.0 0 1 10.48 20.25
  L 10.71 18.93
  Z"
/>
<path fill="#44456e" d="
  M 23.21 18.73
  Q 23.08 20.54 21.77 21.01
  Q 22.05 20.15 21.96 19.49
  Q 22.32 18.89 23.21 18.73
  Z"
/>
<path fill="#755d3d" d="
  M 19.48 19.04
  L 21.96 19.49
  Q 22.05 20.15 21.77 21.01
  C 19.91 23.14 20.67 25.20 19.28 27.43
  L 17.26 28.58
  Q 16.50 29.02 16.75 28.17
  L 19.48 19.04
  Z"
/>
<path fill="#deff97" d="
  M 52.48 22.03
  Q 51.82 27.05 54.62 32.46
  L 57.71 37.90
  L 57.81 39.73
  C 56.87 42.23 58.68 44.02 58.52 44.61
  Q 58.39 45.11 57.27 45.29
  L 54.69 44.04
  L 54.85 43.04
  Q 56.01 41.19 55.44 38.47
  L 50.23 26.09
  L 49.89 22.19
  Q 49.85 21.65 50.30 21.35
  Q 51.71 20.42 52.48 22.03
  Z"
/>
<path fill="#0d8818" d="
  M 12.37 22.27
  Q 12.89 23.30 12.75 24.25
  Q 12.68 24.77 12.18 24.90
  L 10.59 25.30
  Q 9.70 25.53 10.47 26.03
  Q 12.44 27.31 10.72 29.09
  Q 10.40 29.42 9.95 29.48
  Q 9.38 29.56 9.08 30.06
  Q 8.77 30.57 9.27 30.88
  Q 10.85 31.87 9.77 31.79
  Q 6.78 35.01 4.73 40.59
  Q 3.68 35.09 5.56 31.32
  Q 5.99 28.69 7.52 27.12
  Q 7.92 26.71 8.00 26.15
  Q 8.12 25.19 9.03 25.03
  Q 9.52 24.94 9.89 24.59
  L 12.37 22.27
  Z"
/>
<path fill="#9c7e48" d="
  M 29.65 25.90
  L 29.93 27.25
  Q 30.09 28.03 29.42 27.60
  L 24.11 24.27
  Q 27.70 23.34 29.65 25.90
  Z"
/>
<path fill="#9c7e48" d="
  M 38.28 24.98
  Q 35.87 25.57 34.29 27.62
  A 0.60 0.60 0.0 0 1 33.23 27.41
  Q 33.15 27.10 33.32 26.93
  Q 35.12 24.42 37.64 24.09
  Q 38.22 24.02 38.26 24.60
  L 38.28 24.98
  Z"
/>
<path fill="#9c7e48" d="
  M 26.78 27.02
  Q 27.25 27.17 27.45 27.65
  Q 27.73 28.33 27.02 28.15
  Q 25.86 27.88 25.10 26.98
  A 0.32 0.32 0.0 0 1 25.50 26.49
  L 26.00 26.76
  Q 26.01 26.77 26.78 27.02
  Z"
/>
<ellipse fill="#9c7e48" cx="0.00" cy="0.00" transform="translate(36.96,27.48) rotate(-27.0)" rx="1.36" ry="0.47"/>
<path fill="#9c7e48" d="
  M 31.70 37.02
  Q 29.92 36.43 31.03 34.75
  A 0.88 0.88 0.0 0 0 31.00 33.75
  Q 28.90 30.87 31.33 28.32
  Q 31.66 27.98 32.03 28.28
  Q 35.30 30.95 32.79 34.36
  Q 32.55 34.68 32.75 35.03
  L 32.99 35.43
  A 1.10 1.09 -6.1 0 1 31.70 37.02
  Z"
/>
<path fill="#755d3d" d="
  M 26.91 30.00
  L 27.99 30.00
  Q 29.18 30.00 28.22 30.71
  L 27.07 31.56
  Q 26.75 31.80 26.37 31.70
  Q 24.16 31.15 23.70 29.11
  A 0.40 0.40 0.0 0 1 24.29 28.67
  L 26.45 29.88
  A 1.00 0.91 57.0 0 0 26.91 30.00
  Z"
/>
<path fill="#755d3d" d="
  M 39.00 28.95
  Q 39.08 28.74 39.27 28.60
  A 0.50 0.49 76.3 0 1 40.05 29.08
  Q 39.67 31.44 36.96 31.74
  Q 35.79 31.86 35.49 30.54
  Q 35.40 30.19 35.75 30.10
  L 38.52 29.38
  Q 38.87 29.29 39.00 28.95
  Z"
/>
<path fill="#656567" d="
  M 61.01 29.73
  Q 61.30 30.25 61.26 31.06
  A 0.45 0.44 84.5 0 0 61.80 31.51
  Q 62.35 31.39 62.90 30.96
  L 62.73 62.30
  Q 62.72 63.03 62.00 63.03
  L 2.28 62.93
  A 1.14 1.11 71.3 0 1 1.38 62.47
  L 1.09 62.07
  L 2.82 60.99
  Q 29.20 60.56 55.75 60.75
  Q 58.34 60.76 60.77 61.46
  Q 61.18 61.58 61.15 61.15
  L 60.58 53.53
  Q 60.59 53.25 60.73 52.99
  Q 60.94 52.59 60.94 52.14
  L 61.01 29.73
  Z"
/>
<path fill="#c9f74f" d="
  M 58.23 31.70
  Q 58.79 31.95 58.79 32.49
  L 57.71 37.90
  L 54.62 32.46
  Q 54.91 31.57 55.22 31.22
  Q 55.49 30.91 56.24 31.37
  Q 57.16 31.94 58.23 31.70
  Z"
/>
<path fill="#505c3d" d="
  M 58.79 32.49
  Q 58.79 31.95 58.23 31.70
  L 58.75 31.31
  Q 58.90 31.23 59.02 31.19
  A 0.52 0.52 0.0 0 1 59.45 32.14
  L 58.79 32.49
  Z"
/>
<path fill="#9db745" d="
  M 55.44 38.47
  Q 56.01 41.19 54.85 43.04
  L 54.15 39.94
  L 50.85 32.17
  Q 50.67 31.74 51.13 31.78
  Q 51.38 31.81 51.50 32.03
  Q 53.27 35.18 54.75 38.48
  Q 54.87 38.76 55.03 38.74
  Q 55.21 38.72 55.44 38.47
  Z"
/>
<path fill="#83be35" d="
  M 9.77 31.79
  Q 10.19 34.34 8.52 36.37
  Q 8.18 36.79 8.13 37.33
  L 7.94 39.33
  Q 7.90 39.77 7.52 40.00
  Q 5.19 41.43 5.66 44.25
  Q 5.78 44.96 6.22 45.19
  Q 6.67 45.42 7.41 45.41
  Q 7.84 45.98 7.78 46.50
  L 6.23 48.45
  Q 3.80 50.73 4.20 44.18
  Q 4.09 41.77 4.73 40.59
  Q 6.78 35.01 9.77 31.79
  Z"
/>
<path fill="#9db745" d="
  M 13.83 32.30
  L 10.17 40.62
  Q 9.40 38.46 10.00 39.70
  Q 11.14 34.71 13.83 32.30
  Z"
/>
<path fill="#9c7e48" d="
  M 28.48 32.87
  Q 28.70 32.39 29.08 32.76
  Q 30.07 33.73 29.67 35.14
  A 0.87 0.87 0.0 0 1 27.97 34.83
  Q 28.05 33.77 28.48 32.87
  Z"
/>
<path fill="#9c7e48" d="
  M 35.15 33.37
  Q 35.69 35.61 34.59 36.37
  Q 32.38 33.25 35.15 33.37
  Z"
/>
<path fill="#373d1e" d="
  M 35.15 33.37
  Q 37.23 33.41 37.86 35.20
  Q 38.34 36.55 37.10 36.97
  Q 36.60 37.14 36.36 37.61
  L 35.37 39.56
  Q 35.10 40.08 34.52 40.04
  L 32.96 39.91
  Q 31.52 39.80 32.72 39.00
  L 34.83 37.61
  Q 35.18 37.37 35.11 36.96
  Q 35.00 36.27 34.59 36.37
  Q 35.69 35.61 35.15 33.37
  Z"
/>
<path fill="#375e21" d="
  M 54.15 39.94
  L 54.85 43.04
  L 54.69 44.04
  L 54.43 44.20
  Q 54.07 44.43 54.06 44.85
  Q 54.02 47.98 52.41 50.07
  L 51.67 47.37
  Q 52.36 46.68 52.04 45.74
  Q 50.10 40.04 49.57 34.24
  A 0.29 0.29 0.0 0 1 50.12 34.10
  L 52.80 40.20
  Q 52.97 40.59 53.38 40.51
  Q 53.80 40.42 54.15 39.94
  Z"
/>
<path fill="#373d1e" d="
  M 26.95 38.52
  Q 24.44 36.58 26.60 34.36
  A 0.43 0.42 -24.3 0 1 27.33 34.63
  L 27.41 36.29
  A 0.58 0.58 0.0 0 0 27.84 36.82
  Q 29.62 37.27 30.32 38.95
  Q 30.50 39.39 30.06 39.57
  L 27.61 40.56
  A 0.37 0.37 0.0 0 1 27.11 40.14
  L 27.27 39.35
  Q 27.37 38.84 26.95 38.52
  Z"
/>
<path fill="#7c9744" d="
  M 57.81 39.73
  Q 58.01 39.95 58.44 40.03
  Q 58.87 40.11 58.79 40.54
  Q 58.40 42.61 59.50 44.29
  A 1.46 1.46 0.0 0 1 59.72 45.27
  L 59.47 47.28
  Q 58.60 47.16 57.78 46.90
  Q 56.62 46.54 57.27 45.29
  Q 58.39 45.11 58.52 44.61
  C 58.68 44.02 56.87 42.23 57.81 39.73
  Z"
/>
<path fill="#755d3d" d="
  M 27.18 43.58
  C 30.16 40.76 33.13 40.62 36.22 43.14
  Q 36.51 43.38 36.47 43.60
  Q 36.44 43.73 36.32 43.84
  Q 36.02 44.11 35.67 43.91
  Q 31.58 41.59 27.52 44.02
  A 0.28 0.28 0.0 0 1 27.18 43.58
  Z"
/>
<path fill="#a8a9ab" d="
  M 0.75 42.73
  Q 1.22 43.95 2.20 44.00
  Q 2.70 44.03 2.73 43.53
  Q 2.76 43.02 2.92 42.74
  Q 3.09 43.23 2.96 43.77
  L 2.82 60.99
  L 1.09 62.07
  L 0.75 42.73
  Z"
/>
<path fill="#7c9744" d="
  M 15.34 43.48
  C 14.54 46.29 12.53 52.39 15.10 54.74
  Q 15.59 55.11 15.52 55.40
  Q 15.40 56.06 15.14 56.04
  A 2.34 2.06 83.8 0 1 13.22 54.28
  L 11.69 48.03
  L 12.62 48.11
  Q 13.19 48.16 13.24 47.59
  Q 13.51 44.71 15.34 43.48
  Z"
/>
<path fill="#373d1e" d="
  M 28.78 46.23
  A 0.04 0.04 0.0 0 1 28.74 46.20
  L 28.74 46.16
  A 2.84 1.80 -5.5 0 1 31.39 44.09
  L 31.61 44.07
  A 2.84 1.80 -5.5 0 1 34.61 45.59
  L 34.61 45.63
  A 0.04 0.04 0.0 0 1 34.58 45.68
  L 28.78 46.23
  Z"
/>
<path fill="#373d1e" d="
  M 7.78 46.50
  Q 8.60 46.58 8.74 47.04
  Q 8.87 47.45 8.44 47.84
  Q 7.64 48.56 6.23 48.45
  L 7.78 46.50
  Z"
/>
<path fill="#373d1e" d="
  M 50.50 53.47
  Q 50.25 54.11 51.49 54.03
  C 49.71 59.87 42.23 50.92 40.67 49.41
  Q 40.35 49.10 40.77 48.95
  Q 40.95 48.88 41.19 49.06
  Q 43.59 50.81 48.14 54.56
  Q 48.56 54.91 48.99 54.58
  L 50.50 53.47
  Z"
/>
<path fill="#373d1e" d="
  M 15.52 55.40
  Q 15.59 55.11 15.10 54.74
  L 24.24 49.70
  A 0.29 0.29 0.0 0 1 24.62 50.13
  Q 21.32 54.58 15.52 55.40
  Z"
/>
<path fill="#373d1e" d="
  M 59.42 52.02
  Q 57.98 52.13 57.44 50.23
  Q 58.07 49.30 59.54 50.22
  Q 60.35 50.73 59.42 52.02
  Z"
/>
<path fill="#505c3d" d="
  M 4.72 50.56
  L 6.71 50.25
  Q 7.35 50.16 7.11 50.75
  Q 6.53 52.18 4.92 52.29
  A 0.87 0.87 0.0 0 1 4.72 50.56
  Z"
/>
<path fill="#7c9744" d="
  M 54.20 51.78
  A 0.16 0.16 0.0 0 1 54.21 51.56
  L 54.25 51.52
  A 2.63 1.40 47.2 0 1 57.07 52.50
  L 58.48 54.02
  A 2.63 1.40 47.2 0 1 59.24 56.90
  L 59.20 56.94
  A 0.16 0.16 0.0 0 1 58.97 56.94
  L 54.20 51.78
  Z"
/>
<path fill="#7c9744" d="
  M 10.25 52.14
  Q 8.03 55.52 4.54 57.64
  A 0.31 0.31 0.0 0 1 4.13 57.18
  Q 6.41 54.18 8.55 51.89
  Q 8.90 51.52 9.23 51.46
  Q 9.79 51.37 10.22 51.82
  A 0.27 0.25 -52.2 0 1 10.25 52.14
  Z"
/>
<path fill="#373d1e" d="
  M 52.68 56.43
  A 0.22 0.22 0.0 0 1 52.96 56.29
  L 53.03 56.31
  A 5.52 1.01 17.4 0 1 58.00 58.92
  L 57.96 59.06
  A 5.52 1.01 17.4 0 1 52.39 58.37
  L 52.31 58.35
  A 0.22 0.22 0.0 0 1 52.17 58.07
  L 52.68 56.43
  Z"
/>
<path fill="#373d1e" d="
  M 7.67 59.10
  A 0.32 0.32 0.0 0 1 7.57 58.49
  L 11.13 56.73
  A 1.03 1.03 0.0 0 1 12.05 58.58
  Q 10.36 59.43 7.67 59.10
  Z"
/>
</svg>
